<svg xmlns="http://www.w3.org/2000/svg" xmlns:xlink="http://www.w3.org/1999/xlink" width="40" zoomAndPan="magnify" viewBox="0 0 30 30.000001" height="40" preserveAspectRatio="xMidYMid meet" version="1.0"><defs><clipPath id="c23da748b6"><path d="M 0.484375 3 L 11 3 L 11 23 L 0.484375 23 Z M 0.484375 3 " clip-rule="nonzero"/></clipPath><clipPath id="ac33b8eb4c"><path d="M 6.113281 7.191406 L 29.515625 7.191406 L 29.515625 20.007812 L 6.113281 20.007812 Z M 6.113281 7.191406 " clip-rule="nonzero"/></clipPath><clipPath id="788dd4801e"><path d="M 6.777344 21.234375 L 11.992188 21.234375 L 11.992188 26.40625 L 6.777344 26.40625 Z M 6.777344 21.234375 " clip-rule="nonzero"/></clipPath><clipPath id="64cef34013"><path d="M 24.21875 21.234375 L 29.429688 21.234375 L 29.429688 26.40625 L 24.21875 26.40625 Z M 24.21875 21.234375 " clip-rule="nonzero"/></clipPath><clipPath id="4ed41dbab9"><path d="M 21 2.46875 L 23 2.46875 L 23 11 L 21 11 Z M 21 2.46875 " clip-rule="nonzero"/></clipPath></defs><g clip-path="url(#c23da748b6)"><path fill="#0e1624" d="M 9.546875 22.46875 C 9.535156 22.46875 9.519531 22.46875 9.507812 22.46875 C 9.1875 22.445312 8.945312 22.171875 8.96875 21.851562 L 9.128906 19.484375 L 5.890625 6.773438 C 5.722656 6.085938 5.144531 5.566406 4.449219 5.472656 L 1.023438 5.019531 C 0.707031 4.976562 0.484375 4.6875 0.527344 4.371094 C 0.570312 4.054688 0.859375 3.828125 1.179688 3.875 L 4.601562 4.328125 C 5.769531 4.484375 6.738281 5.355469 7.015625 6.496094 L 10.277344 19.289062 C 10.292969 19.347656 10.296875 19.40625 10.292969 19.46875 L 10.125 21.929688 C 10.105469 22.234375 9.847656 22.46875 9.546875 22.46875 " fill-opacity="1" fill-rule="nonzero"/></g><path fill="#0e1624" d="M 24.863281 24.4375 L 11.390625 24.4375 C 11.070312 24.4375 10.8125 24.179688 10.8125 23.859375 C 10.8125 23.542969 11.070312 23.285156 11.390625 23.285156 L 24.863281 23.285156 C 25.183594 23.285156 25.441406 23.542969 25.441406 23.859375 C 25.441406 24.179688 25.183594 24.4375 24.863281 24.4375 " fill-opacity="1" fill-rule="nonzero"/><g clip-path="url(#ac33b8eb4c)"><path fill="#0e1624" d="M 25.988281 20.007812 L 9.714844 20.007812 C 9.449219 20.007812 9.21875 19.828125 9.152344 19.570312 L 6.199219 7.980469 C 6.148438 7.792969 6.199219 7.597656 6.324219 7.457031 C 6.449219 7.3125 6.640625 7.246094 6.828125 7.261719 L 12.21875 7.898438 C 12.539062 7.933594 12.765625 8.222656 12.730469 8.539062 C 12.691406 8.855469 12.402344 9.078125 12.085938 9.042969 L 7.53125 8.507812 L 10.167969 18.851562 L 25.988281 18.851562 C 26.472656 18.851562 26.902344 18.511719 27.007812 18.039062 L 28.332031 12.101562 C 28.398438 11.8125 28.335938 11.519531 28.164062 11.277344 C 27.992188 11.035156 27.734375 10.878906 27.4375 10.847656 L 25.789062 10.605469 C 25.472656 10.558594 25.25 10.265625 25.296875 9.953125 C 25.34375 9.636719 25.640625 9.421875 25.957031 9.464844 L 27.589844 9.703125 C 28.191406 9.773438 28.75 10.105469 29.109375 10.609375 C 29.472656 11.113281 29.601562 11.75 29.464844 12.351562 L 28.140625 18.289062 C 27.914062 19.300781 27.027344 20.007812 25.988281 20.007812 " fill-opacity="1" fill-rule="nonzero"/></g><g clip-path="url(#788dd4801e)"><path fill="#0e1624" d="M 9.414062 22.46875 C 8.640625 22.46875 8.011719 23.09375 8.011719 23.859375 C 8.011719 24.628906 8.640625 25.253906 9.414062 25.253906 C 10.183594 25.253906 10.8125 24.628906 10.8125 23.859375 C 10.8125 23.09375 10.183594 22.46875 9.414062 22.46875 Z M 9.414062 26.40625 C 8 26.40625 6.851562 25.265625 6.851562 23.859375 C 6.851562 22.457031 8 21.316406 9.414062 21.316406 C 10.824219 21.316406 11.972656 22.457031 11.972656 23.859375 C 11.972656 25.265625 10.824219 26.40625 9.414062 26.40625 " fill-opacity="1" fill-rule="nonzero"/></g><g clip-path="url(#64cef34013)"><path fill="#0e1624" d="M 26.839844 22.46875 C 26.070312 22.46875 25.441406 23.09375 25.441406 23.859375 C 25.441406 24.628906 26.070312 25.253906 26.839844 25.253906 C 27.613281 25.253906 28.242188 24.628906 28.242188 23.859375 C 28.242188 23.09375 27.613281 22.46875 26.839844 22.46875 Z M 26.839844 26.40625 C 25.429688 26.40625 24.28125 25.265625 24.28125 23.859375 C 24.28125 22.457031 25.429688 21.316406 26.839844 21.316406 C 28.253906 21.316406 29.402344 22.457031 29.402344 23.859375 C 29.402344 25.265625 28.253906 26.40625 26.839844 26.40625 " fill-opacity="1" fill-rule="nonzero"/></g><path fill="#0e1624" d="M 16.898438 16.539062 C 16.765625 16.539062 16.636719 16.488281 16.542969 16.394531 L 12.929688 12.800781 C 12.734375 12.605469 12.734375 12.289062 12.929688 12.09375 C 13.125 11.898438 13.445312 11.898438 13.640625 12.09375 L 16.898438 15.332031 L 20.15625 12.09375 C 20.351562 11.898438 20.671875 11.898438 20.867188 12.09375 C 21.0625 12.289062 21.0625 12.605469 20.867188 12.800781 L 17.253906 16.394531 C 17.160156 16.488281 17.03125 16.539062 16.898438 16.539062 " fill-opacity="1" fill-rule="nonzero"/><path fill="#0e1624" d="M 16.898438 16.539062 C 16.621094 16.539062 16.394531 16.316406 16.394531 16.039062 L 16.394531 5.9375 C 16.394531 5.660156 16.621094 5.4375 16.898438 5.4375 C 17.175781 5.4375 17.402344 5.660156 17.402344 5.9375 L 17.402344 16.039062 C 17.402344 16.316406 17.175781 16.539062 16.898438 16.539062 " fill-opacity="1" fill-rule="nonzero"/><path fill="#0e1624" d="M 22.074219 10.105469 C 21.945312 10.105469 21.816406 10.058594 21.71875 9.960938 L 19.347656 7.605469 C 19.152344 7.410156 19.152344 7.089844 19.347656 6.894531 C 19.546875 6.699219 19.863281 6.699219 20.0625 6.894531 L 22.074219 8.898438 L 24.089844 6.894531 C 24.285156 6.699219 24.605469 6.699219 24.800781 6.894531 C 24.996094 7.089844 24.996094 7.410156 24.800781 7.605469 L 22.429688 9.960938 C 22.332031 10.058594 22.203125 10.105469 22.074219 10.105469 " fill-opacity="1" fill-rule="nonzero"/><g clip-path="url(#4ed41dbab9)"><path fill="#0e1624" d="M 22.074219 10.105469 C 21.796875 10.105469 21.574219 9.882812 21.574219 9.605469 L 21.574219 2.980469 C 21.574219 2.703125 21.796875 2.476562 22.074219 2.476562 C 22.351562 2.476562 22.578125 2.703125 22.578125 2.980469 L 22.578125 9.605469 C 22.578125 9.882812 22.351562 10.105469 22.074219 10.105469 " fill-opacity="1" fill-rule="nonzero"/></g></svg>