<?xml version="1.0" encoding="UTF-8"?>
<svg version="1.1" xmlns="http://www.w3.org/2000/svg" width="500" height="500">
<path d="M0 0 C165 0 330 0 500 0 C500 165 500 330 500 500 C335 500 170 500 0 500 C0 335 0 170 0 0 Z " fill="#010101" transform="translate(0,0)"/>
<path d="M0 0 C165 0 330 0 500 0 C500 165 500 330 500 500 C335 500 170 500 0 500 C0 335 0 170 0 0 Z M86.27734375 70.9453125 C84.3262384 72.70565798 82.33986456 74.39184323 80.3125 76.0625 C77.16988098 78.73629008 74.51895399 81.69422652 71.85546875 84.83984375 C70.62033444 86.27780012 69.35149826 87.68748982 68.05078125 89.06640625 C56.24603377 101.61304174 46.38822365 115.98783636 38 131 C37.64131836 131.62455078 37.28263672 132.24910156 36.91308594 132.89257812 C22.61283417 157.86447152 12.92455819 185.96292377 9.33227539 214.52783203 C9.08168001 216.39229109 8.79616667 218.252105 8.49389648 220.10888672 C7.08005246 229.01981645 6.63917551 237.73662168 6.6875 246.75 C6.68932281 247.46243866 6.69114563 248.17487732 6.69302368 248.90890503 C6.98246818 316.76242546 34.40795 378.90776002 82.29223633 426.59692383 C87.9319698 432.08739346 93.90476493 436.99607467 100.22314453 441.68066406 C102.05478947 443.04068182 103.86940483 444.42149374 105.68359375 445.8046875 C113.53825807 451.73975549 121.60951215 457.09455846 130.16894531 461.95898438 C131.91964202 462.95431381 133.65934556 463.96890522 135.3984375 464.984375 C151.7706028 474.18222068 169.6341025 480.97192389 187.85327148 485.45336914 C190.34180849 486.08703619 192.80664319 486.79228419 195.27734375 487.4921875 C212.81197323 492.2673773 230.48630447 493.38450056 248.5625 493.375 C249.81200943 493.37758316 249.81200943 493.37758316 251.08676147 493.38021851 C308.67744844 493.36673438 364.39552753 472.6426527 408 435 C408.77988281 434.33097656 409.55976563 433.66195313 410.36328125 432.97265625 C422.81724958 422.02702451 434.17577115 410.35793419 444 397 C444.42619629 396.42926758 444.85239258 395.85853516 445.29150391 395.27050781 C455.40423827 381.70268486 463.86172929 367.33931126 471 352 C471.3285498 351.29456055 471.65709961 350.58912109 471.99560547 349.86230469 C481.44712821 329.24331656 487.89653435 307.46418668 491 285 C491.11569336 284.1838623 491.23138672 283.36772461 491.35058594 282.52685547 C499.60632951 221.39270687 484.18000648 157.29726527 447.375 107.5625 C445.92905001 105.69866021 444.47104502 103.8440978 443 102 C442.28328125 101.09121094 441.5665625 100.18242188 440.828125 99.24609375 C429.27381942 84.84418449 416.56583203 71.37829538 402 60 C400.66582031 58.94039062 400.66582031 58.94039062 399.3046875 57.859375 C373.35125382 37.76172998 343.76536701 23.21453144 312 15 C311.23373291 14.78105576 310.46746582 14.56211151 309.67797852 14.33653259 C291.0323003 9.0507051 272.31863429 7.34898495 252.99584961 7.53344727 C249.67055875 7.56264877 246.34685184 7.55393393 243.02148438 7.54101562 C184.62198635 7.60032608 129.1073066 31.83675242 86.27734375 70.9453125 Z " fill="#000000" transform="translate(0,0)"/>
<path d="M0 0 C1.08358292 -0.00807175 2.16716583 -0.01614349 3.28358459 -0.02445984 C5.578933 -0.03825001 7.87430147 -0.04899466 10.16967773 -0.05688477 C12.46629046 -0.06828992 14.76287917 -0.08855423 17.05932617 -0.1184082 C82.72226779 -0.96932159 141.41240042 27.07207006 188.38671875 71.7734375 C194.3216068 77.57051855 199.5971856 83.7213598 204.72265625 90.23828125 C205.51414062 91.2128125 206.305625 92.18734375 207.12109375 93.19140625 C246.50267984 142.63579509 263.47016166 207.39124796 256.70092773 269.87133789 C256.39951728 272.33103212 256.06799361 274.784389 255.72265625 277.23828125 C255.60970215 278.07842773 255.49674805 278.91857422 255.38037109 279.78417969 C249.4805316 321.88075866 231.12452131 361.21354171 204.72265625 394.23828125 C203.91441406 395.2540625 203.10617187 396.26984375 202.2734375 397.31640625 C190.41331203 411.9133064 176.9192434 425.15919275 161.72265625 436.23828125 C160.59592354 437.08275908 159.46962422 437.92781546 158.34375 438.7734375 C138.85443002 453.23038237 117.33790279 463.67189998 94.72265625 472.23828125 C93.53929687 472.70105469 92.3559375 473.16382813 91.13671875 473.640625 C82.73880655 476.70419903 74.14457625 478.5791169 65.41015625 480.42578125 C64.23654541 480.67602051 63.06293457 480.92625977 61.85375977 481.18408203 C45.81481631 484.44053029 29.8783903 485.68194948 13.53515625 485.67578125 C12.24446732 485.676884 12.24446732 485.676884 10.92770386 485.67800903 C-27.84363712 485.59191889 -65.11991575 475.45269734 -99.27734375 457.23828125 C-100.2506665 456.726604 -100.2506665 456.726604 -101.24365234 456.20458984 C-129.25476547 441.39546404 -154.71112124 420.14991507 -174.27734375 395.23828125 C-175.06882813 394.25214844 -175.8603125 393.26601563 -176.67578125 392.25 C-193.71131877 370.6734438 -205.87426163 347.00950684 -215.27734375 321.23828125 C-215.77455158 319.92440801 -216.27192484 318.61059734 -216.76953125 317.296875 C-229.80564596 281.06295369 -232.3207712 238.0343112 -225.27734375 200.23828125 C-225.02791016 198.8934668 -225.02791016 198.8934668 -224.7734375 197.52148438 C-216.13355937 152.69011673 -195.05325862 113.49977592 -165.27734375 79.23828125 C-164.47941406 78.3153125 -163.68148437 77.39234375 -162.859375 76.44140625 C-158.92285398 71.96962678 -154.90718105 67.83536498 -150.34765625 64 C-148.07029728 62.06209642 -145.90191226 60.02737978 -143.71484375 57.98828125 C-131.71820921 47.21318853 -118.06651734 38.51965801 -104.27734375 30.23828125 C-103.64924805 29.86074707 -103.02115234 29.48321289 -102.37402344 29.09423828 C-72.46348111 11.43490811 -34.79267545 0.25253623 0 0 Z M-125.27734375 62.23828125 C-126.16550781 62.93308594 -127.05367188 63.62789062 -127.96875 64.34375 C-138.50453934 72.76317991 -148.67896661 81.82469116 -157.27734375 92.23828125 C-158.10492188 93.17800781 -158.9325 94.11773437 -159.78515625 95.0859375 C-187.1524422 126.27292778 -203.96929728 165.6571291 -211.27734375 206.23828125 C-211.40866699 206.94339844 -211.53999023 207.64851562 -211.67529297 208.375 C-221.37862035 262.92049247 -205.81418758 324.80578194 -174.76098633 369.97631836 C-148.05366544 407.96877909 -113.58696603 435.44547286 -71.27734375 454.23828125 C-70.57464355 454.5513623 -69.87194336 454.86444336 -69.14794922 455.18701172 C-17.52223539 477.63354935 46.52517148 475.46220738 98.40429688 455.19042969 C104.28055926 452.75259268 110.02300865 450.06199255 115.72265625 447.23828125 C116.48868164 446.85881348 117.25470703 446.4793457 118.04394531 446.08837891 C147.44330618 431.35092627 174.7898395 409.53496977 194.72265625 383.23828125 C195.13789551 382.70477051 195.55313477 382.17125977 195.98095703 381.62158203 C214.0154174 358.41939076 226.19361139 332.24285064 234.72265625 304.23828125 C234.94147461 303.54605469 235.16029297 302.85382813 235.38574219 302.140625 C236.72524896 297.88492388 237.80313921 293.60103288 238.72265625 289.23828125 C238.903125 288.39861816 239.08359375 287.55895508 239.26953125 286.69384766 C251.18139905 228.77440263 237.97992744 167.2986761 206.20068359 117.87109375 C199.82079396 108.25237523 192.72837829 99.34218147 185.05078125 90.73388672 C183.84354637 89.37441597 182.65689157 87.99673941 181.47265625 86.6171875 C177.83563253 82.40477526 174.0729302 78.61264661 169.81640625 75.02734375 C168.38924815 73.8078691 166.99394146 72.55035273 165.62890625 71.26171875 C123.29888459 31.39611616 62.88128263 12.52880848 5.5390625 13.92578125 C-41.66168494 15.77394364 -88.23122497 32.9858761 -125.27734375 62.23828125 Z " fill="#FAFAFA" transform="translate(235.27734375,7.76171875)"/>
<path d="M0 0 C4.95 0 9.9 0 15 0 C15.00586624 1.93518997 15.01173248 3.87037994 15.01777649 5.86421204 C15.07489363 24.06723404 15.1474185 42.2701365 15.23571491 60.47303486 C15.28071552 69.83219084 15.32012026 79.1913084 15.34643555 88.55053711 C15.36938118 96.70630595 15.4027405 104.86195364 15.44870156 113.01762646 C15.47268031 117.33758332 15.49137851 121.65741985 15.49761391 125.97744179 C15.50364384 130.04125289 15.52356722 134.10475595 15.55427551 138.16845322 C15.56308946 139.66201199 15.56677141 141.15561097 15.56500816 142.64919472 C15.56336368 144.68444406 15.58176884 146.71968049 15.60127258 148.75483704 C15.60818603 150.46522392 15.60818603 150.46522392 15.61523914 152.21016407 C15.77602565 155.0021881 15.77602565 155.0021881 17.36126995 156.86651325 C19.82241025 158.56884971 21.83291144 158.38143844 24.80078125 158.38818359 C25.9921167 158.39764008 27.18345215 158.40709656 28.41088867 158.4168396 C29.69842041 158.41076691 30.98595215 158.40469421 32.3125 158.3984375 C33.64624185 158.40045855 34.97998263 158.40337026 36.3137207 158.40713501 C39.10801726 158.41155696 41.90202598 158.4051319 44.69628906 158.39111328 C48.27774465 158.37402094 51.85852582 158.38386289 55.43995667 158.40183067 C58.19377726 158.41267231 60.94743801 158.40922054 63.70126343 158.4014473 C65.66388385 158.39847329 67.62651048 158.40758292 69.58911133 158.4168396 C70.78044678 158.40738312 71.97178223 158.39792664 73.19921875 158.38818359 C74.24940186 158.38579681 75.29958496 158.38341003 76.3815918 158.38095093 C78.95984771 158.16215524 78.95984771 158.16215524 80.8394928 156.98823547 C82.71222531 153.77978214 82.40417851 150.41158838 82.36889648 146.80004883 C82.37266296 145.96390045 82.37642944 145.12775208 82.38031006 144.26626587 C82.38674857 142.4492842 82.38640683 140.63226886 82.38012505 138.81528664 C82.37102476 135.93519723 82.38122817 133.05576034 82.39674377 130.17570496 C82.43686244 121.9868576 82.43805172 113.79806012 82.43579102 105.60913086 C82.43573979 100.59995106 82.45497553 95.59112088 82.48512459 90.58203697 C82.49592049 87.75244142 82.48383362 84.92352196 82.47129822 82.09394836 C82.48020843 80.34493351 82.49028483 78.59592407 82.50170898 76.84692383 C82.48709373 75.67686546 82.48709373 75.67686546 82.47218323 74.48316956 C82.5576189 67.89357267 84.62263045 62.76236866 88.9296875 57.7578125 C89.57164062 57.21898437 90.21359375 56.68015625 90.875 56.125 C91.83019531 55.29355469 91.83019531 55.29355469 92.8046875 54.4453125 C98.26995336 50.84718373 103.73841676 50.69218885 110.0546875 50.69921875 C111.34525558 50.69279106 111.34525558 50.69279106 112.66189575 50.68623352 C114.47559737 50.68051067 116.28932192 50.67997483 118.10302734 50.68432617 C120.85945323 50.6874822 123.6148006 50.6640154 126.37109375 50.63867188 C128.14062366 50.63639808 129.91015643 50.63569576 131.6796875 50.63671875 C132.90194534 50.62290413 132.90194534 50.62290413 134.14889526 50.60881042 C140.66459504 50.6607851 146.30985676 51.75821396 151.4609375 56.05078125 C152.09257812 56.79714844 152.72421875 57.54351562 153.375 58.3125 C154.02210938 59.05113281 154.66921875 59.78976562 155.3359375 60.55078125 C158.96591928 65.89350092 159.29189951 71.2332329 159.27124023 77.52807617 C159.27646698 78.36294052 159.28169373 79.19780487 159.28707886 80.05796814 C159.29728296 81.86180439 159.30309297 83.66566978 159.30496025 85.46953392 C159.30863265 88.32319708 159.32538046 91.17651548 159.34571838 94.03010559 C159.40106642 102.14004119 159.43189167 110.25002582 159.45629883 118.36010742 C159.47214659 123.32731297 159.50232754 128.29426984 159.54106331 133.26134682 C159.55272907 135.15398845 159.55864379 137.04667446 159.55874443 138.93935204 C159.55893585 141.57986957 159.5771528 144.21969678 159.59936523 146.86010742 C159.59478806 147.64405884 159.59021088 148.42801025 159.585495 149.23571777 C159.62461844 152.15165976 159.66692161 154.43168786 161.16249084 156.98348999 C163.77625338 158.42942334 165.8182468 158.38870818 168.80078125 158.40405273 C170.58778442 158.42307899 170.58778442 158.42307899 172.41088867 158.44248962 C173.69842041 158.43955399 174.98595215 158.43661835 176.3125 158.43359375 C177.64624295 158.43815457 178.97998354 158.44345985 180.3137207 158.44947815 C183.10800733 158.4584117 185.90200818 158.45598326 188.69628906 158.44604492 C192.27788301 158.43454784 195.85849212 158.45477493 199.43995667 158.48396206 C202.19378934 158.50230351 204.94738501 158.50203598 207.70126343 158.49632454 C209.66391174 158.49609649 211.6265377 158.51301225 213.58911133 158.53013611 C214.78044678 158.52075516 215.97178223 158.51137421 217.19921875 158.50170898 C218.24940186 158.50154282 219.29958496 158.50137665 220.3815918 158.50120544 C223.06507481 158.24153151 223.06507481 158.24153151 224.63873005 156.36176777 C226.3968755 153.31143138 226.38432105 151.22566477 226.39872742 147.71051025 C226.41126556 146.41764603 226.42380371 145.1247818 226.4367218 143.79273987 C226.43554777 142.36215185 226.43408862 140.93156404 226.43237305 139.50097656 C226.44139011 137.99300838 226.45171719 136.48504755 226.46325684 134.97709656 C226.49085974 130.88446944 226.50011579 126.79198127 226.50611091 122.69927311 C226.51548604 118.42175339 226.54168871 114.1443378 226.56611633 109.86688232 C226.60980876 101.76740444 226.63833885 93.66794673 226.66143972 85.56838679 C226.6884767 76.34712792 226.73238912 67.12597367 226.77772844 57.90478945 C226.87061401 38.93657963 226.94167822 19.96834541 227 1 C231.95 1 236.9 1 242 1 C242.09265666 21.20167227 242.16400954 41.40328439 242.20724869 61.60512543 C242.22786039 70.98552186 242.25595436 80.36578371 242.30175781 89.74609375 C242.34166822 97.92344711 242.36744293 106.10070298 242.37635398 114.27815104 C242.38156162 118.60675534 242.39377233 122.93508078 242.42292023 127.26359558 C242.45015587 131.34133827 242.45842864 135.41868835 242.45243073 139.49651337 C242.45352733 140.98962796 242.46143282 142.48275625 242.4768219 143.97579193 C242.56630905 153.10901303 242.324923 160.06460079 236.03515625 167.2421875 C235.38417969 167.78101563 234.73320312 168.31984375 234.0625 168.875 C233.41410156 169.42929687 232.76570312 169.98359375 232.09765625 170.5546875 C227.66999913 173.60540097 223.82804119 174.25655564 218.50073242 174.30639648 C216.55797676 174.33037758 216.55797676 174.33037758 214.57597351 174.35484314 C213.16914262 174.36122091 211.76230696 174.36661331 210.35546875 174.37109375 C208.90204276 174.38006918 207.44861767 174.38919118 205.99519348 174.39845276 C202.95144411 174.41491611 199.90780437 174.42263786 196.86401367 174.42553711 C192.98022494 174.43091505 189.09747918 174.46858033 185.21398449 174.51428127 C182.21206481 174.54415323 179.21039311 174.55126285 176.20833778 174.55226326 C174.77749167 174.55644636 173.3466435 174.56880348 171.91594505 174.58978081 C163.71118365 174.70049851 157.309663 174.66369316 151 169 C144.93334249 163.0681571 142.69246249 155.93648218 142.59660339 147.58279419 C142.60275162 146.83440277 142.60889984 146.08601135 142.61523438 145.31494141 C142.6098616 144.49914612 142.60448883 143.68335083 142.59895325 142.84283447 C142.58924479 141.08980284 142.58620988 139.33672353 142.58930969 137.58366776 C142.59381839 134.80948417 142.57970577 132.03592804 142.56091309 129.2618103 C142.51807223 122.38143994 142.50685071 115.50108592 142.49468994 108.62060547 C142.4831757 102.78609077 142.45968225 96.95186678 142.41999817 91.1174736 C142.40640915 88.38358179 142.41059975 85.65008064 142.41540527 82.91616821 C142.40606964 81.24700414 142.39590208 79.57784444 142.38476562 77.90869141 C142.39091385 77.1481546 142.39706207 76.3876178 142.40339661 75.60403442 C142.35842573 71.59608704 142.35842573 71.59608704 140.70654297 68.02996826 C137.66148615 66.19215232 134.17320425 66.57481988 130.71875 66.6015625 C129.9088562 66.59869232 129.0989624 66.59582214 128.26452637 66.59286499 C126.55313416 66.59082458 124.84171862 66.59635291 123.13037109 66.60888672 C120.5095611 66.62494143 117.89029323 66.60903806 115.26953125 66.58984375 C113.60676743 66.59182619 111.94400456 66.59566987 110.28125 66.6015625 C109.49681519 66.59548981 108.71238037 66.58941711 107.9041748 66.5831604 C103.92617316 66.59209485 103.92617316 66.59209485 100.29147339 68.01374817 C98.23695542 71.17354233 98.60392739 74.5216838 98.64697266 78.16821289 C98.64481247 79.00114868 98.64265228 79.83408447 98.64042664 80.69226074 C98.63733713 82.50270188 98.640953 84.31316392 98.65044022 86.12358284 C98.66417326 88.99582198 98.65774237 91.86736959 98.64559937 94.73960876 C98.61464105 102.90644804 98.61942943 111.07312884 98.63964844 119.23999023 C98.65061201 124.23625896 98.63727185 129.23201133 98.60975266 134.22820854 C98.60433514 136.12625244 98.60831674 138.02434871 98.62215042 139.92234993 C98.76522553 159.79721002 98.76522553 159.79721002 93 167 C87.07732986 172.54073216 82.70754906 174.09589619 74.63012695 174.20874023 C73.33810867 174.22803085 72.04609039 174.24732147 70.71492004 174.26719666 C69.30605071 174.28200687 67.89717015 174.29577982 66.48828125 174.30859375 C65.41841004 174.31845149 65.41841004 174.31845149 64.32692528 174.32850838 C60.54943194 174.36105196 56.77196616 174.38551187 52.99438477 174.4050293 C49.88165868 174.42281352 46.76984348 174.45759176 43.6574707 174.50756836 C39.88557175 174.56804849 36.11451423 174.59854203 32.34215355 174.60820198 C30.91208272 174.61671213 29.48203169 174.63541992 28.05224037 174.6649456 C19.03169797 174.8411558 12.80473032 174.2416564 6 168 C0.93758706 162.8077816 -0.251898 157.43625159 -0.24050903 150.31814575 C-0.24221788 149.67190148 -0.24392673 149.02565721 -0.24568737 148.35982978 C-0.24896429 146.20868409 -0.23800866 144.05785492 -0.22705078 141.90673828 C-0.22648628 140.35907499 -0.22680399 138.81141115 -0.22793579 137.26374817 C-0.22850877 133.07204123 -0.21676326 128.88044915 -0.20278788 124.68876886 C-0.19027147 120.30455262 -0.1891093 115.92033365 -0.18673706 111.53610229 C-0.18052497 103.23831563 -0.16411781 94.94058176 -0.14403808 86.64281833 C-0.12167066 77.19425695 -0.11068353 67.74569302 -0.10064721 58.29711175 C-0.07975135 38.86471042 -0.04417698 19.43236139 0 0 Z " fill="#FAFAFA" transform="translate(75,221)"/>
<path d="M0 0 C1.06863281 -0.02835937 2.13726562 -0.05671875 3.23828125 -0.0859375 C10.87735259 0.93491235 16.25582771 5.32464416 21.8125 10.375 C23.1258899 11.5408291 24.43970168 12.70618308 25.75390625 13.87109375 C26.4102002 14.45745605 27.06649414 15.04381836 27.74267578 15.64794922 C30.71132381 18.28418022 33.72931603 20.86126007 36.75 23.4375 C37.90768971 24.42822462 39.06524186 25.41911 40.22265625 26.41015625 C40.79387207 26.89887207 41.36508789 27.38758789 41.95361328 27.89111328 C44.86644046 30.38395524 47.77684061 32.87962766 50.6875 35.375 C51.85415518 36.3750134 53.02082184 37.37501341 54.1875 38.375 C89.1875 68.375 89.1875 68.375 90.93774414 69.87524414 C92.10355104 70.87448396 93.26940386 71.87367023 94.43530273 72.87280273 C97.36550398 75.38399461 100.29488291 77.89613393 103.22265625 80.41015625 C108.86171656 85.25076555 114.50963425 90.07993633 120.1875 94.875 C126.45203831 100.1655196 132.67879067 105.49927519 138.89941406 110.84130859 C140.72009768 112.40295995 142.54328814 113.96163733 144.3671875 115.51953125 C150.86628113 121.07345983 157.33093851 126.65745792 163.6875 132.375 C162.43583586 135.89302689 161.06147315 138.41689933 158.5625 141.1875 C158.02367187 141.79207031 157.48484375 142.39664063 156.9296875 143.01953125 C156.31480469 143.69048828 156.31480469 143.69048828 155.6875 144.375 C151.62753721 142.69160079 148.57475632 139.8635361 145.3125 137 C144.05478228 135.90874492 142.79696708 134.81760218 141.5390625 133.7265625 C140.8987207 133.1687207 140.25837891 132.61087891 139.59863281 132.03613281 C136.64203992 129.46629913 133.66441332 126.92123245 130.6875 124.375 C129.52071828 123.37513425 128.35405194 122.37513383 127.1875 121.375 C126.61 120.88 126.0325 120.385 125.4375 119.875 C78.1875 79.375 78.1875 79.375 76.43676758 77.87426758 C75.27268023 76.87654805 74.10845544 75.87898886 72.9440918 74.8815918 C69.98680113 72.34801257 67.03211631 69.81149863 64.08203125 67.26953125 C58.74914678 62.67893447 53.40564055 58.11738602 47.9375 53.6875 C43.56242253 50.13754679 39.38200808 46.41936179 35.21875 42.625 C31.71357291 39.50928703 28.06481099 36.58402567 24.41796875 33.63671875 C21.70635809 31.39062065 19.09844545 29.06310787 16.5 26.6875 C9.40953969 19.83673889 9.40953969 19.83673889 0.75 15.5625 C-4.23841542 16.88595715 -7.46192358 20.03049933 -11.3125 23.375 C-12.45290516 24.3544227 -13.5935461 25.33357091 -14.734375 26.3125 C-17.30252257 28.52450583 -19.8610859 30.74706865 -22.4140625 32.9765625 C-26.05003361 36.1510519 -29.70745504 39.29957936 -33.375 42.4375 C-33.94822998 42.92822998 -34.52145996 43.41895996 -35.11206055 43.92456055 C-36.2674681 44.91354001 -37.42298538 45.9023913 -38.57861328 46.89111328 C-41.49144046 49.38395524 -44.40184061 51.87962766 -47.3125 54.375 C-48.47915518 55.3750134 -49.64582184 56.37501341 -50.8125 57.375 C-51.39 57.87 -51.9675 58.365 -52.5625 58.875 C-54.3125 60.375 -56.0625 61.875 -57.8125 63.375 C-58.3902417 63.8702417 -58.9679834 64.3654834 -59.56323242 64.87573242 C-60.72731977 65.87345195 -61.89154456 66.87101114 -63.0559082 67.8684082 C-66.01319887 70.40198743 -68.96788369 72.93850137 -71.91796875 75.48046875 C-77.25085322 80.07106553 -82.59435945 84.63261398 -88.0625 89.0625 C-92.43757747 92.61245321 -96.61799192 96.33063821 -100.78125 100.125 C-104.29049486 103.24432876 -107.94412123 106.17249133 -111.59375 109.125 C-114.23397729 111.31001569 -116.7797972 113.56671391 -119.3125 115.875 C-122.72989372 118.98958668 -126.2177235 121.9668662 -129.8125 124.875 C-134.3448377 128.54312076 -138.69719669 132.36406088 -143.0078125 136.2890625 C-146.05680706 139.04866097 -149.17590547 141.71571334 -152.3125 144.375 C-155.75678265 142.92718207 -157.67380962 141.09805391 -160.0625 138.25 C-160.67609375 137.52554688 -161.2896875 136.80109375 -161.921875 136.0546875 C-162.61023438 135.22324219 -162.61023438 135.22324219 -163.3125 134.375 C-161.79397523 130.53554818 -159.53447262 128.70008945 -156.3125 126.1875 C-152.53698968 123.18380624 -148.87189005 120.13207006 -145.3125 116.875 C-141.99260514 113.85217579 -138.61485888 110.94987839 -135.125 108.125 C-128.68538007 102.90981485 -122.45794597 97.46168248 -116.20898438 92.02148438 C-113.23394811 89.43862591 -110.2430594 86.87443086 -107.25 84.3125 C-106.67660889 83.82160889 -106.10321777 83.33071777 -105.51245117 82.82495117 C-104.35719482 81.83614797 -103.20184024 80.84745951 -102.04638672 79.85888672 C-99.13355954 77.36604476 -96.22315939 74.87037234 -93.3125 72.375 C-92.14584482 71.3749866 -90.97917816 70.37498659 -89.8125 69.375 C-89.235 68.88 -88.6575 68.385 -88.0625 67.875 C-72.3125 54.375 -56.5625 40.875 -40.8125 27.375 C-40.2342749 26.87935547 -39.6560498 26.38371094 -39.06030273 25.87304688 C-37.90105231 24.87944992 -36.7417108 23.88595922 -35.58227539 22.89257812 C-32.55136026 20.29550405 -29.52234931 17.69625287 -26.49609375 15.09375 C-25.86896484 14.55492188 -25.24183594 14.01609375 -24.59570312 13.4609375 C-23.40240341 12.43558367 -22.20965662 11.40958586 -21.01757812 10.3828125 C-19.45456766 9.04044052 -17.88447668 7.7068496 -16.3125 6.375 C-15.03052734 5.27671875 -15.03052734 5.27671875 -13.72265625 4.15625 C-9.25593163 0.85507265 -5.51349547 0.06602989 0 0 Z " fill="#FBFBFB" transform="translate(195.3125,82.625)"/>
<path d="M0 0 C1.01707031 0.2784375 2.03414063 0.556875 3.08203125 0.84375 C16.85175344 5.03061179 28.04557624 11.93117377 39 21 C39.75796875 21.61617187 40.5159375 22.23234375 41.296875 22.8671875 C43.98786539 25.10226629 46.0481547 27.07223205 48 30 C47.8125 33.5625 47.8125 33.5625 47 37 C43.5089744 39.3273504 42.10744669 39.49771357 38 39 C35.9375 37.34765625 35.9375 37.34765625 34 35.0625 C19.60668825 19.730494 -1.12360057 11.59223638 -21.84375 10.7578125 C-46.35634537 10.19727393 -67.6304522 17.33787812 -86 34 C-86.86496094 34.90363281 -87.72992188 35.80726563 -88.62109375 36.73828125 C-91 39 -91 39 -94.0625 39.5625 C-97 39 -97 39 -99.4375 37.375 C-101 35 -101 35 -100.875 32.16015625 C-98.37949097 23.14735802 -87.53089584 16.81074576 -80 12 C-79.24460938 11.48824219 -78.48921875 10.97648438 -77.7109375 10.44921875 C-55.30135304 -4.05330497 -25.45112316 -7.12263036 0 0 Z " fill="#F9F9F9" transform="translate(222,150)"/>
<path d="M0 0 C1.83175996 1.47641854 3.646232 2.97470816 5.4375 4.5 C6.20578125 5.12132812 6.9740625 5.74265625 7.765625 6.3828125 C9.62033578 8.01116094 11.11269765 9.41953421 12.4375 11.5 C12.5625 15.3125 12.5625 15.3125 11.4375 18.5 C7.925105 20.84159667 6.57258721 21.03890861 2.4375 20.5 C0.0078125 18.59375 0.0078125 18.59375 -2.4375 16 C-11.22156153 7.55148243 -22.67952597 2.15774465 -34.5625 -0.5 C-35.70525391 -0.77070313 -35.70525391 -0.77070313 -36.87109375 -1.046875 C-53.37191243 -3.82495187 -69.73362251 0.23583116 -83.5625 9.5 C-86.50027876 11.86781151 -89.34772077 14.33542084 -92.07470703 16.94360352 C-94.71189879 19.37384839 -96.21436085 20.45914055 -99.82421875 20.8828125 C-102.5625 20.5 -102.5625 20.5 -104.4375 19.4375 C-106.32154814 16.19275042 -106.17658773 14.18452636 -105.5625 10.5 C-96.70651968 -2.32981765 -77.84040177 -10.76282679 -62.96875 -13.84375 C-41.01318922 -17.58343343 -18.04642005 -13.18603759 0 0 Z " fill="#FAFAFA" transform="translate(242.5625,186.5)"/>
<path d="M0 0 C8.9886105 7.12622213 8.9886105 7.12622213 9.46484375 10.77734375 C9.08984375 13.90234375 9.08984375 13.90234375 7.40234375 16.27734375 C4.56730491 18.2695332 3.49683947 18.36851201 0.08984375 17.90234375 C-2.48828125 16.07421875 -2.48828125 16.07421875 -5.16015625 13.65234375 C-14.99957775 5.25058571 -25.56432053 2.28644215 -38.4375 2.52734375 C-48.88762175 3.65581584 -57.15105857 8.0522617 -64.91015625 14.90234375 C-68.54872831 17.83909386 -68.54872831 17.83909386 -71.41015625 18.33984375 C-73.91015625 17.90234375 -73.91015625 17.90234375 -76.28515625 16.33984375 C-77.91015625 13.90234375 -77.91015625 13.90234375 -77.8125 10.53515625 C-76.02616678 3.34342512 -68.9907195 -0.23395591 -62.93359375 -3.8984375 C-42.26680451 -14.88618956 -19.10968325 -13.77436229 0 0 Z " fill="#F9F9F9" transform="translate(229.91015625,207.09765625)"/>
<path d="M0 0 C7.40196078 4.80392157 7.40196078 4.80392157 9 8 C9.44720497 13.25465839 9.44720497 13.25465839 7.875 15.875 C4.92365426 17.64580745 3.42437009 17.57072835 0 17 C-2.43407801 15.60196545 -4.68310614 14.06571003 -6.94921875 12.41015625 C-11.50694409 9.27617749 -16.67985167 9.05942129 -22 10 C-24.99296594 11.61781943 -27.64484098 13.42065846 -30.359375 15.46875 C-33.5150925 17.29869269 -35.40744245 17.41762224 -39 17 C-41.2891762 14.93974142 -41.91438105 13.65498496 -42.3125 10.609375 C-41.78913365 6.23926595 -38.87543712 4.55585084 -35.6171875 1.87109375 C-24.79213188 -5.86801318 -11.64269584 -6.49456503 0 0 Z " fill="#F9F9F9" transform="translate(212,222)"/>
<path d="M0 0 C3.56151779 1.06220706 5.47250345 2.09270275 7.68359375 5.12109375 C9.98518972 10.2050635 9.14724553 15.5031786 7.25 20.5625 C5.5625 23.0625 5.5625 23.0625 2.5625 25.0625 C-0.19770996 25.43417184 -2.62602476 25.24100636 -5.4375 25.0625 C-6.0975 24.4025 -6.7575 23.7425 -7.4375 23.0625 C-7.7675 26.6925 -8.0975 30.3225 -8.4375 34.0625 C-10.7475 34.0625 -13.0575 34.0625 -15.4375 34.0625 C-15.4375 23.1725 -15.4375 12.2825 -15.4375 1.0625 C-13.1275 1.0625 -10.8175 1.0625 -8.4375 1.0625 C-8.1075 1.7225 -7.7775 2.3825 -7.4375 3.0625 C-6.921875 2.546875 -6.40625 2.03125 -5.875 1.5 C-3.4375 0.0625 -3.4375 0.0625 0 0 Z " fill="#F1F1F1" transform="translate(425.4375,254.9375)"/>
<path d="M0 0 C3.56151779 1.06220706 5.47250345 2.09270275 7.68359375 5.12109375 C9.98518972 10.2050635 9.14724553 15.5031786 7.25 20.5625 C5.5625 23.0625 5.5625 23.0625 2.5625 25.0625 C-0.19770996 25.43417184 -2.62602476 25.24100636 -5.4375 25.0625 C-6.0975 24.4025 -6.7575 23.7425 -7.4375 23.0625 C-7.7675 26.6925 -8.0975 30.3225 -8.4375 34.0625 C-10.7475 34.0625 -13.0575 34.0625 -15.4375 34.0625 C-15.4375 23.1725 -15.4375 12.2825 -15.4375 1.0625 C-13.1275 1.0625 -10.8175 1.0625 -8.4375 1.0625 C-8.1075 1.7225 -7.7775 2.3825 -7.4375 3.0625 C-6.921875 2.546875 -6.40625 2.03125 -5.875 1.5 C-3.4375 0.0625 -3.4375 0.0625 0 0 Z " fill="#F1F1F1" transform="translate(397.4375,254.9375)"/>
<path d="M0 0 C2.31 0 4.62 0 7 0 C7 10.89 7 21.78 7 33 C4.69 33 2.38 33 0 33 C0 28.71 0 24.42 0 20 C-4.29 20 -8.58 20 -13 20 C-13 24.29 -13 28.58 -13 33 C-15.64 33 -18.28 33 -21 33 C-21 22.44 -21 11.88 -21 1 C-18.69 1 -16.38 1 -14 1 C-14 5.29 -14 9.58 -14 14 C-9.38 14 -4.76 14 0 14 C0 9.38 0 4.76 0 0 Z " fill="#EDEDED" transform="translate(344,247)"/>
<path d="M0 0 C2.90419948 2.07504194 4.76558782 3.66915291 5.40258789 7.28564453 C5.4920729 9.97733309 5.43607878 12.62228507 5.3125 15.3125 C5.28994141 16.24384766 5.26738281 17.17519531 5.24414062 18.13476562 C5.18542078 20.4248396 5.10336858 22.71157875 5 25 C2.69 25 0.38 25 -2 25 C-2.33 19.39 -2.66 13.78 -3 8 C-5.475 7.505 -5.475 7.505 -8 7 C-8.33 12.94 -8.66 18.88 -9 25 C-11.31 25 -13.62 25 -16 25 C-16.33 19.39 -16.66 13.78 -17 8 C-18.65 7.67 -20.3 7.34 -22 7 C-23.585869 10.171738 -23.37866445 13.63513822 -23.5625 17.125 C-23.60568359 17.87910156 -23.64886719 18.63320313 -23.69335938 19.41015625 C-23.7994832 21.27321888 -23.90025001 23.13658524 -24 25 C-25.98 25 -27.96 25 -30 25 C-30 17.08 -30 9.16 -30 1 C-28.02 1 -26.04 1 -24 1 C-23.67 1.66 -23.34 2.32 -23 3 C-22.34 2.34 -21.68 1.68 -21 1 C-12.79411765 0.47058824 -12.79411765 0.47058824 -9 3 C-8.443125 2.505 -7.88625 2.01 -7.3125 1.5 C-4.48959909 -0.33107086 -3.30178235 -0.64425021 0 0 Z " fill="#F6F6F6" transform="translate(421,317)"/>
<path d="M0 0 C2.31 0 4.62 0 7 0 C7 4.62 7 9.24 7 14 C11.62 14 16.24 14 21 14 C21 9.71 21 5.42 21 1 C23.31 1 25.62 1 28 1 C28 11.56 28 22.12 28 33 C25.69 33 23.38 33 21 33 C21 28.71 21 24.42 21 20 C16.38 20 11.76 20 7 20 C7 24.29 7 28.58 7 33 C4.69 33 2.38 33 0 33 C0 22.11 0 11.22 0 0 Z " fill="#F4F4F4" transform="translate(330,309)"/>
<path d="M0 0 C3 2.5 3 2.5 5 5 C5.33 5.33 5.66 5.66 6 6 C6.42902253 10.91725822 6.648252 15.48741199 4.6875 20.0625 C2.49864499 22.57562983 0.81817441 23.89107895 -2.5234375 24.3359375 C-10.26339286 24.44196429 -10.26339286 24.44196429 -14.125 22.125 C-17.75947725 18.00592579 -17.32978888 14.24981583 -17.28515625 8.92578125 C-16.91699154 5.14831043 -15.90835123 3.42362603 -13 1 C-8.62756248 -1.63079574 -4.82713888 -1.36811958 0 0 Z " fill="#F3F3F3" transform="translate(380,318)"/>
<path d="M0 0 C4.84960158 2.47234591 7.12281421 4.88988314 9 10 C9 11.65 9 13.3 9 15 C3.39 15 -2.22 15 -8 15 C-7.34 16.32 -6.68 17.64 -6 19 C-4.00045254 19.04254356 -1.99958364 19.04080783 0 19 C0.33 18.67 0.66 18.34 1 18 C3.33297433 17.95907063 5.66705225 17.95758277 8 18 C6.75023244 21.65316671 6.32901247 22.78065836 3 25 C-2.08746258 25.6772783 -6.55682364 25.82467221 -11.0625 23.25 C-14.57786936 19.16763558 -15.40195309 16.50005434 -15.2578125 10.9609375 C-14.70988814 6.79339158 -12.1576945 3.63141208 -9 1 C-5.64870516 -0.11709828 -3.51689744 -0.34479387 0 0 Z " fill="#EBEBEB" transform="translate(445,317)"/>
<path d="M0 0 C1.40378906 -0.02900391 1.40378906 -0.02900391 2.8359375 -0.05859375 C6.65295051 0.62034274 8.13077113 1.43094304 10.625 4.4375 C11.23431426 7.87441328 11.09573909 11.21110898 10.9375 14.6875 C10.91494141 15.62335938 10.89238281 16.55921875 10.86914062 17.5234375 C10.81030595 19.82975674 10.72817146 22.13280838 10.625 24.4375 C8.645 24.4375 6.665 24.4375 4.625 24.4375 C4.295 23.7775 3.965 23.1175 3.625 22.4375 C2.965 23.0975 2.305 23.7575 1.625 24.4375 C-0.43359375 24.73828125 -0.43359375 24.73828125 -2.8125 24.75 C-3.98619141 24.77513672 -3.98619141 24.77513672 -5.18359375 24.80078125 C-7.91420203 24.34811357 -8.77123975 23.67166916 -10.375 21.4375 C-10.80859375 19.5 -10.80859375 19.5 -10.8125 17.4375 C-10.83183594 16.756875 -10.85117187 16.07625 -10.87109375 15.375 C-10.375 13.4375 -10.375 13.4375 -8.67578125 11.73046875 C-6.03020056 10.24373325 -4.139527 9.94832414 -1.125 9.75 C-0.23296875 9.68425781 0.6590625 9.61851562 1.578125 9.55078125 C2.25359375 9.51339844 2.9290625 9.47601563 3.625 9.4375 C3.625 8.1175 3.625 6.7975 3.625 5.4375 C2.59375 5.7675 1.5625 6.0975 0.5 6.4375 C-2.85926709 7.4090192 -5.86606202 7.60866771 -9.375 7.4375 C-8.37221281 1.62133431 -5.77639569 0.00791287 0 0 Z " fill="#F7F7F7" transform="translate(366.375,255.5625)"/>
<path d="M0 0 C2.31 0 4.62 0 7 0 C9.05362055 5.08940744 10.43179252 9.54520815 11 15 C11.66 15 12.32 15 13 15 C13.18175781 14.00419922 13.18175781 14.00419922 13.3671875 12.98828125 C14.22547708 8.46575541 15.03971311 4.20061476 17 0 C19.31 0 21.62 0 24 0 C23.04148877 3.34638132 22.02368856 6.67301219 21 10 C20.78537109 10.71269043 20.57074219 11.42538086 20.34960938 12.15966797 C19.62446798 14.54933849 18.87647277 16.93099085 18.125 19.3125 C17.77671143 20.47724854 17.77671143 20.47724854 17.42138672 21.66552734 C15.85227783 26.55013059 14.19925068 29.77568916 10 33 C7.14432587 33.62296556 4.96007574 33.25085388 2 33 C2.33 31.35 2.66 29.7 3 28 C4.32 27.67 5.64 27.34 7 27 C6.45717371 20.93958499 5.08382901 15.80206513 2.9375 10.125 C0 2.21996568 0 2.21996568 0 0 Z " fill="#F4F4F4" transform="translate(437,256)"/>
<path d="M0 0 C3.69059994 0.87426509 5.13063077 2.36922768 7.16015625 5.51171875 C7.85163784 8.34622178 7.89721403 10.68347377 7.16015625 13.51171875 C4.72265625 16.44921875 4.72265625 16.44921875 2.16015625 18.51171875 C1.83015625 18.84171875 1.50015625 19.17171875 1.16015625 19.51171875 C-3.46933984 19.93258203 -6.15256718 19.37960052 -9.83984375 16.51171875 C-12.16833422 13.29618429 -12.38441382 10.40150498 -11.83984375 6.51171875 C-8.73642578 1.10576487 -6.27795379 -0.47163259 0 0 Z " fill="#F8F8F8" transform="translate(197.83984375,240.48828125)"/>
<path d="M0 0 C2.4375 0.375 2.4375 0.375 4.4375 2.375 C4.703125 4.43359375 4.703125 4.43359375 4.6875 6.8125 C4.69265625 7.59496094 4.6978125 8.37742187 4.703125 9.18359375 C4.4375 11.375 4.4375 11.375 2.4375 14.375 C0 14.8125 0 14.8125 -2.5625 14.375 C-5.07157308 12.12548621 -5.51906309 10.72249528 -5.9375 7.375 C-5.40369097 3.1045278 -4.49071744 0.65717816 0 0 Z " fill="#0A0A0A" transform="translate(374.5625,322.625)"/>
<path d="M0 0 C2.4375 0.8125 2.4375 0.8125 4.4375 2.8125 C4.78923852 6.61127599 4.96451444 8.95610153 2.9375 12.25 C2.4425 12.765625 1.9475 13.28125 1.4375 13.8125 C-0.9375 13.5 -0.9375 13.5 -3.5625 12.8125 C-6.02574069 9.11763897 -5.95241688 7.17956908 -5.5625 2.8125 C-3.9058551 0.02236122 -3.24544844 -0.23747184 0 0 Z " fill="#070707" transform="translate(422.5625,261.1875)"/>
<path d="M0 0 C2.4375 0.8125 2.4375 0.8125 4.4375 2.8125 C4.78923852 6.61127599 4.96451444 8.95610153 2.9375 12.25 C2.4425 12.765625 1.9475 13.28125 1.4375 13.8125 C-0.9375 13.5 -0.9375 13.5 -3.5625 12.8125 C-6.02574069 9.11763897 -5.95241688 7.17956908 -5.5625 2.8125 C-3.9058551 0.02236122 -3.24544844 -0.23747184 0 0 Z " fill="#070707" transform="translate(394.5625,261.1875)"/>
<path d="M0 0 C-0.75 4.75 -0.75 4.75 -3 7 C-5.625 6.625 -5.625 6.625 -8 6 C-8.33 4.68 -8.66 3.36 -9 2 C-3.375 0 -3.375 0 0 0 Z " fill="#1E1E1E" transform="translate(371,269)"/>
<path d="M0 0 C1.98 0 3.96 0 6 0 C6.66 1.32 7.32 2.64 8 4 C4.7 4 1.4 4 -2 4 C-1.34 2.68 -0.68 1.36 0 0 Z " fill="#0A0A0A" transform="translate(439,323)"/>
<path d="M0 0 C1.32 0 2.64 0 4 0 C4 1.32 4 2.64 4 4 C1.69 4.33 -0.62 4.66 -3 5 C-1.125 1.125 -1.125 1.125 0 0 Z " fill="#151515" transform="translate(366,261)"/>
</svg>
