<svg xmlns="http://www.w3.org/2000/svg" xmlns:xlink="http://www.w3.org/1999/xlink" width="40" zoomAndPan="magnify" viewBox="0 0 30 32.999998" height="44" preserveAspectRatio="xMidYMid meet" version="1.0"><defs><clipPath id="d6ee18d846"><path d="M 7 1.5 L 23 1.5 L 23 19 L 7 19 Z M 7 1.5 " clip-rule="nonzero"/></clipPath></defs><g clip-path="url(#d6ee18d846)"><path fill="#ffffff" d="M 15 18.574219 C 19.40625 18.574219 22.992188 13.898438 22.992188 9.492188 C 22.992188 5.085938 19.40625 1.5 15 1.5 C 10.59375 1.5 7.007812 5.085938 7.007812 9.492188 C 7.007812 13.898438 10.59375 18.574219 15 18.574219 Z M 15 18.574219 " fill-opacity="1" fill-rule="nonzero"/></g><path fill="#ffffff" d="M 21 18.65625 C 19.449219 19.835938 17.515625 20.539062 15.421875 20.539062 L 14.578125 20.539062 C 12.484375 20.539062 10.550781 19.835938 9 18.65625 C 3.9375 19.476562 0.0742188 23.863281 0.0742188 29.152344 C 0.0742188 32.0625 6.757812 34.417969 15 34.417969 C 23.242188 34.417969 29.925781 32.0625 29.925781 29.152344 C 29.925781 23.863281 26.058594 19.476562 21 18.65625 Z M 21 18.65625 " fill-opacity="1" fill-rule="nonzero"/></svg>