<?xml version="1.0" encoding="UTF-8"?>
<svg version="1.1" xmlns="http://www.w3.org/2000/svg" width="600" height="600">
<path d="M0 0 C198 0 396 0 600 0 C600 198 600 396 600 600 C402 600 204 600 0 600 C0 402 0 204 0 0 Z " fill="#231F20" transform="translate(0,0)"/>
<path d="M0 0 C1.35434647 -0.00074776 1.35434647 -0.00074776 2.73605347 -0.00151062 C4.63021057 0.00081384 6.52437172 0.01044511 8.41845703 0.02709961 C11.30399376 0.05077556 14.18860889 0.04763737 17.07421875 0.04101562 C18.92448463 0.04659107 20.77474665 0.0537001 22.625 0.0625 C23.47933624 0.06158859 24.33367249 0.06067719 25.21389771 0.05973816 C35.70462709 0.18299534 45.73597874 3.68905914 53.77734375 10.59375 C61.54105689 18.74629685 66.20745885 28.12238182 66.35546875 39.453125 C66.37931641 40.40251953 66.40316406 41.35191406 66.42773438 42.33007812 C66.47061364 44.30642254 66.50191296 46.28305299 66.52148438 48.25976562 C66.69030546 54.05072144 67.06080006 57.92755632 71.1796875 62.36328125 C73.61470545 63.88678116 73.61470545 63.88678116 76.4296875 64.80078125 C81.50705641 66.72346139 86.47369723 68.77690584 91.4296875 70.98828125 C102.36713185 76.25848494 102.36713185 76.25848494 114.1796875 77.36328125 C118.71862109 75.45534932 121.56147132 73.2276806 124.8671875 69.61328125 C135.7100093 58.42702165 146.22769992 54.82822439 161.46484375 54.28125 C177.50796233 54.91097989 188.06305838 67.62466132 198.23681641 78.39428711 C199.91975852 80.09985737 201.61856059 81.62706403 203.484375 83.125 C210.43931412 88.90062336 216.34617087 98.18810744 217.40283203 107.28417969 C218.28114009 119.13996185 216.74087583 129.7585285 209.1796875 139.36328125 C206.93795846 141.92104352 204.66587961 144.44675479 202.37109375 146.95703125 C195.92378335 153.52096549 195.92378335 153.52096549 193.81835938 162.10693359 C194.64427802 167.26446071 197.24314018 171.97720818 199.4296875 176.67578125 C200.41561482 178.83783446 201.40001017 181.00058698 202.3828125 183.1640625 C203.09727539 184.72471436 203.09727539 184.72471436 203.82617188 186.31689453 C205.44463484 189.95960393 206.90412574 193.6490005 208.31152344 197.37768555 C210.14163811 201.56337807 213.0928359 203.6399595 217.1796875 205.36328125 C219.6080533 205.66272242 219.6080533 205.66272242 222.21484375 205.63671875 C223.18405762 205.65428223 224.15327148 205.6718457 225.15185547 205.68994141 C226.68156982 205.71386963 226.68156982 205.71386963 228.2421875 205.73828125 C241.17986485 206.14502564 250.58607108 208.18677859 260.1796875 217.36328125 C268.63574239 226.37191002 272.30074907 236.39415741 272.41796875 248.609375 C272.4260405 249.41633316 272.43411224 250.22329132 272.44242859 251.05470276 C272.45624533 252.76520662 272.46697824 254.47573777 272.47485352 256.1862793 C272.48630323 257.91325113 272.50664216 259.64018957 272.53637695 261.36694336 C272.80454377 276.9610683 271.43109636 290.75142789 260.07421875 302.55078125 C249.26876692 312.6681062 238.30711478 314.54729336 223.93359375 314.9296875 C217.8433911 315.15525056 214.03738886 315.50833612 209.546875 319.9921875 C206.84985253 323.47136754 205.59117273 327.13274134 204.3046875 331.30078125 C202.36477041 337.26415788 200.08155812 342.77606341 197.2421875 348.36328125 C194.86521307 353.18752881 193.21917967 357.12516053 194.484375 362.52734375 C196.51055863 367.87737918 200.016891 371.20906599 204.0546875 375.11328125 C212.20045534 383.1028618 217.22251627 391.6726766 217.66308594 403.31152344 C217.76915228 416.81938376 213.5355074 426.77410787 204.13452148 436.4543457 C203.05614577 437.53337987 201.97259588 438.60726454 200.88427734 439.67626953 C199.09348302 441.44859677 197.34791155 443.25830321 195.60546875 445.078125 C185.24102812 455.82197444 174.9642263 465.14550634 159.26025391 465.83618164 C147.07999372 465.99483089 138.15356002 462.5693358 129.1796875 454.36328125 C127.60673634 452.79033009 126.04427304 451.20682484 124.4921875 449.61328125 C120.11708593 445.17005526 116.9429349 442.6082394 110.56640625 442.04296875 C105.41325639 442.11053371 101.54552375 444.20360283 97.0546875 446.55078125 C90.17955085 450.01018074 83.57655424 452.78853482 76.16015625 454.90234375 C72.01455192 456.9343962 69.38873963 459.28003645 67.1796875 463.36328125 C66.42288461 466.98305339 66.42934608 470.4882468 66.4921875 474.17578125 C66.55768397 487.73355068 63.31384263 498.71719161 54.1796875 509.05078125 C45.84544413 516.93553734 34.83464338 520.50680587 23.64453125 520.56640625 C22.8106337 520.57210632 21.97673615 520.5778064 21.11756897 520.5836792 C19.35158551 520.59311607 17.58558454 520.59965797 15.81958008 520.60351562 C13.15087985 520.6131595 10.48297074 520.64416901 7.81445312 520.67578125 C-7.2421189 520.77130825 -19.3000114 519.02136641 -30.890625 508.48046875 C-39.62430868 499.1418546 -42.51719512 488.57141719 -43.015625 476.03125 C-43.0475293 475.27980713 -43.07943359 474.52836426 -43.11230469 473.75415039 C-43.16635768 472.27866268 -43.20181799 470.8023388 -43.21582031 469.32592773 C-43.38022513 464.09994029 -44.14547827 461.11542615 -47.8203125 457.36328125 C-52.07876148 455.11912921 -56.50654684 453.43073802 -61.0078125 451.73828125 C-63.39757264 450.80971822 -65.7869046 449.88005236 -68.17578125 448.94921875 C-69.314104 448.51254883 -70.45242676 448.07587891 -71.62524414 447.62597656 C-75.13792568 446.23776009 -78.56545677 444.71710845 -81.97705078 443.09814453 C-85.09618879 441.85462064 -87.53424592 441.8672712 -90.8203125 442.36328125 C-95.03016604 444.46820802 -97.75963764 447.29491008 -101.0078125 450.67578125 C-110.68694504 460.51704331 -121.0515431 465.32030075 -134.8203125 465.80078125 C-151.50008231 465.36327909 -161.64360882 454.95401948 -172.85083008 443.86816406 C-173.95287459 442.78414327 -175.06292423 441.70819937 -176.1809082 440.640625 C-186.26929063 431.0064343 -193.71072337 420.93646395 -194.1328125 406.36328125 C-193.91765066 391.81051697 -187.00856467 381.3593941 -176.9453125 371.42578125 C-176.20539063 370.73613281 -175.46546875 370.04648437 -174.703125 369.3359375 C-171.76295185 366.25546563 -170.52220643 363.48193977 -170.43359375 359.22265625 C-170.56517472 353.72099717 -172.59857905 349.47771503 -175.0078125 344.61328125 C-175.84294131 342.85824145 -176.67497632 341.10172611 -177.50390625 339.34375 C-177.90593262 338.49603027 -178.30795898 337.64831055 -178.72216797 336.77490234 C-180.19310374 333.5445992 -181.38406846 330.27091315 -182.5703125 326.92578125 C-184.57180343 321.53075898 -186.52895406 318.00896047 -191.8203125 315.36328125 C-193.36957393 315.24625332 -194.92322082 315.18453277 -196.4765625 315.15234375 C-197.41757813 315.12398438 -198.35859375 315.095625 -199.328125 315.06640625 C-201.29149656 315.01514328 -203.25505883 314.97064453 -205.21875 314.93359375 C-216.92675632 314.55284558 -227.36974683 311.36898032 -236.0859375 303.25390625 C-240.29675146 298.73118014 -243.56761986 294.12883616 -245.8203125 288.36328125 C-246.15893311 287.53803955 -246.49755371 286.71279785 -246.84643555 285.86254883 C-248.11437645 281.30667094 -248.16383353 277.06364608 -248.19140625 272.35546875 C-248.20494896 270.91266037 -248.20494896 270.91266037 -248.21876526 269.44070435 C-248.23323707 267.4084177 -248.24214684 265.37608479 -248.24584961 263.34375 C-248.25769529 260.26870874 -248.30686877 257.19570915 -248.35742188 254.12109375 C-248.48262218 239.15745137 -247.03428604 228.73298359 -236.21484375 217.5546875 C-227.07192166 209.18734771 -217.56236693 205.48006759 -205.19140625 205.22265625 C-204.38380859 205.20332031 -203.57621094 205.18398437 -202.74414062 205.1640625 C-201.08292874 205.13013358 -199.42132193 205.11197321 -197.75976562 205.109375 C-193.17753941 204.97018667 -189.60445562 204.5818212 -186.14575195 201.21386719 C-183.10371086 196.96655249 -181.48732044 191.98053309 -179.6953125 187.11328125 C-178.86088336 184.91999847 -178.02496994 182.72727975 -177.1875 180.53515625 C-176.79208008 179.48432861 -176.39666016 178.43350098 -175.98925781 177.35083008 C-174.6558163 173.94286771 -173.16333903 170.6363362 -171.57275391 167.34155273 C-170.21943851 163.78350127 -169.9429768 160.05970298 -170.8203125 156.36328125 C-173.38260374 151.90583911 -176.42234579 148.69419193 -180.1953125 145.23828125 C-187.47349506 138.29577244 -192.76702845 129.42502675 -193.05859375 119.16796875 C-193.41542439 103.40661538 -190.18993281 94.52007019 -179.46069336 82.78173828 C-176.8627999 80.06681808 -174.2254224 77.39722247 -171.5703125 74.73828125 C-170.69246094 73.8359375 -169.81460938 72.93359375 -168.91015625 72.00390625 C-159.14478367 62.19564038 -148.70089071 54.58305839 -134.5078125 53.92578125 C-119.49933609 54.41403437 -109.10572635 61.53516946 -99.1796875 72.09375 C-95.27217384 75.85246761 -92.53778772 77.54941653 -87.0859375 77.8125 C-81.50670994 77.63389038 -77.42977938 75.77086517 -72.5703125 73.17578125 C-66.763293 70.22404235 -61.15302921 67.6622506 -54.9453125 65.67578125 C-49.49048063 63.83628719 -46.74589509 62.34760714 -43.8203125 57.36328125 C-42.84348694 54.43280456 -42.69661945 52.51348637 -42.6796875 49.4609375 C-42.43460991 34.13720585 -41.31550279 23.00856858 -30.2109375 11.5546875 C-21.23943005 3.33080567 -12.1142886 -0.13121385 0 0 Z " fill="#231F20" transform="translate(287.8203125,39.63671875)"/>
<path d="M0 0 C1.35434647 -0.00074776 1.35434647 -0.00074776 2.73605347 -0.00151062 C4.63021057 0.00081384 6.52437172 0.01044511 8.41845703 0.02709961 C11.30399376 0.05077556 14.18860889 0.04763737 17.07421875 0.04101562 C18.92448463 0.04659107 20.77474665 0.0537001 22.625 0.0625 C23.47933624 0.06158859 24.33367249 0.06067719 25.21389771 0.05973816 C35.70462709 0.18299534 45.73597874 3.68905914 53.77734375 10.59375 C61.54105689 18.74629685 66.20745885 28.12238182 66.35546875 39.453125 C66.37931641 40.40251953 66.40316406 41.35191406 66.42773438 42.33007812 C66.47061364 44.30642254 66.50191296 46.28305299 66.52148438 48.25976562 C66.69030546 54.05072144 67.06080006 57.92755632 71.1796875 62.36328125 C73.61470545 63.88678116 73.61470545 63.88678116 76.4296875 64.80078125 C81.50705641 66.72346139 86.47369723 68.77690584 91.4296875 70.98828125 C102.36713185 76.25848494 102.36713185 76.25848494 114.1796875 77.36328125 C118.71862109 75.45534932 121.56147132 73.2276806 124.8671875 69.61328125 C135.7100093 58.42702165 146.22769992 54.82822439 161.46484375 54.28125 C177.50796233 54.91097989 188.06305838 67.62466132 198.23681641 78.39428711 C199.91975852 80.09985737 201.61856059 81.62706403 203.484375 83.125 C210.43931412 88.90062336 216.34617087 98.18810744 217.40283203 107.28417969 C218.28114009 119.13996185 216.74087583 129.7585285 209.1796875 139.36328125 C206.93795846 141.92104352 204.66587961 144.44675479 202.37109375 146.95703125 C195.92378335 153.52096549 195.92378335 153.52096549 193.81835938 162.10693359 C194.64427802 167.26446071 197.24314018 171.97720818 199.4296875 176.67578125 C200.41561482 178.83783446 201.40001017 181.00058698 202.3828125 183.1640625 C203.09727539 184.72471436 203.09727539 184.72471436 203.82617188 186.31689453 C205.44463484 189.95960393 206.90412574 193.6490005 208.31152344 197.37768555 C210.14163811 201.56337807 213.0928359 203.6399595 217.1796875 205.36328125 C219.6080533 205.66272242 219.6080533 205.66272242 222.21484375 205.63671875 C223.18405762 205.65428223 224.15327148 205.6718457 225.15185547 205.68994141 C226.68156982 205.71386963 226.68156982 205.71386963 228.2421875 205.73828125 C241.17986485 206.14502564 250.58607108 208.18677859 260.1796875 217.36328125 C268.63574239 226.37191002 272.30074907 236.39415741 272.41796875 248.609375 C272.4260405 249.41633316 272.43411224 250.22329132 272.44242859 251.05470276 C272.45624533 252.76520662 272.46697824 254.47573777 272.47485352 256.1862793 C272.48630323 257.91325113 272.50664216 259.64018957 272.53637695 261.36694336 C272.80454377 276.9610683 271.43109636 290.75142789 260.07421875 302.55078125 C249.26876692 312.6681062 238.30711478 314.54729336 223.93359375 314.9296875 C217.8433911 315.15525056 214.03738886 315.50833612 209.546875 319.9921875 C206.84985253 323.47136754 205.59117273 327.13274134 204.3046875 331.30078125 C202.36477041 337.26415788 200.08155812 342.77606341 197.2421875 348.36328125 C194.86521307 353.18752881 193.21917967 357.12516053 194.484375 362.52734375 C196.51055863 367.87737918 200.016891 371.20906599 204.0546875 375.11328125 C212.20045534 383.1028618 217.22251627 391.6726766 217.66308594 403.31152344 C217.76915228 416.81938376 213.5355074 426.77410787 204.13452148 436.4543457 C203.05614577 437.53337987 201.97259588 438.60726454 200.88427734 439.67626953 C199.09348302 441.44859677 197.34791155 443.25830321 195.60546875 445.078125 C185.24102812 455.82197444 174.9642263 465.14550634 159.26025391 465.83618164 C147.07999372 465.99483089 138.15356002 462.5693358 129.1796875 454.36328125 C127.60673634 452.79033009 126.04427304 451.20682484 124.4921875 449.61328125 C120.11708593 445.17005526 116.9429349 442.6082394 110.56640625 442.04296875 C105.41325639 442.11053371 101.54552375 444.20360283 97.0546875 446.55078125 C90.17955085 450.01018074 83.57655424 452.78853482 76.16015625 454.90234375 C72.01455192 456.9343962 69.38873963 459.28003645 67.1796875 463.36328125 C66.42288461 466.98305339 66.42934608 470.4882468 66.4921875 474.17578125 C66.55768397 487.73355068 63.31384263 498.71719161 54.1796875 509.05078125 C45.84544413 516.93553734 34.83464338 520.50680587 23.64453125 520.56640625 C22.8106337 520.57210632 21.97673615 520.5778064 21.11756897 520.5836792 C19.35158551 520.59311607 17.58558454 520.59965797 15.81958008 520.60351562 C13.15087985 520.6131595 10.48297074 520.64416901 7.81445312 520.67578125 C-7.2421189 520.77130825 -19.3000114 519.02136641 -30.890625 508.48046875 C-39.62430868 499.1418546 -42.51719512 488.57141719 -43.015625 476.03125 C-43.0475293 475.27980713 -43.07943359 474.52836426 -43.11230469 473.75415039 C-43.16635768 472.27866268 -43.20181799 470.8023388 -43.21582031 469.32592773 C-43.38022513 464.09994029 -44.14547827 461.11542615 -47.8203125 457.36328125 C-52.07876148 455.11912921 -56.50654684 453.43073802 -61.0078125 451.73828125 C-63.39757264 450.80971822 -65.7869046 449.88005236 -68.17578125 448.94921875 C-69.314104 448.51254883 -70.45242676 448.07587891 -71.62524414 447.62597656 C-75.13792568 446.23776009 -78.56545677 444.71710845 -81.97705078 443.09814453 C-85.09618879 441.85462064 -87.53424592 441.8672712 -90.8203125 442.36328125 C-95.03016604 444.46820802 -97.75963764 447.29491008 -101.0078125 450.67578125 C-110.68694504 460.51704331 -121.0515431 465.32030075 -134.8203125 465.80078125 C-151.50008231 465.36327909 -161.64360882 454.95401948 -172.85083008 443.86816406 C-173.95287459 442.78414327 -175.06292423 441.70819937 -176.1809082 440.640625 C-186.26929063 431.0064343 -193.71072337 420.93646395 -194.1328125 406.36328125 C-193.91765066 391.81051697 -187.00856467 381.3593941 -176.9453125 371.42578125 C-176.20539063 370.73613281 -175.46546875 370.04648437 -174.703125 369.3359375 C-171.76295185 366.25546563 -170.52220643 363.48193977 -170.43359375 359.22265625 C-170.56517472 353.72099717 -172.59857905 349.47771503 -175.0078125 344.61328125 C-175.84294131 342.85824145 -176.67497632 341.10172611 -177.50390625 339.34375 C-177.90593262 338.49603027 -178.30795898 337.64831055 -178.72216797 336.77490234 C-180.19310374 333.5445992 -181.38406846 330.27091315 -182.5703125 326.92578125 C-184.57180343 321.53075898 -186.52895406 318.00896047 -191.8203125 315.36328125 C-193.36957393 315.24625332 -194.92322082 315.18453277 -196.4765625 315.15234375 C-197.41757813 315.12398438 -198.35859375 315.095625 -199.328125 315.06640625 C-201.29149656 315.01514328 -203.25505883 314.97064453 -205.21875 314.93359375 C-216.92675632 314.55284558 -227.36974683 311.36898032 -236.0859375 303.25390625 C-240.29675146 298.73118014 -243.56761986 294.12883616 -245.8203125 288.36328125 C-246.15893311 287.53803955 -246.49755371 286.71279785 -246.84643555 285.86254883 C-248.11437645 281.30667094 -248.16383353 277.06364608 -248.19140625 272.35546875 C-248.20494896 270.91266037 -248.20494896 270.91266037 -248.21876526 269.44070435 C-248.23323707 267.4084177 -248.24214684 265.37608479 -248.24584961 263.34375 C-248.25769529 260.26870874 -248.30686877 257.19570915 -248.35742188 254.12109375 C-248.48262218 239.15745137 -247.03428604 228.73298359 -236.21484375 217.5546875 C-227.07192166 209.18734771 -217.56236693 205.48006759 -205.19140625 205.22265625 C-204.38380859 205.20332031 -203.57621094 205.18398437 -202.74414062 205.1640625 C-201.08292874 205.13013358 -199.42132193 205.11197321 -197.75976562 205.109375 C-193.17753941 204.97018667 -189.60445562 204.5818212 -186.14575195 201.21386719 C-183.10371086 196.96655249 -181.48732044 191.98053309 -179.6953125 187.11328125 C-178.86088336 184.91999847 -178.02496994 182.72727975 -177.1875 180.53515625 C-176.79208008 179.48432861 -176.39666016 178.43350098 -175.98925781 177.35083008 C-174.6558163 173.94286771 -173.16333903 170.6363362 -171.57275391 167.34155273 C-170.21943851 163.78350127 -169.9429768 160.05970298 -170.8203125 156.36328125 C-173.38260374 151.90583911 -176.42234579 148.69419193 -180.1953125 145.23828125 C-187.47349506 138.29577244 -192.76702845 129.42502675 -193.05859375 119.16796875 C-193.41542439 103.40661538 -190.18993281 94.52007019 -179.46069336 82.78173828 C-176.8627999 80.06681808 -174.2254224 77.39722247 -171.5703125 74.73828125 C-170.69246094 73.8359375 -169.81460938 72.93359375 -168.91015625 72.00390625 C-159.14478367 62.19564038 -148.70089071 54.58305839 -134.5078125 53.92578125 C-119.49933609 54.41403437 -109.10572635 61.53516946 -99.1796875 72.09375 C-95.27217384 75.85246761 -92.53778772 77.54941653 -87.0859375 77.8125 C-81.50670994 77.63389038 -77.42977938 75.77086517 -72.5703125 73.17578125 C-66.763293 70.22404235 -61.15302921 67.6622506 -54.9453125 65.67578125 C-49.49048063 63.83628719 -46.74589509 62.34760714 -43.8203125 57.36328125 C-42.84348694 54.43280456 -42.69661945 52.51348637 -42.6796875 49.4609375 C-42.43460991 34.13720585 -41.31550279 23.00856858 -30.2109375 11.5546875 C-21.23943005 3.33080567 -12.1142886 -0.13121385 0 0 Z M-14.16015625 32.97265625 C-16.41635899 37.58061855 -16.37920971 41.54775945 -16.3828125 46.61328125 C-16.44637885 59.16309464 -19.28686164 70.51366789 -27.8828125 80.05078125 C-36.28800932 87.84794256 -48.50990206 91.34746852 -59.0078125 95.46484375 C-63.87927856 97.37563432 -68.69839108 99.39094576 -73.5078125 101.453125 C-82.28077116 104.90599555 -93.40888477 104.74636628 -102.1953125 101.42578125 C-108.38601017 98.46464808 -112.9726448 94.13749944 -117.8203125 89.36328125 C-119.26763818 88.03865273 -120.72517 86.72504003 -122.1953125 85.42578125 C-122.80117187 84.88050781 -123.40703125 84.33523437 -124.03125 83.7734375 C-128.22901334 80.46472011 -131.46399709 79.81857121 -136.8203125 80.36328125 C-143.48525494 83.34631176 -148.13886048 88.25506344 -153.21069336 93.41748047 C-154.63819804 94.86875647 -156.07875393 96.30606274 -157.52148438 97.7421875 C-164.88893695 104.76522507 -164.88893695 104.76522507 -167.1953125 114.23828125 C-166.99621285 121.41634768 -163.47531195 124.75282103 -158.5078125 129.55078125 C-150.05575868 137.82152039 -144.68027472 146.8804133 -144.43945312 158.86914062 C-144.46012843 167.00831932 -145.06505115 173.03009034 -148.8203125 180.36328125 C-150.18142124 183.3301186 -151.49796306 186.31651083 -152.8203125 189.30078125 C-153.17399902 190.08573975 -153.52768555 190.87069824 -153.89208984 191.67944336 C-155.77437648 195.87876242 -157.48121733 200.05810238 -158.9453125 204.42578125 C-162.36299342 214.12902316 -168.5011171 221.89356656 -177.56640625 226.87109375 C-184.0388496 229.94484568 -189.5788542 231.37455389 -196.75390625 231.46875 C-198.0987207 231.49098633 -198.0987207 231.49098633 -199.47070312 231.51367188 C-201.32471277 231.53835736 -203.1790847 231.54364966 -205.03320312 231.52929688 C-210.89998244 231.66828016 -214.1718195 232.62206499 -218.46508789 236.6887207 C-221.92757453 240.96708421 -222.13968063 244.78167763 -222.15625 250.1640625 C-222.1629068 250.91866257 -222.1695636 251.67326263 -222.17642212 252.45072937 C-222.18652962 254.04517182 -222.19123973 255.63965641 -222.19091797 257.23413086 C-222.19527952 259.6574594 -222.23158324 262.07894799 -222.26953125 264.50195312 C-222.27540243 266.0559834 -222.27936981 267.61002227 -222.28125 269.1640625 C-222.29562103 269.88096756 -222.30999207 270.59787262 -222.32479858 271.33650208 C-222.27518334 276.87826493 -220.85426148 279.89492485 -217.8203125 284.36328125 C-212.61106896 289.27736091 -207.40035271 288.8692606 -200.6328125 288.86328125 C-192.39020713 289.04677934 -185.19449431 289.29836124 -177.8203125 293.36328125 C-177.02882812 293.78609375 -176.23734375 294.20890625 -175.421875 294.64453125 C-165.20898369 300.75190812 -160.97116747 309.62265088 -156.8203125 320.36328125 C-155.8339468 322.73928966 -154.83085046 325.1077115 -153.82397461 327.47509766 C-152.76703972 329.96653061 -151.7290895 332.46534381 -150.69140625 334.96484375 C-149.66843718 337.41158537 -148.61567831 339.76798954 -147.41796875 342.13671875 C-143.12798301 350.83882506 -143.46715775 362.19806495 -145.515625 371.53125 C-148.77294139 380.35885113 -155.04317265 386.83289179 -161.76953125 393.1875 C-165.42140317 397.06196221 -167.27448153 400.31013582 -167.4453125 405.67578125 C-167.49945313 406.55878906 -167.55359375 407.44179688 -167.609375 408.3515625 C-166.36375712 413.1058763 -163.1977486 415.90194559 -159.8203125 419.36328125 C-159.05332031 420.15629639 -158.28632813 420.94931152 -157.49609375 421.76635742 C-155.01928513 424.29781607 -152.51786375 426.80230595 -150.0078125 429.30078125 C-149.14994141 430.16251953 -148.29207031 431.02425781 -147.40820312 431.91210938 C-146.58900391 432.73001953 -145.76980469 433.54792969 -144.92578125 434.390625 C-144.18481201 435.13046631 -143.44384277 435.87030762 -142.68041992 436.63256836 C-139.94515961 439.17755594 -138.220283 439.53879206 -134.5703125 439.61328125 C-133.82265625 439.6390625 -133.075 439.66484375 -132.3046875 439.69140625 C-126.2112425 438.88661163 -122.60084125 435.41316491 -118.5703125 431.05078125 C-110.11727293 422.24734161 -100.3270234 416.37122076 -87.9453125 415.98828125 C-77.02866256 416.35764159 -68.08244988 420.43862037 -58.3112793 424.95605469 C-53.4693486 427.19422406 -48.65010949 429.24078104 -43.6328125 431.05078125 C-32.59571495 435.21972334 -26.07709254 441.31757635 -20.0078125 451.36328125 C-16.80374583 459.45776547 -16.47678867 467.55868164 -16.34179688 476.16601562 C-16.18107436 481.28953574 -15.66246618 484.92541237 -12.8203125 489.36328125 C-7.84858735 493.96212701 -3.89134795 494.5329985 2.6640625 494.6015625 C3.39788147 494.60963425 4.13170044 494.61770599 4.88775635 494.62602234 C6.44109754 494.63984324 7.99446884 494.65057431 9.54785156 494.65844727 C11.12867189 494.6699518 12.70945384 494.69037969 14.29003906 494.7199707 C16.58164702 494.76286048 18.87210188 494.7788459 21.1640625 494.7890625 C22.211315 494.81532463 22.211315 494.81532463 23.27972412 494.84211731 C28.77103035 494.81815708 31.76579325 493.39586611 36.1796875 490.36328125 C40.77749653 484.54138021 40.68553957 479.33825174 40.6796875 472.11328125 C41.00800487 457.87949479 43.9465663 448.80841415 54 438.49609375 C59.90719004 433.28386725 66.83348746 430.93381644 74.11328125 428.26953125 C80.58755906 425.88595356 86.88007487 423.08748226 93.18652344 420.29541016 C94.02602539 419.92851074 94.86552734 419.56161133 95.73046875 419.18359375 C96.46950439 418.85633301 97.20854004 418.52907227 97.9699707 418.19189453 C107.28419484 414.69918911 118.15588714 415.41713658 127.1796875 419.36328125 C135.00455465 423.36696692 140.82986814 428.66575689 146.76953125 435.0078125 C150.75407497 438.90194518 153.40228805 439.57966547 158.984375 439.7265625 C164.65510234 438.78816812 168.55330419 435.37285331 172.5078125 431.43359375 C172.98289246 430.96138397 173.45797241 430.48917419 173.94744873 430.00265503 C174.94261173 429.00952047 175.93404889 428.01263956 176.921875 427.01220703 C178.42910455 425.48887043 179.95173255 423.98225848 181.4765625 422.4765625 C182.44627611 421.50486694 183.41505895 420.53224143 184.3828125 419.55859375 C185.25583008 418.68219238 186.12884766 417.80579102 187.02832031 416.90283203 C190.68655575 412.58452007 191.82213028 408.3269809 191.68359375 402.7578125 C190.34480584 396.39597536 184.78230199 391.90083752 180.1796875 387.67578125 C172.88720362 380.41178363 168.89285518 372.27007575 168.55859375 362.0402832 C168.54111392 350.90016859 171.67139433 342.25468964 176.0546875 332.11328125 C178.45232508 326.53314632 180.71495193 320.96303285 182.7421875 315.23828125 C186.95469428 304.21019041 195.01724745 295.85833914 205.8046875 290.98828125 C212.60589607 288.6824584 219.8286074 288.85995946 226.94384766 288.86572266 C233.24889635 288.79266668 237.04167693 288.11003427 242.1796875 284.36328125 C246.07066507 279.17531115 246.34958648 274.28165012 246.41796875 267.96484375 C246.4260405 267.2522641 246.43411224 266.53968445 246.44242859 265.80551147 C246.45622542 264.30102948 246.46696715 262.79651677 246.47485352 261.29199219 C246.48638327 259.75967177 246.50685115 258.22739182 246.53637695 256.6953125 C246.57918082 254.47238086 246.59523709 252.25063698 246.60546875 250.02734375 C246.63173088 249.00986557 246.63173088 249.00986557 246.65852356 247.97183228 C246.63595538 242.97832242 245.27221483 240.22064235 242.1796875 236.36328125 C237.14005577 231.89854085 232.78862641 231.77664683 226.3671875 231.73828125 C211.7324292 231.51671034 200.78905089 228.51949083 190.1875 217.9375 C184.99672058 211.28239565 182.35904511 203.00355896 179.33789062 195.20703125 C177.73687152 191.1198285 176.11300861 187.11318211 174.10546875 183.20703125 C168.35823255 171.89189311 167.20929143 160.6768394 169.8515625 148.1875 C173.11839604 138.97445629 180.30443173 131.98034738 187.26171875 125.40625 C190.43236642 122.02896134 191.5034333 119.22526613 191.6796875 114.61328125 C191.75703125 113.41445312 191.75703125 113.41445312 191.8359375 112.19140625 C189.9572833 104.09530125 181.85346341 97.70115049 176.1796875 92.05078125 C175.39851563 91.25349609 174.61734375 90.45621094 173.8125 89.63476562 C168.93489173 84.75305162 164.87716337 80.99115451 157.8671875 79.80078125 C150.27017831 80.95964706 145.38948796 86.02837685 140.2421875 91.42578125 C135.69782909 96.12562315 131.25626333 99.01105835 125.1796875 101.36328125 C124.25027344 101.72679687 123.32085937 102.0903125 122.36328125 102.46484375 C111.99099946 105.39199076 101.77288408 103.70191287 92.1796875 99.36328125 C90.66581728 98.7236951 89.15001114 98.08868129 87.6328125 97.45703125 C84.29932381 96.06854221 80.97339668 94.66405652 77.65234375 93.24609375 C74.31390174 91.8275159 70.95429561 90.50448897 67.5546875 89.23828125 C55.98396532 84.60999238 48.53180367 76.83996969 43.125 65.7578125 C41.49678874 61.63345917 41.06150903 57.68315843 41.00390625 53.2734375 C40.98005859 52.32404297 40.95621094 51.37464844 40.93164062 50.39648438 C40.88876136 48.42013996 40.85746204 46.44350951 40.83789062 44.46679688 C40.66301235 38.46806522 40.13623191 34.95702195 36.1796875 30.36328125 C31.60371243 26.34196983 27.31455018 26.18432714 21.44140625 26.125 C20.68301956 26.11692825 19.92463287 26.10885651 19.14326477 26.10054016 C17.5386482 26.08671943 15.93400248 26.07598829 14.3293457 26.06811523 C12.69319002 26.05659644 11.05707188 26.03614596 9.42114258 26.0065918 C7.05263831 25.96380622 4.68524955 25.94773181 2.31640625 25.9375 C1.22860115 25.91123787 1.22860115 25.91123787 0.11882019 25.88444519 C-6.34605289 25.91183253 -9.93391437 28.25958517 -14.16015625 32.97265625 Z " fill="#FCFCFC" transform="translate(287.8203125,39.63671875)"/>
<path d="M0 0 C0.67933594 0.53625 1.35867188 1.0725 2.05859375 1.625 C21.24502158 17.35017915 35.92026798 43.84847771 38.80517578 68.57373047 C41.32961794 100.0122094 35.25967381 130.46662421 14.4375 155 C12.65340234 157.0291174 10.83406272 159.01492912 9 161 C8.34515625 161.73605469 7.6903125 162.47210938 7.015625 163.23046875 C-11.03214404 182.55083689 -39.41894398 194.21686186 -65.52734375 195.28515625 C-98.19976701 196.04751279 -125.60522584 185.59706367 -149.63696289 163.3503418 C-170.84682995 142.9895654 -181.55633362 114.38961337 -182.34350586 85.36572266 C-182.6694694 57.64618742 -172.48338485 31.66302929 -154 11 C-153.13890625 10.03191406 -152.2778125 9.06382812 -151.390625 8.06640625 C-135.65176548 -8.94865199 -115.30678481 -18.85028982 -93 -24 C-91.76636719 -24.33837891 -91.76636719 -24.33837891 -90.5078125 -24.68359375 C-59.08488686 -32.56650762 -24.26360876 -19.43947447 0 0 Z " fill="#231F20" transform="translate(371,215)"/>
<path d="M0 0 C25.81250374 23.86662735 42.62355314 56.95890998 44.34399414 92.30615234 C45.5289131 131.30295103 33.78674198 166.96987534 6.86987305 195.69042969 C-19.03105112 222.5074373 -53.21779152 237.04195748 -90.37548828 237.73486328 C-101.90238004 237.80382235 -112.61491341 237.2107405 -123.79833984 234.38183594 C-124.78576172 234.18847656 -125.77318359 233.99511719 -126.79052734 233.79589844 C-155.2528981 227.85659614 -182.39779123 208.08781499 -199.79833984 185.38183594 C-200.47767578 184.5065625 -201.15701172 183.63128906 -201.85693359 182.72949219 C-214.87996983 165.44160198 -223.27467026 145.76520067 -226.79833984 124.38183594 C-226.96245361 123.51236328 -227.12656738 122.64289063 -227.2956543 121.74707031 C-233.54824628 87.39278414 -224.65602829 52.46438589 -205.16088867 23.82275391 C-183.67145912 -6.62449073 -151.92660034 -27.17484012 -115.33349609 -34.02441406 C-73.69278643 -41.01821281 -31.29097449 -28.15592981 0 0 Z M-170.79833984 23.38183594 C-171.42740234 23.93871094 -172.05646484 24.49558594 -172.70458984 25.06933594 C-189.42529176 40.21261315 -200.10115673 65.28144775 -202.79833984 87.38183594 C-204.22600593 118.15343051 -197.59885866 148.75753732 -176.79833984 172.38183594 C-175.80253906 173.59226562 -175.80253906 173.59226562 -174.78662109 174.82714844 C-157.24041896 195.51934245 -130.76816503 209.00446763 -103.79833984 211.38183594 C-69.57429853 213.08595126 -40.65340757 203.63604247 -15.05224609 180.94824219 C4.27764004 162.58334257 17.60715021 135.58817899 18.53759766 108.81542969 C18.71369818 95.17247692 18.34595654 82.43716346 14.20166016 69.38183594 C13.88817627 68.36307373 13.88817627 68.36307373 13.56835938 67.32373047 C8.92244727 52.62037567 1.18048648 40.08267211 -8.79833984 28.38183594 C-9.23662109 27.82238281 -9.67490234 27.26292969 -10.12646484 26.68652344 C-25.92658469 6.56770416 -52.45721957 -5.08534492 -77.17333984 -8.93066406 C-112.67083014 -12.74598968 -145.3845616 -1.71819196 -170.79833984 23.38183594 Z " fill="#FCFCFC" transform="translate(391.79833984375,198.6181640625)"/>
</svg>
