<svg xmlns="http://www.w3.org/2000/svg" xmlns:xlink="http://www.w3.org/1999/xlink" width="70" zoomAndPan="magnify" viewBox="0 0 52.5 52.499999" height="70" preserveAspectRatio="xMidYMid meet" version="1.0"><defs><clipPath id="9bb16e6df6"><path d="M 0 0 L 52 0 L 52 52.003906 L 0 52.003906 Z M 0 0 " clip-rule="nonzero"/></clipPath></defs><g clip-path="url(#9bb16e6df6)"><path fill="#000000" d="M 52 26.003906 C 52 40.363281 40.359375 52.003906 26 52.003906 C 11.636719 52.003906 -0.00390625 40.363281 -0.00390625 26.003906 C -0.00390625 11.640625 11.636719 0 26 0 C 40.359375 0 52 11.640625 52 26.003906 " fill-opacity="1" fill-rule="nonzero"/></g><path fill="#ffffff" d="M 38.492188 21.835938 C 36.292969 15.628906 28.578125 16.894531 26.074219 21.609375 C 23.566406 16.894531 15.851562 15.628906 13.652344 21.835938 C 10.835938 29.777344 24.992188 38.71875 26.074219 39.363281 C 27.152344 38.71875 41.308594 29.777344 38.492188 21.835938 " fill-opacity="1" fill-rule="nonzero"/></svg>