<svg xmlns="http://www.w3.org/2000/svg" xmlns:xlink="http://www.w3.org/1999/xlink" width="40" zoomAndPan="magnify" viewBox="0 0 30 30.000001" height="40" preserveAspectRatio="xMidYMid meet" version="1.0"><path fill="#03699b" d="M 15 0.605469 C 14.085938 0.605469 13.183594 0.695312 12.285156 0.871094 C 11.390625 1.050781 10.519531 1.3125 9.675781 1.664062 C 8.832031 2.011719 8.03125 2.441406 7.269531 2.949219 C 6.511719 3.457031 5.808594 4.035156 5.164062 4.679688 C 4.515625 5.324219 3.941406 6.027344 3.433594 6.789062 C 2.925781 7.546875 2.496094 8.347656 2.148438 9.191406 C 1.796875 10.035156 1.535156 10.90625 1.355469 11.800781 C 1.179688 12.699219 1.089844 13.601562 1.089844 14.515625 C 1.089844 15.429688 1.179688 16.335938 1.355469 17.230469 C 1.535156 18.125 1.796875 18.996094 2.148438 19.839844 C 2.496094 20.683594 2.925781 21.484375 3.433594 22.246094 C 3.941406 23.003906 4.515625 23.707031 5.164062 24.351562 C 5.808594 25 6.511719 25.574219 7.269531 26.082031 C 8.03125 26.589844 8.832031 27.019531 9.675781 27.367188 C 10.519531 27.71875 11.390625 27.980469 12.285156 28.160156 C 13.183594 28.339844 14.085938 28.425781 15 28.425781 C 15.914062 28.425781 16.816406 28.339844 17.714844 28.160156 C 18.609375 27.980469 19.480469 27.71875 20.324219 27.367188 C 21.167969 27.019531 21.96875 26.589844 22.730469 26.082031 C 23.488281 25.574219 24.191406 25 24.835938 24.351562 C 25.484375 23.707031 26.058594 23.003906 26.566406 22.246094 C 27.074219 21.484375 27.503906 20.683594 27.851562 19.839844 C 28.203125 18.996094 28.464844 18.125 28.644531 17.230469 C 28.820312 16.335938 28.910156 15.429688 28.910156 14.515625 C 28.910156 13.601562 28.820312 12.699219 28.640625 11.804688 C 28.460938 10.90625 28.199219 10.039062 27.847656 9.195312 C 27.5 8.351562 27.070312 7.550781 26.5625 6.792969 C 26.054688 6.03125 25.476562 5.328125 24.832031 4.683594 C 24.1875 4.039062 23.484375 3.460938 22.726562 2.953125 C 21.964844 2.445312 21.164062 2.019531 20.320312 1.667969 C 19.476562 1.316406 18.609375 1.054688 17.710938 0.875 C 16.816406 0.695312 15.914062 0.605469 15 0.605469 Z M 15 0.605469 " fill-opacity="1" fill-rule="nonzero"/><path fill="#a1c1d1" d="M 15 13.910156 C 14.484375 13.910156 13.972656 13.960938 13.464844 14.0625 C 12.960938 14.164062 12.46875 14.316406 11.992188 14.511719 C 11.515625 14.710938 11.0625 14.953125 10.632812 15.238281 C 10.203125 15.527344 9.808594 15.851562 9.441406 16.21875 C 9.078125 16.582031 8.753906 16.980469 8.464844 17.40625 C 8.179688 17.835938 7.9375 18.289062 7.738281 18.765625 C 7.539062 19.242188 7.390625 19.734375 7.289062 20.242188 C 7.1875 20.746094 7.136719 21.257812 7.136719 21.773438 C 7.136719 21.941406 7.195312 22.082031 7.3125 22.203125 C 7.433594 22.320312 7.574219 22.378906 7.742188 22.378906 L 22.257812 22.378906 C 22.425781 22.378906 22.566406 22.320312 22.6875 22.203125 C 22.804688 22.082031 22.863281 21.941406 22.863281 21.773438 C 22.863281 21.257812 22.8125 20.746094 22.710938 20.242188 C 22.609375 19.734375 22.460938 19.242188 22.261719 18.765625 C 22.0625 18.289062 21.820312 17.835938 21.535156 17.40625 C 21.246094 16.980469 20.921875 16.582031 20.558594 16.21875 C 20.191406 15.851562 19.796875 15.527344 19.367188 15.238281 C 18.9375 14.953125 18.484375 14.710938 18.007812 14.511719 C 17.53125 14.316406 17.039062 14.164062 16.535156 14.0625 C 16.027344 13.960938 15.515625 13.910156 15 13.910156 Z M 15 13.910156 " fill-opacity="1" fill-rule="nonzero"/><path fill="#a1c1d1" d="M 19.234375 8.46875 C 19.234375 8.746094 19.207031 9.019531 19.152344 9.292969 C 19.097656 9.566406 19.019531 9.832031 18.910156 10.089844 C 18.804688 10.34375 18.675781 10.589844 18.519531 10.820312 C 18.367188 11.050781 18.191406 11.265625 17.992188 11.460938 C 17.796875 11.65625 17.582031 11.832031 17.351562 11.988281 C 17.121094 12.140625 16.878906 12.273438 16.621094 12.378906 C 16.363281 12.484375 16.097656 12.566406 15.824219 12.621094 C 15.554688 12.675781 15.277344 12.703125 15 12.703125 C 14.722656 12.703125 14.445312 12.675781 14.175781 12.621094 C 13.902344 12.566406 13.636719 12.484375 13.378906 12.378906 C 13.121094 12.273438 12.878906 12.140625 12.648438 11.988281 C 12.417969 11.832031 12.203125 11.65625 12.007812 11.460938 C 11.808594 11.265625 11.632812 11.050781 11.480469 10.820312 C 11.324219 10.589844 11.195312 10.34375 11.089844 10.089844 C 10.980469 9.832031 10.902344 9.566406 10.847656 9.292969 C 10.792969 9.019531 10.765625 8.746094 10.765625 8.46875 C 10.765625 8.191406 10.792969 7.914062 10.847656 7.640625 C 10.902344 7.367188 10.980469 7.105469 11.089844 6.847656 C 11.195312 6.589844 11.324219 6.347656 11.480469 6.117188 C 11.632812 5.882812 11.808594 5.671875 12.007812 5.472656 C 12.203125 5.277344 12.417969 5.101562 12.648438 4.949219 C 12.878906 4.792969 13.121094 4.664062 13.378906 4.554688 C 13.636719 4.449219 13.902344 4.371094 14.175781 4.316406 C 14.445312 4.261719 14.722656 4.234375 15 4.234375 C 15.277344 4.234375 15.554688 4.261719 15.824219 4.316406 C 16.097656 4.371094 16.363281 4.449219 16.621094 4.554688 C 16.878906 4.664062 17.121094 4.792969 17.351562 4.949219 C 17.582031 5.101562 17.796875 5.277344 17.992188 5.472656 C 18.191406 5.671875 18.367188 5.882812 18.519531 6.117188 C 18.675781 6.347656 18.804688 6.589844 18.910156 6.847656 C 19.019531 7.105469 19.097656 7.367188 19.152344 7.640625 C 19.207031 7.914062 19.234375 8.191406 19.234375 8.46875 Z M 19.234375 8.46875 " fill-opacity="1" fill-rule="nonzero"/></svg>