<svg xmlns="http://www.w3.org/2000/svg" xmlns:xlink="http://www.w3.org/1999/xlink" width="40" zoomAndPan="magnify" viewBox="0 0 30 30.000001" height="40" preserveAspectRatio="xMidYMid meet" version="1.0"><defs><clipPath id="52564e569a"><path d="M 0.484375 0 L 29.515625 0 L 29.515625 29 L 0.484375 29 Z M 0.484375 0 " clip-rule="nonzero"/></clipPath></defs><g clip-path="url(#52564e569a)"><path fill="#000000" d="M 28.683594 25.214844 C 29.507812 26.039062 29.507812 27.375 28.683594 28.199219 C 27.859375 29.023438 26.523438 29.023438 25.699219 28.199219 L 14.992188 17.492188 L 4.285156 28.199219 C 3.460938 29.023438 2.125 29.023438 1.300781 28.199219 C 0.476562 27.375 0.476562 26.039062 1.300781 25.214844 L 12.007812 14.507812 L 1.300781 3.800781 C 0.476562 2.976562 0.476562 1.640625 1.300781 0.816406 C 2.125 -0.0078125 3.460938 -0.0078125 4.285156 0.816406 L 14.992188 11.523438 L 25.699219 0.816406 C 26.523438 -0.0078125 27.859375 -0.0078125 28.683594 0.816406 C 29.507812 1.640625 29.507812 2.976562 28.683594 3.800781 L 17.976562 14.507812 Z M 28.683594 25.214844 " fill-opacity="1" fill-rule="nonzero"/></g></svg>