<svg xmlns="http://www.w3.org/2000/svg" xmlns:xlink="http://www.w3.org/1999/xlink" width="40" zoomAndPan="magnify" viewBox="0 0 30 30.000001" height="40" preserveAspectRatio="xMidYMid meet" version="1.0"><defs><clipPath id="c911f8fdb1"><path d="M 0.484375 3.144531 L 11 3.144531 L 11 22 L 0.484375 22 Z M 0.484375 3.144531 " clip-rule="nonzero"/></clipPath><clipPath id="867c596640"><path d="M 6.152344 6.539062 L 29.515625 6.539062 L 29.515625 19.261719 L 6.152344 19.261719 Z M 6.152344 6.539062 " clip-rule="nonzero"/></clipPath><clipPath id="13742bbf1e"><path d="M 6.808594 20.46875 L 12 20.46875 L 12 25.625 L 6.808594 25.625 Z M 6.808594 20.46875 " clip-rule="nonzero"/></clipPath><clipPath id="9583468d2c"><path d="M 24.261719 20.46875 L 29.421875 20.46875 L 29.421875 25.625 L 24.261719 25.625 Z M 24.261719 20.46875 " clip-rule="nonzero"/></clipPath></defs><g clip-path="url(#c911f8fdb1)"><path fill="#0e1624" d="M 9.546875 21.707031 C 9.53125 21.707031 9.519531 21.703125 9.507812 21.703125 C 9.1875 21.683594 8.945312 21.410156 8.964844 21.09375 L 9.128906 18.734375 L 5.886719 6.085938 C 5.722656 5.402344 5.144531 4.886719 4.445312 4.792969 L 1.023438 4.34375 C 0.707031 4.300781 0.484375 4.011719 0.527344 3.695312 C 0.570312 3.382812 0.859375 3.15625 1.179688 3.203125 L 4.601562 3.65625 C 5.769531 3.808594 6.738281 4.675781 7.015625 5.808594 L 10.277344 18.539062 C 10.292969 18.601562 10.296875 18.660156 10.292969 18.722656 L 10.125 21.167969 C 10.101562 21.472656 9.847656 21.707031 9.546875 21.707031 " fill-opacity="1" fill-rule="nonzero"/></g><path fill="#0e1624" d="M 24.859375 23.664062 L 11.390625 23.664062 C 11.070312 23.664062 10.808594 23.40625 10.808594 23.089844 C 10.808594 22.773438 11.070312 22.515625 11.390625 22.515625 L 24.859375 22.515625 C 25.179688 22.515625 25.4375 22.773438 25.4375 23.089844 C 25.4375 23.40625 25.179688 23.664062 24.859375 23.664062 " fill-opacity="1" fill-rule="nonzero"/><g clip-path="url(#867c596640)"><path fill="#0e1624" d="M 25.984375 19.253906 L 9.714844 19.253906 C 9.449219 19.253906 9.21875 19.078125 9.152344 18.824219 L 6.195312 7.285156 C 6.148438 7.105469 6.195312 6.910156 6.324219 6.765625 C 6.449219 6.625 6.636719 6.554688 6.828125 6.574219 L 11.171875 7.082031 C 11.492188 7.121094 11.71875 7.40625 11.683594 7.71875 C 11.644531 8.035156 11.355469 8.257812 11.039062 8.222656 L 7.527344 7.8125 L 10.164062 18.109375 L 25.984375 18.109375 C 26.46875 18.109375 26.898438 17.765625 27.003906 17.296875 L 28.328125 11.390625 C 28.394531 11.101562 28.335938 10.808594 28.160156 10.570312 C 27.988281 10.328125 27.730469 10.175781 27.433594 10.140625 L 26.769531 10.0625 C 26.453125 10.027344 26.222656 9.738281 26.261719 9.425781 C 26.300781 9.109375 26.582031 8.890625 26.90625 8.921875 L 27.570312 9 C 28.1875 9.074219 28.746094 9.402344 29.109375 9.90625 C 29.46875 10.40625 29.597656 11.039062 29.460938 11.640625 L 28.136719 17.546875 C 27.910156 18.554688 27.027344 19.253906 25.984375 19.253906 " fill-opacity="1" fill-rule="nonzero"/></g><g clip-path="url(#13742bbf1e)"><path fill="#0e1624" d="M 9.410156 21.707031 C 8.640625 21.707031 8.011719 22.328125 8.011719 23.089844 C 8.011719 23.855469 8.640625 24.476562 9.410156 24.476562 C 10.183594 24.476562 10.808594 23.855469 10.808594 23.089844 C 10.808594 22.328125 10.183594 21.707031 9.410156 21.707031 Z M 9.410156 25.625 C 8 25.625 6.851562 24.488281 6.851562 23.089844 C 6.851562 21.691406 8 20.558594 9.410156 20.558594 C 10.820312 20.558594 11.96875 21.691406 11.96875 23.089844 C 11.96875 24.488281 10.820312 25.625 9.410156 25.625 " fill-opacity="1" fill-rule="nonzero"/></g><g clip-path="url(#9583468d2c)"><path fill="#0e1624" d="M 26.839844 21.707031 C 26.066406 21.707031 25.4375 22.328125 25.4375 23.089844 C 25.4375 23.855469 26.066406 24.476562 26.839844 24.476562 C 27.609375 24.476562 28.238281 23.855469 28.238281 23.089844 C 28.238281 22.328125 27.609375 21.707031 26.839844 21.707031 Z M 26.839844 25.625 C 25.425781 25.625 24.277344 24.488281 24.277344 23.089844 C 24.277344 21.691406 25.425781 20.558594 26.839844 20.558594 C 28.25 20.558594 29.398438 21.691406 29.398438 23.089844 C 29.398438 24.488281 28.25 25.625 26.839844 25.625 " fill-opacity="1" fill-rule="nonzero"/></g><path fill="#0e1624" d="M 14.300781 9.457031 C 14.097656 9.457031 13.898438 9.53125 13.742188 9.683594 C 13.59375 9.832031 13.511719 10.027344 13.511719 10.234375 C 13.511719 10.441406 13.59375 10.636719 13.742188 10.785156 L 17.441406 14.445312 C 17.511719 14.511719 17.625 14.511719 17.691406 14.445312 L 23.621094 8.578125 C 23.929688 8.273438 23.929688 7.78125 23.621094 7.476562 C 23.324219 7.183594 22.808594 7.183594 22.511719 7.476562 L 17.976562 11.960938 C 17.75 12.1875 17.382812 12.1875 17.15625 11.960938 L 14.855469 9.683594 C 14.703125 9.53125 14.5 9.457031 14.300781 9.457031 Z M 17.566406 15.644531 C 17.210938 15.644531 16.875 15.507812 16.621094 15.257812 L 12.921875 11.597656 C 12.554688 11.234375 12.351562 10.75 12.351562 10.234375 C 12.351562 9.71875 12.554688 9.234375 12.921875 8.871094 C 13.683594 8.121094 14.917969 8.121094 15.675781 8.871094 L 17.566406 10.742188 L 21.691406 6.664062 C 22.058594 6.300781 22.546875 6.101562 23.066406 6.101562 C 23.585938 6.101562 24.074219 6.300781 24.441406 6.664062 C 24.441406 6.664062 24.441406 6.664062 24.445312 6.664062 C 25.203125 7.417969 25.203125 8.640625 24.441406 9.390625 L 18.511719 15.257812 C 18.261719 15.507812 17.925781 15.644531 17.566406 15.644531 " fill-opacity="1" fill-rule="nonzero"/></svg>