<svg xmlns="http://www.w3.org/2000/svg" xmlns:xlink="http://www.w3.org/1999/xlink" width="40" zoomAndPan="magnify" viewBox="0 0 30 30.000001" height="40" preserveAspectRatio="xMidYMid meet" version="1.0"><defs><clipPath id="f20a254586"><path d="M 1 0.21875 L 29 0.21875 L 29 28 L 1 28 Z M 1 0.21875 " clip-rule="nonzero"/></clipPath></defs><g clip-path="url(#f20a254586)"><path fill="#ffffff" d="M 15.15625 27.597656 C 7.664062 27.597656 1.570312 21.503906 1.570312 14.015625 C 1.570312 6.527344 7.664062 0.433594 15.15625 0.433594 C 22.644531 0.433594 28.738281 6.527344 28.738281 14.015625 C 28.738281 21.507812 22.644531 27.597656 15.15625 27.597656 Z M 15.15625 2.585938 C 8.855469 2.585938 3.726562 7.710938 3.726562 14.011719 C 3.730469 14.636719 3.78125 15.253906 3.882812 15.867188 C 3.984375 16.476562 4.132812 17.078125 4.335938 17.667969 C 4.535156 18.257812 4.78125 18.824219 5.070312 19.375 C 5.363281 19.921875 5.699219 20.445312 6.074219 20.9375 C 6.453125 21.429688 6.867188 21.890625 7.320312 22.316406 C 7.773438 22.746094 8.253906 23.132812 8.769531 23.480469 C 9.285156 23.828125 9.824219 24.128906 10.390625 24.390625 C 10.957031 24.648438 11.539062 24.863281 12.136719 25.027344 L 12.40625 25.101562 L 12.40625 24.824219 C 12.429688 23.214844 12.441406 22.367188 12.4375 22.242188 L 12.4375 22.121094 L 12.285156 22.027344 L 12.222656 22.027344 C 12.1875 22.03125 12.148438 22.035156 12.113281 22.046875 C 11.746094 22.128906 11.371094 22.171875 10.992188 22.171875 C 9.898438 22.171875 9.113281 21.789062 8.65625 21.035156 C 8.621094 20.980469 8.574219 20.871094 8.519531 20.742188 C 8.324219 20.289062 7.996094 19.523438 7.351562 19.042969 C 7.332031 19.027344 7.308594 19.011719 7.285156 19 C 6.996094 18.832031 6.871094 18.71875 6.816406 18.652344 C 6.898438 18.636719 6.980469 18.625 7.0625 18.625 C 7.414062 18.625 7.957031 18.78125 8.554688 19.519531 C 8.582031 19.558594 8.617188 19.609375 8.65625 19.671875 C 8.933594 20.109375 9.515625 21.019531 10.824219 21.019531 C 11.363281 21.003906 11.882812 20.886719 12.375 20.667969 L 12.476562 20.628906 L 12.507812 20.503906 C 12.578125 20.238281 12.691406 19.792969 13.34375 19.660156 L 14.660156 19.390625 L 13.324219 19.234375 C 9.566406 18.796875 7.382812 16.992188 6.832031 13.863281 C 6.503906 11.828125 7.644531 10.796875 8.558594 9.96875 L 8.847656 9.703125 L 8.726562 9.546875 C 8.648438 9.433594 8.167969 8.035156 8.824219 6.472656 C 8.871094 6.472656 8.921875 6.464844 8.972656 6.464844 C 9.765625 6.464844 11.011719 6.984375 12.144531 7.777344 L 12.234375 7.839844 L 12.339844 7.804688 C 13.097656 7.539062 14.144531 7.390625 15.289062 7.390625 C 16.46875 7.390625 17.644531 7.554688 18.285156 7.800781 L 18.402344 7.847656 L 18.5 7.769531 C 18.996094 7.367188 20.695312 6.457031 21.632812 6.457031 C 21.675781 6.457031 21.710938 6.457031 21.75 6.460938 C 21.855469 7.53125 21.886719 8.601562 21.847656 9.675781 L 21.847656 9.769531 L 21.914062 9.835938 C 23.101562 11.027344 23.671875 12.453125 23.570312 13.960938 C 23.5 15.421875 22.996094 16.613281 22.070312 17.511719 C 21.0625 18.480469 19.609375 19.050781 17.746094 19.207031 L 17.136719 19.257812 L 17.644531 19.605469 C 18.523438 20.195312 18.59375 21.101562 18.628906 21.535156 L 18.632812 21.582031 C 18.640625 22.1875 18.746094 23.699219 18.804688 24.546875 L 18.828125 24.832031 L 19.097656 24.734375 C 20.191406 24.328125 21.203125 23.769531 22.125 23.054688 C 23.050781 22.339844 23.847656 21.503906 24.515625 20.546875 C 25.1875 19.589844 25.699219 18.554688 26.050781 17.441406 C 26.402344 16.328125 26.578125 15.183594 26.582031 14.015625 C 26.582031 7.714844 21.457031 2.589844 15.15625 2.589844 Z M 15.15625 2.585938 " fill-opacity="1" fill-rule="nonzero"/><path fill="#ffffff" d="M 15.15625 0.648438 C 15.667969 0.648438 16.175781 0.679688 16.683594 0.738281 C 17.191406 0.792969 17.691406 0.882812 18.191406 1 C 18.6875 1.113281 19.175781 1.257812 19.660156 1.429688 C 20.140625 1.601562 20.609375 1.800781 21.066406 2.027344 C 21.527344 2.253906 21.96875 2.503906 22.398438 2.78125 C 22.828125 3.058594 23.242188 3.359375 23.636719 3.683594 C 24.03125 4.007812 24.40625 4.351562 24.761719 4.71875 C 25.117188 5.085938 25.449219 5.472656 25.761719 5.878906 C 26.070312 6.285156 26.359375 6.707031 26.621094 7.144531 C 26.882812 7.582031 27.121094 8.035156 27.332031 8.5 C 27.542969 8.964844 27.726562 9.441406 27.882812 9.925781 C 28.039062 10.414062 28.167969 10.90625 28.265625 11.410156 C 28.367188 11.910156 28.4375 12.414062 28.480469 12.925781 C 28.519531 13.433594 28.53125 13.941406 28.515625 14.453125 C 28.5 14.964844 28.453125 15.472656 28.378906 15.976562 C 28.304688 16.484375 28.199219 16.984375 28.066406 17.476562 C 27.9375 17.96875 27.777344 18.453125 27.589844 18.929688 C 27.398438 19.40625 27.1875 19.867188 26.945312 20.316406 C 26.703125 20.769531 26.4375 21.203125 26.148438 21.625 C 25.855469 22.042969 25.542969 22.445312 25.207031 22.832031 C 24.871094 23.214844 24.511719 23.578125 24.132812 23.921875 C 23.753906 24.265625 23.359375 24.585938 22.941406 24.882812 C 22.527344 25.179688 22.097656 25.453125 21.648438 25.703125 C 21.203125 25.949219 20.742188 26.171875 20.269531 26.367188 C 19.800781 26.5625 19.316406 26.730469 18.828125 26.871094 C 18.335938 27.011719 17.835938 27.121094 17.332031 27.207031 C 16.828125 27.289062 16.320312 27.34375 15.8125 27.367188 C 15.300781 27.394531 14.792969 27.390625 14.28125 27.355469 C 13.773438 27.324219 13.265625 27.261719 12.761719 27.167969 C 12.261719 27.078125 11.765625 26.957031 11.273438 26.808594 C 10.785156 26.660156 10.308594 26.484375 9.839844 26.28125 C 9.371094 26.078125 8.914062 25.847656 8.472656 25.59375 C 8.027344 25.339844 7.601562 25.058594 7.191406 24.753906 C 6.78125 24.449219 6.390625 24.121094 6.015625 23.773438 C 5.644531 23.425781 5.292969 23.054688 4.960938 22.664062 C 4.632812 22.277344 4.324219 21.867188 4.039062 21.445312 C 3.757812 21.019531 3.5 20.578125 3.265625 20.125 C 3.03125 19.671875 2.824219 19.203125 2.644531 18.726562 C 2.464844 18.246094 2.3125 17.761719 2.1875 17.265625 C 2.0625 16.769531 1.96875 16.269531 1.902344 15.761719 C 1.835938 15.253906 1.796875 14.746094 1.789062 14.234375 C 1.78125 13.726562 1.800781 13.214844 1.851562 12.707031 C 1.902344 12.199219 1.980469 11.695312 2.089844 11.195312 C 2.195312 10.695312 2.332031 10.203125 2.496094 9.71875 C 2.660156 9.234375 2.851562 8.761719 3.070312 8.300781 C 3.289062 7.839844 3.535156 7.390625 3.804688 6.957031 C 4.074219 6.523438 4.367188 6.105469 4.683594 5.707031 C 5.003906 5.304688 5.339844 4.925781 5.703125 4.566406 C 6.953125 3.308594 8.398438 2.339844 10.035156 1.660156 C 11.675781 0.980469 13.382812 0.644531 15.15625 0.648438 M 12.617188 25.382812 L 12.625 24.824219 C 12.652344 23.1875 12.660156 22.367188 12.660156 22.238281 L 12.660156 22 L 12.457031 21.875 L 12.351562 21.8125 L 12.230469 21.8125 C 12.179688 21.816406 12.125 21.820312 12.074219 21.835938 C 11.722656 21.914062 11.363281 21.957031 11 21.957031 C 9.988281 21.957031 9.261719 21.613281 8.847656 20.929688 C 8.820312 20.882812 8.769531 20.769531 8.722656 20.660156 C 8.535156 20.21875 8.230469 19.507812 7.644531 18.996094 C 7.9375 19.164062 8.183594 19.382812 8.390625 19.648438 C 8.414062 19.683594 8.445312 19.730469 8.476562 19.785156 C 8.777344 20.253906 9.402344 21.234375 10.828125 21.234375 C 11.394531 21.21875 11.941406 21.097656 12.460938 20.867188 L 12.660156 20.785156 L 12.714844 20.578125 L 12.71875 20.558594 C 12.800781 20.25 12.910156 19.96875 13.386719 19.867188 L 16.023438 19.328125 L 13.351562 19.015625 C 11.535156 18.804688 10.085938 18.265625 9.039062 17.417969 C 7.992188 16.566406 7.3125 15.347656 7.042969 13.824219 C 6.734375 11.90625 7.777344 10.960938 8.699219 10.125 L 8.84375 9.992188 L 9.140625 9.722656 L 8.902344 9.421875 C 8.816406 9.25 8.453125 8.042969 8.972656 6.675781 C 9.714844 6.675781 10.9375 7.191406 12.019531 7.949219 L 12.203125 8.078125 L 12.410156 8.003906 C 13.144531 7.746094 14.167969 7.601562 15.289062 7.601562 C 16.441406 7.601562 17.589844 7.757812 18.207031 8 L 18.441406 8.085938 L 18.632812 7.929688 C 19.152344 7.507812 20.703125 6.714844 21.550781 6.667969 C 21.640625 7.660156 21.667969 8.65625 21.632812 9.65625 L 21.621094 9.847656 L 21.757812 9.980469 C 22.898438 11.125 23.449219 12.496094 23.347656 13.9375 L 23.347656 13.949219 C 23.28125 15.347656 22.800781 16.492188 21.914062 17.347656 C 20.945312 18.28125 19.539062 18.832031 17.726562 18.984375 L 16.503906 19.089844 L 17.519531 19.773438 C 18.3125 20.304688 18.375 21.109375 18.410156 21.542969 L 18.410156 21.582031 C 18.417969 22.199219 18.523438 23.707031 18.582031 24.554688 L 18.625 25.125 L 19.160156 24.925781 C 20.277344 24.515625 21.308594 23.945312 22.25 23.21875 C 23.191406 22.492188 24.003906 21.640625 24.6875 20.667969 C 25.371094 19.691406 25.890625 18.636719 26.25 17.503906 C 26.609375 16.367188 26.792969 15.207031 26.796875 14.015625 C 26.796875 7.597656 21.574219 2.375 15.15625 2.375 C 8.734375 2.375 3.511719 7.597656 3.511719 14.015625 C 3.511719 14.648438 3.566406 15.277344 3.671875 15.902344 C 3.773438 16.527344 3.925781 17.140625 4.132812 17.738281 C 4.335938 18.339844 4.585938 18.917969 4.882812 19.476562 C 5.179688 20.035156 5.523438 20.566406 5.90625 21.070312 C 6.289062 21.574219 6.714844 22.042969 7.175781 22.476562 C 7.636719 22.910156 8.128906 23.304688 8.652344 23.660156 C 9.179688 24.011719 9.726562 24.324219 10.304688 24.585938 C 10.878906 24.851562 11.472656 25.066406 12.082031 25.234375 L 12.617188 25.382812 M 15.15625 0.21875 C 14.25 0.21875 13.351562 0.304688 12.464844 0.484375 C 11.574219 0.660156 10.710938 0.921875 9.875 1.269531 C 9.039062 1.613281 8.242188 2.039062 7.488281 2.542969 C 6.734375 3.046875 6.039062 3.617188 5.398438 4.257812 C 4.757812 4.898438 4.183594 5.597656 3.683594 6.351562 C 3.179688 7.105469 2.753906 7.898438 2.40625 8.734375 C 2.058594 9.574219 1.796875 10.4375 1.621094 11.324219 C 1.445312 12.214844 1.355469 13.109375 1.355469 14.015625 C 1.355469 14.921875 1.445312 15.820312 1.621094 16.707031 C 1.796875 17.597656 2.058594 18.460938 2.40625 19.296875 C 2.753906 20.132812 3.179688 20.929688 3.683594 21.683594 C 4.183594 22.4375 4.757812 23.132812 5.398438 23.773438 C 6.039062 24.414062 6.734375 24.988281 7.488281 25.492188 C 8.242188 25.992188 9.039062 26.417969 9.875 26.765625 C 10.710938 27.113281 11.574219 27.375 12.464844 27.550781 C 13.351562 27.726562 14.25 27.816406 15.15625 27.816406 C 16.0625 27.816406 16.957031 27.726562 17.847656 27.550781 C 18.734375 27.375 19.597656 27.113281 20.4375 26.765625 C 21.273438 26.417969 22.066406 25.992188 22.820312 25.492188 C 23.574219 24.988281 24.273438 24.414062 24.914062 23.773438 C 25.554688 23.132812 26.125 22.4375 26.628906 21.683594 C 27.132812 20.929688 27.558594 20.132812 27.902344 19.296875 C 28.25 18.460938 28.511719 17.597656 28.6875 16.707031 C 28.867188 15.820312 28.953125 14.921875 28.953125 14.015625 C 28.953125 13.109375 28.867188 12.214844 28.6875 11.324219 C 28.511719 10.4375 28.25 9.574219 27.902344 8.734375 C 27.558594 7.898438 27.132812 7.105469 26.628906 6.351562 C 26.125 5.597656 25.554688 4.898438 24.914062 4.257812 C 24.273438 3.617188 23.574219 3.046875 22.820312 2.542969 C 22.066406 2.039062 21.273438 1.613281 20.4375 1.269531 C 19.597656 0.921875 18.734375 0.660156 17.847656 0.484375 C 16.957031 0.304688 16.0625 0.21875 15.15625 0.21875 Z M 12.195312 24.820312 C 11.769531 24.703125 11.351562 24.5625 10.945312 24.394531 C 10.535156 24.230469 10.136719 24.039062 9.75 23.828125 C 9.363281 23.613281 8.988281 23.378906 8.628906 23.125 C 8.269531 22.867188 7.929688 22.589844 7.601562 22.292969 C 7.277344 21.996094 6.96875 21.679688 6.679688 21.34375 C 6.390625 21.011719 6.121094 20.664062 5.875 20.296875 C 5.625 19.929688 5.402344 19.550781 5.199219 19.160156 C 4.996094 18.769531 4.816406 18.367188 4.660156 17.953125 C 4.503906 17.539062 4.375 17.117188 4.269531 16.691406 C 4.164062 16.261719 4.082031 15.828125 4.027344 15.390625 C 3.972656 14.953125 3.945312 14.511719 3.941406 14.070312 C 3.9375 13.628906 3.960938 13.1875 4.011719 12.75 C 4.0625 12.3125 4.136719 11.875 4.238281 11.445312 C 4.335938 11.015625 4.464844 10.59375 4.613281 10.179688 C 4.765625 9.765625 4.9375 9.359375 5.136719 8.964844 C 5.335938 8.570312 5.558594 8.191406 5.800781 7.820312 C 6.042969 7.453125 6.308594 7.101562 6.59375 6.761719 C 6.878906 6.425781 7.183594 6.105469 7.503906 5.804688 C 7.828125 5.503906 8.167969 5.222656 8.523438 4.960938 C 8.878906 4.703125 9.25 4.460938 9.632812 4.246094 C 10.019531 4.027344 10.414062 3.832031 10.820312 3.664062 C 11.230469 3.492188 11.644531 3.347656 12.070312 3.226562 C 12.492188 3.101562 12.921875 3.007812 13.359375 2.9375 C 13.796875 2.867188 14.234375 2.820312 14.675781 2.800781 C 15.117188 2.785156 15.554688 2.789062 15.996094 2.824219 C 16.4375 2.855469 16.875 2.917969 17.308594 3 C 17.742188 3.085938 18.167969 3.195312 18.585938 3.332031 C 19.007812 3.464844 19.417969 3.625 19.820312 3.808594 C 20.222656 3.992188 20.609375 4.199219 20.988281 4.429688 C 21.363281 4.660156 21.726562 4.910156 22.074219 5.183594 C 22.421875 5.457031 22.75 5.75 23.066406 6.058594 C 23.378906 6.371094 23.671875 6.699219 23.945312 7.046875 C 24.21875 7.394531 24.472656 7.753906 24.703125 8.128906 C 24.933594 8.503906 25.140625 8.894531 25.328125 9.292969 C 25.511719 9.695312 25.675781 10.105469 25.8125 10.527344 C 25.949219 10.945312 26.058594 11.371094 26.148438 11.804688 C 26.234375 12.238281 26.292969 12.675781 26.328125 13.113281 C 26.363281 13.554688 26.375 13.996094 26.355469 14.4375 C 26.339844 14.878906 26.296875 15.316406 26.226562 15.75 C 26.160156 16.1875 26.066406 16.617188 25.945312 17.042969 C 25.824219 17.46875 25.679688 17.886719 25.511719 18.292969 C 25.34375 18.699219 25.152344 19.097656 24.933594 19.484375 C 24.71875 19.867188 24.480469 20.238281 24.222656 20.597656 C 23.960938 20.953125 23.683594 21.292969 23.382812 21.617188 C 23.082031 21.941406 22.765625 22.246094 22.429688 22.535156 C 22.09375 22.820312 21.742188 23.085938 21.375 23.332031 C 21.007812 23.578125 20.628906 23.796875 20.234375 24 C 19.839844 24.199219 19.4375 24.375 19.023438 24.527344 C 18.941406 23.449219 18.851562 22.113281 18.847656 21.570312 C 18.8125 21.152344 18.769531 20.097656 17.765625 19.421875 C 21.75 19.085938 23.648438 16.882812 23.78125 13.972656 C 23.898438 12.316406 23.238281 10.859375 22.066406 9.683594 C 22.109375 8.546875 22.070312 7.410156 21.949219 6.277344 C 21.847656 6.25 21.742188 6.238281 21.636719 6.238281 C 20.636719 6.238281 18.894531 7.175781 18.367188 7.597656 C 17.707031 7.339844 16.527344 7.175781 15.292969 7.175781 C 14.230469 7.175781 13.125 7.300781 12.277344 7.597656 C 11.117188 6.785156 9.820312 6.25 8.980469 6.25 C 8.878906 6.246094 8.78125 6.257812 8.683594 6.277344 C 7.9375 7.929688 8.417969 9.492188 8.5625 9.679688 C 7.601562 10.554688 6.261719 11.636719 6.625 13.898438 C 7.207031 17.21875 9.542969 19.007812 13.304688 19.445312 C 12.503906 19.613281 12.367188 20.210938 12.300781 20.46875 C 11.71875 20.707031 11.234375 20.800781 10.832031 20.800781 C 9.464844 20.800781 8.980469 19.722656 8.734375 19.386719 C 8.074219 18.570312 7.457031 18.410156 7.070312 18.410156 C 6.933594 18.40625 6.796875 18.429688 6.664062 18.476562 C 6.605469 18.503906 6.574219 18.554688 6.570312 18.621094 C 6.625 18.902344 7.203125 19.1875 7.230469 19.214844 C 8.011719 19.796875 8.300781 20.851562 8.480469 21.148438 C 9.097656 22.164062 10.164062 22.386719 11 22.386719 C 11.417969 22.382812 11.828125 22.335938 12.234375 22.242188 C 12.234375 22.402344 12.214844 23.761719 12.199219 24.820312 Z M 12.195312 24.820312 " fill-opacity="1" fill-rule="nonzero"/></g></svg>