<svg xmlns="http://www.w3.org/2000/svg" xmlns:xlink="http://www.w3.org/1999/xlink" width="150" zoomAndPan="magnify" viewBox="0 0 112.5 56.249996" height="75" preserveAspectRatio="xMidYMid meet" version="1.0"><defs><g/><clipPath id="8eca3c0e68"><path d="M 8 24 L 45 24 L 45 49.816406 L 8 49.816406 Z M 8 24 " clip-rule="nonzero"/></clipPath><clipPath id="f357183842"><path d="M 2.507812 4 L 50.617188 4 L 50.617188 26 L 2.507812 26 Z M 2.507812 4 " clip-rule="nonzero"/></clipPath><clipPath id="816eee687e"><path d="M 18.402344 14.710938 L 34.683594 14.710938 L 34.683594 20 L 18.402344 20 Z M 18.402344 14.710938 " clip-rule="nonzero"/></clipPath></defs><g clip-path="url(#8eca3c0e68)"><path fill="#ffffff" d="M 41.910156 46.625 C 41.910156 47.238281 41.414062 47.726562 40.8125 47.726562 L 33.078125 47.726562 C 32.464844 47.726562 31.976562 47.226562 31.976562 46.625 L 31.976562 35.160156 C 31.976562 33.332031 30.492188 31.847656 28.664062 31.847656 L 24.242188 31.847656 C 22.414062 31.847656 20.933594 33.332031 20.933594 35.160156 L 20.933594 46.625 C 20.933594 47.238281 20.433594 47.726562 19.832031 47.726562 L 12.070312 47.726562 C 11.457031 47.726562 10.96875 47.226562 10.96875 46.625 L 10.96875 24.527344 L 8.757812 24.527344 L 8.757812 46.625 C 8.757812 48.453125 10.242188 49.9375 12.070312 49.9375 L 19.800781 49.9375 C 21.628906 49.9375 23.113281 48.453125 23.113281 46.625 L 23.113281 35.160156 C 23.113281 34.546875 23.613281 34.058594 24.214844 34.058594 L 28.636719 34.058594 C 29.25 34.058594 29.738281 34.554688 29.738281 35.160156 L 29.738281 46.625 C 29.738281 48.453125 31.21875 49.9375 33.046875 49.9375 L 40.78125 49.9375 C 42.609375 49.9375 44.09375 48.453125 44.09375 46.625 L 44.09375 24.527344 L 41.882812 24.527344 Z M 41.910156 46.625 " fill-opacity="1" fill-rule="nonzero"/></g><g clip-path="url(#f357183842)"><path fill="#ffffff" d="M 28.589844 5.019531 C 27.335938 3.949219 25.527344 3.949219 24.273438 5.019531 L 2.507812 23.683594 L 3.945312 25.359375 L 25.71875 6.695312 C 26.136719 6.339844 26.742188 6.339844 27.152344 6.695312 L 48.925781 25.359375 L 50.363281 23.683594 Z M 28.589844 5.019531 " fill-opacity="1" fill-rule="nonzero"/></g><g clip-path="url(#816eee687e)"><path fill="#ffffff" d="M 34.207031 18.144531 C 33.707031 17.609375 33.164062 17.132812 32.566406 16.714844 C 31.972656 16.292969 31.339844 15.9375 30.671875 15.648438 C 30.003906 15.355469 29.3125 15.136719 28.597656 14.988281 C 27.882812 14.839844 27.164062 14.765625 26.433594 14.765625 C 25.703125 14.765625 24.984375 14.839844 24.269531 14.988281 C 23.554688 15.136719 22.863281 15.355469 22.195312 15.648438 C 21.527344 15.9375 20.894531 16.292969 20.300781 16.714844 C 19.707031 17.132812 19.160156 17.609375 18.660156 18.144531 C 18.53125 18.28125 18.464844 18.449219 18.472656 18.640625 C 18.476562 18.832031 18.546875 18.992188 18.6875 19.125 C 18.824219 19.253906 18.988281 19.320312 19.179688 19.3125 C 19.371094 19.308594 19.535156 19.238281 19.664062 19.101562 C 20.097656 18.632812 20.574219 18.21875 21.09375 17.851562 C 21.609375 17.484375 22.160156 17.175781 22.742188 16.921875 C 23.324219 16.667969 23.925781 16.476562 24.546875 16.347656 C 25.171875 16.214844 25.800781 16.152344 26.433594 16.152344 C 27.070312 16.152344 27.699219 16.214844 28.320312 16.347656 C 28.941406 16.476562 29.542969 16.667969 30.125 16.921875 C 30.707031 17.175781 31.257812 17.484375 31.777344 17.851562 C 32.292969 18.21875 32.769531 18.632812 33.203125 19.101562 C 33.332031 19.238281 33.496094 19.308594 33.6875 19.316406 C 33.878906 19.320312 34.042969 19.257812 34.179688 19.125 C 34.320312 18.992188 34.390625 18.832031 34.398438 18.640625 C 34.402344 18.449219 34.335938 18.28125 34.207031 18.144531 Z M 34.207031 18.144531 " fill-opacity="1" fill-rule="nonzero"/></g><path fill="#ffffff" d="M 26.433594 17.402344 C 25.269531 17.40625 24.15625 17.636719 23.089844 18.101562 C 22.023438 18.5625 21.089844 19.21875 20.296875 20.070312 C 20.164062 20.207031 20.101562 20.371094 20.105469 20.5625 C 20.109375 20.753906 20.183594 20.917969 20.320312 21.046875 C 20.460938 21.179688 20.625 21.242188 20.816406 21.238281 C 21.007812 21.234375 21.167969 21.164062 21.300781 21.023438 C 21.628906 20.671875 21.988281 20.355469 22.382812 20.078125 C 22.773438 19.796875 23.191406 19.5625 23.632812 19.371094 C 24.074219 19.175781 24.53125 19.03125 25.003906 18.933594 C 25.476562 18.835938 25.953125 18.785156 26.433594 18.785156 C 26.914062 18.785156 27.390625 18.835938 27.863281 18.933594 C 28.335938 19.03125 28.792969 19.175781 29.234375 19.371094 C 29.675781 19.5625 30.09375 19.796875 30.488281 20.078125 C 30.878906 20.355469 31.238281 20.671875 31.566406 21.023438 C 31.699219 21.164062 31.863281 21.234375 32.050781 21.238281 C 32.242188 21.246094 32.410156 21.179688 32.546875 21.046875 C 32.6875 20.917969 32.757812 20.753906 32.761719 20.5625 C 32.765625 20.371094 32.703125 20.207031 32.570312 20.070312 C 31.777344 19.21875 30.847656 18.5625 29.777344 18.101562 C 28.710938 17.636719 27.597656 17.40625 26.433594 17.402344 Z M 26.433594 17.402344 " fill-opacity="1" fill-rule="nonzero"/><path fill="#ffffff" d="M 26.433594 20.03125 C 25.585938 20.03125 24.773438 20.203125 23.996094 20.539062 C 23.21875 20.875 22.539062 21.355469 21.960938 21.972656 C 21.828125 22.113281 21.765625 22.277344 21.769531 22.472656 C 21.773438 22.664062 21.847656 22.824219 21.988281 22.957031 C 22.125 23.089844 22.292969 23.152344 22.484375 23.148438 C 22.675781 23.144531 22.839844 23.070312 22.972656 22.933594 C 23.195312 22.695312 23.4375 22.480469 23.703125 22.296875 C 23.96875 22.109375 24.25 21.949219 24.546875 21.820312 C 24.84375 21.691406 25.152344 21.59375 25.46875 21.527344 C 25.789062 21.460938 26.109375 21.429688 26.433594 21.429688 C 26.757812 21.429688 27.078125 21.460938 27.398438 21.527344 C 27.714844 21.59375 28.023438 21.691406 28.320312 21.820312 C 28.617188 21.949219 28.902344 22.109375 29.164062 22.296875 C 29.429688 22.480469 29.675781 22.695312 29.894531 22.933594 C 30.027344 23.070312 30.1875 23.140625 30.378906 23.148438 C 30.570312 23.152344 30.738281 23.089844 30.875 22.957031 C 31.015625 22.824219 31.085938 22.664062 31.089844 22.472656 C 31.09375 22.28125 31.03125 22.113281 30.898438 21.976562 C 30.320312 21.359375 29.644531 20.878906 28.867188 20.542969 C 28.09375 20.203125 27.28125 20.035156 26.433594 20.03125 Z M 26.433594 20.03125 " fill-opacity="1" fill-rule="nonzero"/><path fill="#ffffff" d="M 26.433594 22.410156 C 25.417969 22.410156 24.566406 22.78125 23.871094 23.519531 C 23.738281 23.660156 23.675781 23.824219 23.679688 24.015625 C 23.6875 24.207031 23.757812 24.367188 23.894531 24.5 C 24.035156 24.632812 24.199219 24.695312 24.390625 24.691406 C 24.582031 24.6875 24.742188 24.613281 24.875 24.476562 C 25.078125 24.257812 25.3125 24.09375 25.585938 23.972656 C 25.855469 23.855469 26.136719 23.796875 26.433594 23.796875 C 26.730469 23.796875 27.011719 23.855469 27.285156 23.972656 C 27.554688 24.09375 27.789062 24.257812 27.992188 24.476562 C 28.125 24.613281 28.285156 24.6875 28.476562 24.691406 C 28.667969 24.695312 28.832031 24.632812 28.972656 24.5 C 29.109375 24.367188 29.183594 24.207031 29.1875 24.015625 C 29.191406 23.824219 29.128906 23.660156 28.996094 23.519531 C 28.300781 22.78125 27.449219 22.410156 26.433594 22.410156 Z M 26.433594 22.410156 " fill-opacity="1" fill-rule="nonzero"/><path fill="#ffffff" d="M 27.472656 25.84375 C 27.472656 25.980469 27.445312 26.113281 27.394531 26.242188 C 27.339844 26.367188 27.265625 26.480469 27.167969 26.578125 C 27.070312 26.675781 26.957031 26.75 26.832031 26.804688 C 26.703125 26.855469 26.570312 26.882812 26.433594 26.882812 C 26.296875 26.882812 26.164062 26.855469 26.035156 26.804688 C 25.910156 26.75 25.796875 26.675781 25.699219 26.578125 C 25.601562 26.480469 25.527344 26.367188 25.472656 26.242188 C 25.421875 26.113281 25.394531 25.980469 25.394531 25.84375 C 25.394531 25.707031 25.421875 25.574219 25.472656 25.445312 C 25.527344 25.320312 25.601562 25.207031 25.699219 25.109375 C 25.796875 25.011719 25.910156 24.9375 26.035156 24.882812 C 26.164062 24.832031 26.296875 24.804688 26.433594 24.804688 C 26.570312 24.804688 26.703125 24.832031 26.832031 24.882812 C 26.957031 24.9375 27.070312 25.011719 27.167969 25.109375 C 27.265625 25.207031 27.339844 25.320312 27.394531 25.445312 C 27.445312 25.574219 27.472656 25.707031 27.472656 25.84375 Z M 27.472656 25.84375 " fill-opacity="1" fill-rule="nonzero"/><g fill="#ffffff" fill-opacity="1"><g transform="translate(49.869984, 19.150433)"><g/></g></g><g fill="#ffffff" fill-opacity="1"><g transform="translate(53.647557, 19.150433)"><g><path d="M 1.03125 0 L 1.03125 -11.859375 L 3.53125 -11.859375 L 3.53125 -6.96875 L 8.625 -6.96875 L 8.625 -11.859375 L 11.125 -11.859375 L 11.125 0 L 8.625 0 L 8.625 -4.890625 L 3.53125 -4.890625 L 3.53125 0 Z M 1.03125 0 "/></g></g></g><g fill="#ffffff" fill-opacity="1"><g transform="translate(65.800907, 19.150433)"><g><path d="M 3.515625 0.171875 C 2.671875 0.171875 1.96875 -0.046875 1.40625 -0.484375 C 0.84375 -0.929688 0.5625 -1.597656 0.5625 -2.484375 C 0.5625 -3.148438 0.71875 -3.671875 1.03125 -4.046875 C 1.34375 -4.421875 1.753906 -4.695312 2.265625 -4.875 C 2.773438 -5.050781 3.320312 -5.164062 3.90625 -5.21875 C 4.675781 -5.289062 5.226562 -5.367188 5.5625 -5.453125 C 5.894531 -5.546875 6.0625 -5.734375 6.0625 -6.015625 L 6.0625 -6.046875 C 6.0625 -6.421875 5.945312 -6.707031 5.71875 -6.90625 C 5.488281 -7.101562 5.160156 -7.203125 4.734375 -7.203125 C 4.296875 -7.203125 3.941406 -7.101562 3.671875 -6.90625 C 3.410156 -6.71875 3.238281 -6.476562 3.15625 -6.1875 L 0.875 -6.359375 C 1.050781 -7.171875 1.472656 -7.8125 2.140625 -8.28125 C 2.816406 -8.757812 3.6875 -9 4.75 -9 C 5.40625 -9 6.019531 -8.894531 6.59375 -8.6875 C 7.175781 -8.476562 7.644531 -8.148438 8 -7.703125 C 8.351562 -7.265625 8.53125 -6.695312 8.53125 -6 L 8.53125 0 L 6.1875 0 L 6.1875 -1.234375 L 6.109375 -1.234375 C 5.898438 -0.816406 5.578125 -0.476562 5.140625 -0.21875 C 4.710938 0.0390625 4.171875 0.171875 3.515625 0.171875 Z M 4.21875 -1.53125 C 4.757812 -1.53125 5.203125 -1.6875 5.546875 -2 C 5.898438 -2.320312 6.078125 -2.710938 6.078125 -3.171875 L 6.078125 -4.125 C 5.984375 -4.050781 5.832031 -3.988281 5.625 -3.9375 C 5.425781 -3.894531 5.210938 -3.851562 4.984375 -3.8125 C 4.753906 -3.78125 4.546875 -3.75 4.359375 -3.71875 C 3.929688 -3.65625 3.582031 -3.53125 3.3125 -3.34375 C 3.050781 -3.164062 2.921875 -2.90625 2.921875 -2.5625 C 2.921875 -2.21875 3.039062 -1.957031 3.28125 -1.78125 C 3.53125 -1.613281 3.84375 -1.53125 4.21875 -1.53125 Z M 4.21875 -1.53125 "/></g></g></g><g fill="#ffffff" fill-opacity="1"><g transform="translate(75.252871, 19.150433)"><g><path d="M 0.984375 3.328125 L 0.984375 -8.890625 L 3.421875 -8.890625 L 3.421875 -7.390625 L 3.53125 -7.390625 C 3.632812 -7.640625 3.789062 -7.882812 4 -8.125 C 4.207031 -8.375 4.476562 -8.582031 4.8125 -8.75 C 5.144531 -8.914062 5.554688 -9 6.046875 -9 C 6.703125 -9 7.300781 -8.828125 7.84375 -8.484375 C 8.382812 -8.148438 8.820312 -7.644531 9.15625 -6.96875 C 9.488281 -6.289062 9.65625 -5.445312 9.65625 -4.4375 C 9.65625 -3.445312 9.492188 -2.609375 9.171875 -1.921875 C 8.847656 -1.242188 8.414062 -0.726562 7.875 -0.375 C 7.332031 -0.03125 6.722656 0.140625 6.046875 0.140625 C 5.566406 0.140625 5.160156 0.0625 4.828125 -0.09375 C 4.492188 -0.25 4.222656 -0.445312 4.015625 -0.6875 C 3.804688 -0.925781 3.644531 -1.171875 3.53125 -1.421875 L 3.453125 -1.421875 L 3.453125 3.328125 Z M 3.390625 -4.4375 C 3.390625 -3.65625 3.550781 -3.019531 3.875 -2.53125 C 4.207031 -2.050781 4.671875 -1.8125 5.265625 -1.8125 C 5.867188 -1.8125 6.332031 -2.054688 6.65625 -2.546875 C 6.976562 -3.035156 7.140625 -3.664062 7.140625 -4.4375 C 7.140625 -5.21875 6.976562 -5.847656 6.65625 -6.328125 C 6.34375 -6.804688 5.878906 -7.046875 5.265625 -7.046875 C 4.671875 -7.046875 4.207031 -6.8125 3.875 -6.34375 C 3.550781 -5.875 3.390625 -5.238281 3.390625 -4.4375 Z M 3.390625 -4.4375 "/></g></g></g><g fill="#ffffff" fill-opacity="1"><g transform="translate(85.555164, 19.150433)"><g><path d="M 0.984375 3.328125 L 0.984375 -8.890625 L 3.421875 -8.890625 L 3.421875 -7.390625 L 3.53125 -7.390625 C 3.632812 -7.640625 3.789062 -7.882812 4 -8.125 C 4.207031 -8.375 4.476562 -8.582031 4.8125 -8.75 C 5.144531 -8.914062 5.554688 -9 6.046875 -9 C 6.703125 -9 7.300781 -8.828125 7.84375 -8.484375 C 8.382812 -8.148438 8.820312 -7.644531 9.15625 -6.96875 C 9.488281 -6.289062 9.65625 -5.445312 9.65625 -4.4375 C 9.65625 -3.445312 9.492188 -2.609375 9.171875 -1.921875 C 8.847656 -1.242188 8.414062 -0.726562 7.875 -0.375 C 7.332031 -0.03125 6.722656 0.140625 6.046875 0.140625 C 5.566406 0.140625 5.160156 0.0625 4.828125 -0.09375 C 4.492188 -0.25 4.222656 -0.445312 4.015625 -0.6875 C 3.804688 -0.925781 3.644531 -1.171875 3.53125 -1.421875 L 3.453125 -1.421875 L 3.453125 3.328125 Z M 3.390625 -4.4375 C 3.390625 -3.65625 3.550781 -3.019531 3.875 -2.53125 C 4.207031 -2.050781 4.671875 -1.8125 5.265625 -1.8125 C 5.867188 -1.8125 6.332031 -2.054688 6.65625 -2.546875 C 6.976562 -3.035156 7.140625 -3.664062 7.140625 -4.4375 C 7.140625 -5.21875 6.976562 -5.847656 6.65625 -6.328125 C 6.34375 -6.804688 5.878906 -7.046875 5.265625 -7.046875 C 4.671875 -7.046875 4.207031 -6.8125 3.875 -6.34375 C 3.550781 -5.875 3.390625 -5.238281 3.390625 -4.4375 Z M 3.390625 -4.4375 "/></g></g></g><g fill="#ffffff" fill-opacity="1"><g transform="translate(95.857456, 19.150433)"><g><path d="M 2.421875 3.453125 C 2.066406 3.453125 1.765625 3.421875 1.515625 3.359375 C 1.265625 3.304688 1.070312 3.25 0.9375 3.1875 L 1.5 1.28125 C 1.925781 1.40625 2.289062 1.4375 2.59375 1.375 C 2.894531 1.320312 3.128906 1.09375 3.296875 0.6875 L 3.46875 0.25 L 0.28125 -8.890625 L 2.875 -8.890625 L 4.703125 -2.359375 L 4.796875 -2.359375 L 6.65625 -8.890625 L 9.265625 -8.890625 L 5.796875 1.015625 C 5.546875 1.722656 5.144531 2.304688 4.59375 2.765625 C 4.039062 3.222656 3.316406 3.453125 2.421875 3.453125 Z M 2.421875 3.453125 "/></g></g></g><g fill="#ffffff" fill-opacity="1"><g transform="translate(54.265705, 41.861659)"><g><path d="M 1.03125 0 L 1.03125 -11.859375 L 3.53125 -11.859375 L 3.53125 -6.96875 L 8.625 -6.96875 L 8.625 -11.859375 L 11.125 -11.859375 L 11.125 0 L 8.625 0 L 8.625 -4.890625 L 3.53125 -4.890625 L 3.53125 0 Z M 1.03125 0 "/></g></g></g><g fill="#ffffff" fill-opacity="1"><g transform="translate(66.419055, 41.861659)"><g><path d="M 5 0.171875 C 4.101562 0.171875 3.328125 -0.0195312 2.671875 -0.40625 C 2.015625 -0.789062 1.507812 -1.328125 1.15625 -2.015625 C 0.800781 -2.703125 0.625 -3.5 0.625 -4.40625 C 0.625 -5.320312 0.800781 -6.125 1.15625 -6.8125 C 1.507812 -7.507812 2.015625 -8.046875 2.671875 -8.421875 C 3.328125 -8.804688 4.101562 -9 5 -9 C 5.894531 -9 6.671875 -8.804688 7.328125 -8.421875 C 7.984375 -8.046875 8.488281 -7.507812 8.84375 -6.8125 C 9.195312 -6.125 9.375 -5.320312 9.375 -4.40625 C 9.375 -3.5 9.195312 -2.703125 8.84375 -2.015625 C 8.488281 -1.328125 7.984375 -0.789062 7.328125 -0.40625 C 6.671875 -0.0195312 5.894531 0.171875 5 0.171875 Z M 5.015625 -1.734375 C 5.617188 -1.734375 6.078125 -1.988281 6.390625 -2.5 C 6.710938 -3.007812 6.875 -3.648438 6.875 -4.421875 C 6.875 -5.203125 6.710938 -5.847656 6.390625 -6.359375 C 6.078125 -6.867188 5.617188 -7.125 5.015625 -7.125 C 4.390625 -7.125 3.914062 -6.867188 3.59375 -6.359375 C 3.28125 -5.847656 3.125 -5.203125 3.125 -4.421875 C 3.125 -3.648438 3.28125 -3.007812 3.59375 -2.5 C 3.914062 -1.988281 4.390625 -1.734375 5.015625 -1.734375 Z M 5.015625 -1.734375 "/></g></g></g><g fill="#ffffff" fill-opacity="1"><g transform="translate(76.414766, 41.861659)"><g><path d="M 0.984375 0 L 0.984375 -8.890625 L 3.328125 -8.890625 L 3.328125 -7.328125 L 3.4375 -7.328125 C 3.625 -7.847656 3.929688 -8.253906 4.359375 -8.546875 C 4.796875 -8.847656 5.316406 -9 5.921875 -9 C 6.523438 -9 7.039062 -8.847656 7.46875 -8.546875 C 7.894531 -8.242188 8.179688 -7.835938 8.328125 -7.328125 L 8.421875 -7.328125 C 8.597656 -7.828125 8.925781 -8.226562 9.40625 -8.53125 C 9.882812 -8.84375 10.445312 -9 11.09375 -9 C 11.925781 -9 12.601562 -8.734375 13.125 -8.203125 C 13.644531 -7.679688 13.90625 -6.941406 13.90625 -5.984375 L 13.90625 0 L 11.4375 0 L 11.4375 -5.484375 C 11.4375 -5.984375 11.304688 -6.351562 11.046875 -6.59375 C 10.785156 -6.84375 10.457031 -6.96875 10.0625 -6.96875 C 9.613281 -6.96875 9.265625 -6.820312 9.015625 -6.53125 C 8.765625 -6.25 8.640625 -5.878906 8.640625 -5.421875 L 8.640625 0 L 6.25 0 L 6.25 -5.546875 C 6.25 -5.984375 6.125 -6.328125 5.875 -6.578125 C 5.625 -6.835938 5.296875 -6.96875 4.890625 -6.96875 C 4.484375 -6.96875 4.140625 -6.816406 3.859375 -6.515625 C 3.585938 -6.222656 3.453125 -5.828125 3.453125 -5.328125 L 3.453125 0 Z M 0.984375 0 "/></g></g></g><g fill="#ffffff" fill-opacity="1"><g transform="translate(91.269503, 41.861659)"><g><path d="M 5.03125 0.171875 C 4.125 0.171875 3.335938 -0.0078125 2.671875 -0.375 C 2.015625 -0.75 1.507812 -1.28125 1.15625 -1.96875 C 0.800781 -2.65625 0.625 -3.46875 0.625 -4.40625 C 0.625 -5.320312 0.800781 -6.125 1.15625 -6.8125 C 1.507812 -7.5 2.007812 -8.035156 2.65625 -8.421875 C 3.300781 -8.804688 4.0625 -9 4.9375 -9 C 5.71875 -9 6.421875 -8.832031 7.046875 -8.5 C 7.679688 -8.175781 8.179688 -7.675781 8.546875 -7 C 8.921875 -6.332031 9.109375 -5.492188 9.109375 -4.484375 L 9.109375 -3.8125 L 3.0625 -3.8125 C 3.0625 -3.144531 3.242188 -2.617188 3.609375 -2.234375 C 3.972656 -1.859375 4.460938 -1.671875 5.078125 -1.671875 C 5.484375 -1.671875 5.835938 -1.753906 6.140625 -1.921875 C 6.441406 -2.097656 6.65625 -2.359375 6.78125 -2.703125 L 9.0625 -2.546875 C 8.882812 -1.722656 8.441406 -1.0625 7.734375 -0.5625 C 7.035156 -0.0703125 6.132812 0.171875 5.03125 0.171875 Z M 3.0625 -5.34375 L 6.796875 -5.34375 C 6.785156 -5.875 6.613281 -6.3125 6.28125 -6.65625 C 5.945312 -7 5.515625 -7.171875 4.984375 -7.171875 C 4.429688 -7.171875 3.976562 -6.988281 3.625 -6.625 C 3.28125 -6.269531 3.09375 -5.84375 3.0625 -5.34375 Z M 3.0625 -5.34375 "/></g></g></g></svg>