<svg xmlns="http://www.w3.org/2000/svg" xmlns:xlink="http://www.w3.org/1999/xlink" width="40" zoomAndPan="magnify" viewBox="0 0 30 30.000001" height="40" preserveAspectRatio="xMidYMid meet" version="1.0"><defs><clipPath id="9a2c8d5d12"><path d="M 12.359375 11.875 L 23.246094 11.875 L 23.246094 22.765625 L 12.359375 22.765625 Z M 12.359375 11.875 " clip-rule="nonzero"/></clipPath><clipPath id="7d12aaf1ee"><path d="M 1 3 L 29 3 L 29 27.726562 L 1 27.726562 Z M 1 3 " clip-rule="nonzero"/></clipPath></defs><g clip-path="url(#9a2c8d5d12)"><path fill="#000000" d="M 20.753906 20.269531 C 20.660156 20.363281 20.535156 20.410156 20.414062 20.410156 C 20.289062 20.410156 20.167969 20.363281 20.074219 20.269531 L 18.851562 19.046875 C 18.410156 19.347656 17.898438 19.496094 17.386719 19.496094 C 16.722656 19.496094 16.058594 19.242188 15.554688 18.738281 C 14.542969 17.726562 14.542969 16.082031 15.554688 15.070312 C 16.566406 14.058594 18.210938 14.058594 19.222656 15.070312 C 20.117188 15.964844 20.21875 17.355469 19.53125 18.367188 L 20.753906 19.589844 C 20.941406 19.777344 20.941406 20.082031 20.753906 20.269531 Z M 17.804688 11.875 C 14.796875 11.875 12.359375 14.3125 12.359375 17.320312 C 12.359375 20.328125 14.796875 22.765625 17.804688 22.765625 C 20.8125 22.765625 23.246094 20.328125 23.246094 17.320312 C 23.246094 14.3125 20.8125 11.875 17.804688 11.875 " fill-opacity="1" fill-rule="nonzero"/></g><path fill="#000000" d="M 17.386719 15.109375 C 16.929688 15.109375 16.46875 15.285156 16.121094 15.636719 C 15.421875 16.335938 15.421875 17.472656 16.121094 18.171875 C 16.820312 18.871094 17.957031 18.871094 18.65625 18.171875 C 19.355469 17.472656 19.355469 16.335938 18.65625 15.636719 C 18.308594 15.285156 17.847656 15.109375 17.386719 15.109375 " fill-opacity="1" fill-rule="nonzero"/><g clip-path="url(#7d12aaf1ee)"><path fill="#ffffff" d="M 28.167969 9.441406 C 26.675781 1.757812 17.316406 1.628906 15.007812 8.8125 C 12.699219 1.628906 3.339844 1.757812 1.84375 9.441406 C 0.492188 16.410156 15.007812 27.402344 15.007812 27.402344 C 15.007812 27.402344 29.523438 16.410156 28.167969 9.441406 Z M 28.167969 9.441406 " fill-opacity="1" fill-rule="nonzero"/></g></svg>