<svg xmlns="http://www.w3.org/2000/svg" xmlns:xlink="http://www.w3.org/1999/xlink" width="40" zoomAndPan="magnify" viewBox="0 0 30 30.000001" height="40" preserveAspectRatio="xMidYMid meet" version="1.0"><defs><clipPath id="1f587bbf81"><path d="M 0.484375 0 L 29.515625 0 L 29.515625 29.03125 L 0.484375 29.03125 Z M 0.484375 0 " clip-rule="nonzero"/></clipPath><clipPath id="99067e830f"><path d="M 4.710938 2.902344 L 25.035156 2.902344 L 25.035156 23.226562 L 4.710938 23.226562 Z M 4.710938 2.902344 " clip-rule="nonzero"/></clipPath><clipPath id="775c8f4902"><path d="M 0.484375 0 L 29.515625 0 L 29.515625 29.03125 L 0.484375 29.03125 Z M 0.484375 0 " clip-rule="nonzero"/></clipPath></defs><g clip-path="url(#1f587bbf81)"><path fill="#ffffff" d="M 0.484375 0 L 29.515625 0 L 29.515625 29.03125 L 0.484375 29.03125 Z M 0.484375 0 " fill-opacity="1" fill-rule="nonzero"/><path fill="#000000" d="M 0.484375 0 L 29.515625 0 L 29.515625 29.03125 L 0.484375 29.03125 Z M 0.484375 0 " fill-opacity="1" fill-rule="nonzero"/></g><g clip-path="url(#99067e830f)"><path fill="#000000" d="M 25.285156 20.347656 C 25.285156 22.074219 23.882812 23.472656 22.15625 23.472656 L 7.839844 23.472656 C 6.113281 23.472656 4.710938 22.074219 4.710938 20.347656 L 4.710938 6.027344 C 4.710938 4.300781 6.113281 2.902344 7.839844 2.902344 L 22.15625 2.902344 C 23.882812 2.902344 25.285156 4.300781 25.285156 6.027344 Z M 25.285156 20.347656 " fill-opacity="1" fill-rule="nonzero"/></g><path fill="#ffffff" d="M 12.847656 10.242188 C 12.847656 10.445312 12.808594 10.640625 12.730469 10.828125 C 12.652344 11.019531 12.539062 11.183594 12.398438 11.328125 C 12.253906 11.472656 12.085938 11.582031 11.898438 11.660156 C 11.710938 11.738281 11.515625 11.777344 11.308594 11.777344 C 11.105469 11.777344 10.910156 11.738281 10.722656 11.660156 C 10.535156 11.582031 10.367188 11.472656 10.222656 11.328125 C 10.078125 11.183594 9.96875 11.019531 9.890625 10.828125 C 9.8125 10.640625 9.773438 10.445312 9.773438 10.242188 C 9.773438 10.039062 9.8125 9.839844 9.890625 9.652344 C 9.96875 9.464844 10.078125 9.296875 10.222656 9.15625 C 10.367188 9.011719 10.535156 8.898438 10.722656 8.820312 C 10.910156 8.742188 11.105469 8.703125 11.308594 8.703125 C 11.515625 8.703125 11.710938 8.742188 11.898438 8.820312 C 12.085938 8.898438 12.253906 9.011719 12.398438 9.15625 C 12.539062 9.296875 12.652344 9.464844 12.730469 9.652344 C 12.808594 9.839844 12.847656 10.039062 12.847656 10.242188 Z M 12.847656 10.242188 " fill-opacity="1" fill-rule="nonzero"/><path fill="#ffffff" d="M 9.984375 12.910156 L 12.625 12.910156 L 12.625 21.402344 L 9.984375 21.402344 Z M 9.984375 12.910156 " fill-opacity="1" fill-rule="nonzero"/><path fill="#ffffff" d="M 14.285156 12.910156 L 16.796875 12.910156 L 16.796875 21.402344 L 14.285156 21.402344 Z M 14.285156 12.910156 " fill-opacity="1" fill-rule="nonzero"/><path fill="#ffffff" d="M 14.394531 17.433594 L 16.90625 17.433594 L 16.90625 21.402344 L 14.394531 21.402344 Z M 14.394531 17.433594 " fill-opacity="1" fill-rule="nonzero"/><path fill="#ffffff" d="M 16.90625 17.433594 C 16.90625 17.433594 16.867188 16.332031 17.160156 15.757812 C 17.160156 15.757812 17.449219 15.054688 18.363281 15.050781 C 18.363281 15.050781 19.433594 14.863281 19.742188 15.925781 C 19.742188 15.925781 19.855469 16.515625 19.855469 16.761719 C 19.855469 17.011719 19.863281 21.402344 19.863281 21.402344 L 22.496094 21.402344 L 22.496094 16.539062 C 22.496094 16.539062 22.6875 13.789062 21.039062 13.039062 C 21.039062 13.039062 18.324219 11.820312 16.855469 14.058594 C 16.855469 14.058594 16.53125 14.277344 16.488281 13.65625 C 16.445312 13.039062 16.066406 14.609375 16.058594 14.644531 C 16.046875 14.675781 16.488281 17.777344 16.488281 17.777344 Z M 16.90625 17.433594 " fill-opacity="1" fill-rule="nonzero"/><g clip-path="url(#775c8f4902)"><path fill="#ffffff" d="M 15 0 C 6.980469 0 0.484375 6.496094 0.484375 14.515625 C 0.484375 22.535156 6.980469 29.03125 15 29.03125 C 23.019531 29.03125 29.515625 22.535156 29.515625 14.515625 C 29.515625 6.496094 23.019531 0 15 0 Z M 15 26.128906 C 8.582031 26.128906 3.386719 20.933594 3.386719 14.515625 C 3.386719 8.101562 8.582031 2.902344 15 2.902344 C 21.417969 2.902344 26.613281 8.101562 26.613281 14.515625 C 26.613281 20.933594 21.417969 26.128906 15 26.128906 Z M 15 26.128906 " fill-opacity="1" fill-rule="nonzero"/></g></svg>