<svg xmlns="http://www.w3.org/2000/svg" xmlns:xlink="http://www.w3.org/1999/xlink" width="200" zoomAndPan="magnify" viewBox="0 0 150 149.999998" height="200" preserveAspectRatio="xMidYMid meet" version="1.0"><defs><clipPath id="3083ceb91d"><path d="M 0 3.816406 L 150 3.816406 L 150 143 L 0 143 Z M 0 3.816406 " clip-rule="nonzero"/></clipPath></defs><g clip-path="url(#3083ceb91d)"><path fill="#ffffff" d="M 1.242188 52.988281 L 48.179688 80.714844 L 46.964844 102.335938 C 46.964844 102.664062 47.023438 102.980469 47.148438 103.289062 C 47.269531 103.597656 47.441406 103.871094 47.667969 104.109375 C 47.894531 104.351562 48.15625 104.539062 48.453125 104.679688 C 48.753906 104.820312 49.066406 104.902344 49.398438 104.921875 L 68.742188 105.359375 L 97.578125 141.722656 C 98.085938 142.347656 98.738281 142.664062 99.542969 142.679688 L 99.957031 142.679688 C 100.398438 142.59375 100.792969 142.40625 101.140625 142.117188 C 101.484375 141.828125 101.738281 141.472656 101.898438 141.050781 L 149.84375 7.058594 C 149.855469 6.9375 149.855469 6.816406 149.84375 6.695312 C 149.855469 6.59375 149.855469 6.488281 149.84375 6.386719 C 149.894531 6.09375 149.894531 5.800781 149.84375 5.507812 C 149.777344 5.191406 149.648438 4.910156 149.457031 4.652344 L 149.222656 4.394531 L 148.964844 4.136719 L 148.808594 4.136719 L 148.472656 3.980469 C 148.308594 3.90625 148.136719 3.851562 147.957031 3.824219 L 147.621094 3.824219 C 147.378906 3.773438 147.136719 3.773438 146.898438 3.824219 L 146.691406 3.824219 L 1.863281 48.410156 C 1.398438 48.570312 1.011719 48.835938 0.699219 49.214844 C 0.386719 49.589844 0.195312 50.019531 0.128906 50.507812 C 0.0664062 50.992188 0.132812 51.457031 0.332031 51.90625 C 0.53125 52.351562 0.835938 52.714844 1.242188 52.988281 Z M 52.085938 100.03125 L 52.914062 85.523438 L 64.65625 100.34375 Z M 98.636719 134.996094 L 55.113281 80.273438 L 142.242188 13.367188 Z M 134.84375 12.695312 L 51.386719 76.835938 L 8.636719 51.566406 Z M 134.84375 12.695312 " fill-opacity="1" fill-rule="nonzero"/></g><path fill="#ffffff" d="M 25.085938 120.28125 L 25.628906 120.28125 C 25.910156 120.273438 26.179688 120.222656 26.445312 120.125 C 26.707031 120.03125 26.949219 119.894531 27.167969 119.71875 C 27.386719 119.542969 27.574219 119.339844 27.726562 119.101562 C 27.878906 118.867188 27.992188 118.613281 28.058594 118.34375 C 29.027344 114.183594 30.441406 110.175781 32.292969 106.328125 C 34.148438 102.480469 36.402344 98.882812 39.050781 95.53125 C 39.25 95.277344 39.394531 95 39.488281 94.691406 C 39.582031 94.382812 39.613281 94.070312 39.589844 93.75 C 39.566406 93.429688 39.488281 93.125 39.347656 92.832031 C 39.210938 92.542969 39.027344 92.289062 38.792969 92.066406 C 38.53125 91.871094 38.242188 91.726562 37.921875 91.640625 C 37.605469 91.554688 37.285156 91.527344 36.957031 91.566406 C 36.632812 91.601562 36.324219 91.695312 36.03125 91.851562 C 35.742188 92.003906 35.488281 92.203125 35.277344 92.453125 C 32.378906 96.09375 29.914062 100.007812 27.890625 104.199219 C 25.867188 108.386719 24.328125 112.75 23.277344 117.28125 C 23.210938 117.601562 23.207031 117.917969 23.261719 118.238281 C 23.316406 118.558594 23.429688 118.859375 23.59375 119.136719 C 23.761719 119.414062 23.976562 119.652344 24.234375 119.847656 C 24.488281 120.046875 24.773438 120.191406 25.085938 120.28125 Z M 25.085938 120.28125 " fill-opacity="1" fill-rule="nonzero"/><path fill="#ffffff" d="M 21.621094 129.722656 L 21.621094 142.652344 C 21.570312 142.84375 21.539062 143.039062 21.53125 143.238281 C 21.523438 143.4375 21.539062 143.632812 21.578125 143.828125 C 21.617188 144.023438 21.675781 144.210938 21.757812 144.394531 C 21.839844 144.574219 21.941406 144.742188 22.0625 144.902344 C 22.183594 145.058594 22.320312 145.203125 22.472656 145.328125 C 22.625 145.453125 22.792969 145.5625 22.96875 145.648438 C 23.148438 145.738281 23.335938 145.804688 23.527344 145.851562 C 23.722656 145.894531 23.917969 145.917969 24.117188 145.917969 C 24.316406 145.917969 24.511719 145.894531 24.703125 145.851562 C 24.898438 145.804688 25.085938 145.738281 25.261719 145.648438 C 25.441406 145.5625 25.605469 145.453125 25.757812 145.328125 C 25.914062 145.203125 26.050781 145.058594 26.171875 144.902344 C 26.292969 144.742188 26.394531 144.574219 26.472656 144.394531 C 26.554688 144.210938 26.617188 144.023438 26.652344 143.828125 C 26.691406 143.632812 26.707031 143.4375 26.699219 143.238281 C 26.695312 143.039062 26.664062 142.84375 26.613281 142.652344 L 26.613281 129.722656 C 26.539062 129.449219 26.421875 129.191406 26.261719 128.957031 C 26.105469 128.722656 25.914062 128.519531 25.6875 128.34375 C 25.460938 128.171875 25.214844 128.042969 24.945312 127.949219 C 24.675781 127.859375 24.398438 127.8125 24.117188 127.8125 C 23.832031 127.8125 23.554688 127.859375 23.289062 127.949219 C 23.019531 128.042969 22.769531 128.171875 22.546875 128.34375 C 22.320312 128.519531 22.128906 128.722656 21.96875 128.957031 C 21.8125 129.191406 21.695312 129.449219 21.621094 129.722656 Z M 21.621094 129.722656 " fill-opacity="1" fill-rule="nonzero"/></svg>