<svg xmlns="http://www.w3.org/2000/svg" xmlns:xlink="http://www.w3.org/1999/xlink" width="70" zoomAndPan="magnify" viewBox="0 0 52.5 52.499999" height="70" preserveAspectRatio="xMidYMid meet" version="1.0"><defs><clipPath id="c57ea76fde"><path d="M 0 0 L 52.003906 0 L 52.003906 52.003906 L 0 52.003906 Z M 0 0 " clip-rule="nonzero"/></clipPath></defs><g clip-path="url(#c57ea76fde)"><path fill="#ffffff" d="M 49.921875 19.058594 L 45.128906 18.21875 C 45.09375 18.140625 45.0625 18.0625 45.027344 17.984375 L 47.824219 13.996094 C 48.527344 12.996094 48.410156 11.636719 47.542969 10.773438 L 41.230469 4.460938 C 40.367188 3.59375 39.007812 3.476562 38.007812 4.179688 L 34.019531 6.976562 C 33.941406 6.941406 33.863281 6.910156 33.785156 6.878906 L 32.945312 2.082031 C 32.734375 0.878906 31.6875 0 30.464844 0 L 21.539062 0 C 20.316406 0 19.273438 0.878906 19.058594 2.082031 L 18.21875 6.878906 C 18.140625 6.910156 18.0625 6.941406 17.984375 6.976562 L 13.996094 4.179688 C 12.996094 3.476562 11.636719 3.597656 10.773438 4.460938 L 4.460938 10.773438 C 3.597656 11.636719 3.476562 12.996094 4.179688 13.996094 L 6.976562 17.984375 C 6.941406 18.0625 6.910156 18.140625 6.878906 18.21875 L 2.082031 19.058594 C 0.878906 19.273438 0 20.316406 0 21.539062 L 0 30.464844 C 0 31.6875 0.878906 32.734375 2.082031 32.945312 L 6.878906 33.785156 C 6.910156 33.863281 6.941406 33.941406 6.976562 34.019531 L 4.179688 38.007812 C 3.476562 39.007812 3.597656 40.367188 4.460938 41.230469 L 10.773438 47.542969 C 11.636719 48.410156 12.992188 48.527344 13.996094 47.824219 L 17.984375 45.027344 C 18.0625 45.0625 18.140625 45.09375 18.21875 45.128906 L 19.058594 49.921875 C 19.273438 51.128906 20.316406 52.003906 21.539062 52.003906 L 30.464844 52.003906 C 31.6875 52.003906 32.734375 51.128906 32.945312 49.921875 L 33.785156 45.128906 C 33.863281 45.09375 33.941406 45.0625 34.019531 45.027344 L 38.007812 47.824219 C 39.011719 48.527344 40.371094 48.410156 41.230469 47.542969 L 47.542969 41.230469 C 48.410156 40.367188 48.527344 39.007812 47.824219 38.007812 L 45.027344 34.019531 C 45.0625 33.941406 45.09375 33.863281 45.128906 33.785156 L 49.921875 32.945312 C 51.128906 32.734375 52.003906 31.6875 52.003906 30.464844 L 52.003906 21.539062 C 52.003906 20.316406 51.128906 19.273438 49.921875 19.058594 Z M 46.972656 28.351562 L 42.832031 29.078125 C 41.910156 29.242188 41.15625 29.898438 40.871094 30.789062 C 40.621094 31.5625 40.292969 32.347656 39.894531 33.121094 C 39.46875 33.953125 39.535156 34.953125 40.074219 35.71875 L 42.492188 39.167969 L 39.167969 42.492188 L 35.71875 40.074219 C 34.953125 39.535156 33.953125 39.464844 33.121094 39.894531 C 32.347656 40.292969 31.5625 40.621094 30.789062 40.871094 C 29.898438 41.15625 29.242188 41.910156 29.078125 42.832031 L 28.351562 46.972656 L 23.652344 46.972656 L 22.925781 42.832031 C 22.761719 41.910156 22.105469 41.15625 21.21875 40.871094 C 20.445312 40.621094 19.65625 40.292969 18.882812 39.894531 C 18.050781 39.464844 17.050781 39.535156 16.285156 40.074219 L 12.835938 42.492188 L 9.511719 39.167969 L 11.933594 35.71875 C 12.46875 34.953125 12.539062 33.953125 12.109375 33.121094 C 11.710938 32.347656 11.382812 31.5625 11.132812 30.789062 C 10.847656 29.898438 10.09375 29.242188 9.171875 29.078125 L 5.03125 28.351562 L 5.03125 23.652344 L 9.171875 22.925781 C 10.09375 22.761719 10.847656 22.105469 11.132812 21.21875 C 11.382812 20.445312 11.710938 19.65625 12.109375 18.882812 C 12.539062 18.050781 12.46875 17.050781 11.933594 16.285156 L 9.511719 12.835938 L 12.835938 9.511719 L 16.285156 11.933594 C 17.050781 12.46875 18.050781 12.539062 18.882812 12.109375 C 19.65625 11.710938 20.445312 11.382812 21.21875 11.132812 C 22.105469 10.847656 22.761719 10.09375 22.925781 9.171875 L 23.652344 5.03125 L 28.351562 5.03125 L 29.078125 9.171875 C 29.242188 10.09375 29.898438 10.847656 30.789062 11.132812 C 31.5625 11.382812 32.347656 11.710938 33.121094 12.109375 C 33.953125 12.539062 34.953125 12.46875 35.71875 11.933594 L 39.167969 9.511719 L 42.492188 12.835938 L 40.074219 16.285156 C 39.535156 17.050781 39.46875 18.050781 39.894531 18.882812 C 40.292969 19.660156 40.621094 20.445312 40.871094 21.21875 C 41.15625 22.105469 41.910156 22.761719 42.832031 22.925781 L 46.972656 23.652344 Z M 46.972656 28.351562 " fill-opacity="1" fill-rule="nonzero"/></g><path fill="#ffffff" d="M 26.003906 13.421875 C 19.0625 13.421875 13.421875 19.0625 13.421875 26.003906 C 13.421875 32.941406 19.0625 38.585938 26.003906 38.585938 C 32.941406 38.585938 38.585938 32.941406 38.585938 26.003906 C 38.585938 19.0625 32.941406 13.421875 26.003906 13.421875 Z M 26.003906 33.550781 C 21.839844 33.550781 18.453125 30.164062 18.453125 26.003906 C 18.453125 21.839844 21.839844 18.453125 26.003906 18.453125 C 30.164062 18.453125 33.550781 21.839844 33.550781 26.003906 C 33.550781 30.164062 30.164062 33.550781 26.003906 33.550781 Z M 26.003906 33.550781 " fill-opacity="1" fill-rule="nonzero"/></svg>