<?xml version="1.0" encoding="UTF-8"?>
<svg version="1.1" xmlns="http://www.w3.org/2000/svg" width="600" height="600">
<path d="M0 0 C198 0 396 0 600 0 C600 198 600 396 600 600 C402 600 204 600 0 600 C0 402 0 204 0 0 Z " fill="#000000" transform="translate(0,0)"/>
<path d="M0 0 C0.81649521 -0.0065712 1.63299042 -0.0131424 2.47422791 -0.01991272 C5.18447966 -0.03966973 7.89467584 -0.05131601 10.60498047 -0.0612793 C11.53092892 -0.06535482 12.45687737 -0.06943035 13.41088486 -0.07362938 C18.31542489 -0.0945042 23.21993685 -0.10879762 28.12451172 -0.11816406 C33.18183058 -0.12920823 38.23870699 -0.16358101 43.29586983 -0.20333576 C47.19077347 -0.22953654 51.08557248 -0.23785916 54.98055649 -0.24144554 C56.84400279 -0.24630558 58.7074446 -0.25790292 60.5708046 -0.27648354 C63.1868771 -0.30094015 65.80181594 -0.29989784 68.41796875 -0.29296875 C69.56233147 -0.31218384 69.56233147 -0.31218384 70.72981262 -0.33178711 C76.78609123 -0.2736465 82.06175868 1.38504026 86.59378242 5.5535841 C91.19973758 10.79845169 93.48931545 16.86934611 95.34716797 23.48950195 C95.5547876 24.21024902 95.76240723 24.93099609 95.97631836 25.67358398 C97.26477733 30.1689054 98.51477 34.67486966 99.76513672 39.1809082 C100.35487841 41.30463446 100.94472375 43.42833194 101.53466797 45.55200195 C101.82833252 46.6114502 102.12199707 47.67089844 102.42456055 48.76245117 C104.55811125 56.40256123 106.85558009 63.97644081 109.31958008 71.51635742 C111.09716797 76.98520146 111.09716797 76.98520146 111.09716797 79.17700195 C111.93590641 79.17510335 112.77464485 79.17320475 113.63879961 79.17124861 C163.34121182 79.05937593 213.04361068 78.97357811 262.74612358 78.92167531 C268.7129921 78.91542172 274.67986037 78.90895011 280.64672852 78.90234375 C281.8346324 78.9010322 283.02253629 78.89972065 284.24643726 78.89836935 C303.48477955 78.87660849 322.72304719 78.83718318 341.96134519 78.79123797 C361.69931059 78.74449234 381.43723687 78.71671055 401.17525536 78.70655948 C413.35623063 78.69969642 425.5369949 78.67801436 437.71790523 78.63741962 C446.0690378 78.61100468 454.42006116 78.60299816 462.77123248 78.60949507 C467.59060135 78.61269987 472.40960132 78.60776205 477.22890472 78.58097458 C481.6428303 78.55661956 486.05613937 78.5554289 490.4700935 78.57250748 C492.06514109 78.57461784 493.66022736 78.56829408 495.25519901 78.55258604 C504.97423524 78.46244981 512.70392032 78.92962108 519.9616527 85.99105948 C525.43585748 91.85825893 526.54644202 97.28484734 526.41357422 105.18383789 C525.96876206 112.53300948 524.23862308 119.74396739 522.70898438 126.92724609 C521.64548522 131.92433408 520.62480138 136.93025161 519.59716797 141.93481445 C519.27981689 143.47138702 519.27981689 143.47138702 518.95605469 145.03900146 C516.85999168 155.22594006 514.9661016 165.44641381 513.09716797 175.67700195 C510.22976132 191.31384486 507.18003199 206.90695965 504.02844238 222.48886108 C501.17039622 236.63280548 498.46048404 250.79839523 495.84716797 264.98950195 C491.28041584 289.70364127 491.28041584 289.70364127 489.34716797 299.36450195 C489.17282227 300.27756104 488.99847656 301.19062012 488.81884766 302.13134766 C487.32517966 309.4077049 485.07182672 316.14204742 479.22216797 321.05200195 C478.58537109 321.60629883 477.94857422 322.1605957 477.29248047 322.73168945 C472.00863654 326.21037674 465.97137833 326.74230452 459.83935547 327.47387695 C458.46663231 327.64485649 458.46663231 327.64485649 457.06617737 327.81929016 C454.03557715 328.19480381 451.00393667 328.56105148 447.97216797 328.92700195 C445.82897937 329.19026038 443.68583231 329.45385722 441.54272461 329.71777344 C424.77612382 331.77230935 407.99553173 333.70480571 391.21234131 335.61828613 C376.55518015 337.28988961 361.91729776 339.06121249 347.29049683 340.97952271 C331.78655656 343.00863109 316.25746681 344.79264099 300.72192383 346.56124878 C286.49882162 348.18235906 272.29101286 349.87954744 258.09716797 351.73950195 C244.15353805 353.56608422 230.19685647 355.23044315 216.22216797 356.80200195 C215.28775879 356.9071109 214.35334961 357.01221985 213.390625 357.12051392 C209.76862654 357.5276559 206.14658354 357.93439845 202.5244751 358.34056091 C195.04598471 359.18005124 187.57019003 360.039953 180.09716797 360.92700195 C178.61240967 361.10030029 178.61240967 361.10030029 177.09765625 361.27709961 C176.21062012 361.38328613 175.32358398 361.48947266 174.40966797 361.59887695 C173.66330078 361.6875 172.91693359 361.77612305 172.14794922 361.86743164 C170.05870498 362.18280803 168.10445528 362.5099858 166.09716797 363.17700195 C163.18824302 368.38882582 163.1946436 374.39264124 164.09716797 380.17700195 C168.23857453 384.75434605 174.17308223 385.49008443 180.09716797 386.17700195 C190.76113144 386.61935271 201.28340187 385.71273525 211.89013672 384.7512207 C213.58982101 384.60182006 215.28956006 384.4530412 216.98934937 384.30484009 C220.57024767 383.99182793 224.1508405 383.67560155 227.73123169 383.35684204 C236.15932868 382.60764089 244.58959688 381.88348939 253.0197506 381.15786552 C255.77937157 380.92031786 258.53895502 380.6823374 261.29853821 380.4443512 C279.41009267 378.8841711 297.51547658 377.41672251 315.6651001 376.37426758 C318.17589954 376.22995388 320.68658306 376.08411011 323.19720459 375.93676758 C360.12800587 373.77403448 397.0552402 371.78973855 434.05851746 371.74309921 C436.08026147 371.73953179 438.10193346 371.73087766 440.12365723 371.72134399 C443.84432825 371.71000795 447.56405913 371.72160286 451.28466797 371.7434082 C452.8961673 371.7392691 452.8961673 371.7392691 454.54022217 371.73504639 C461.54220562 371.82242169 468.63329989 372.35947157 474.25341797 376.9309082 C474.69685547 377.52774414 475.14029297 378.12458008 475.59716797 378.73950195 C476.06123047 379.33891602 476.52529297 379.93833008 477.00341797 380.5559082 C480.20337743 385.29870527 479.69283358 390.64977923 479.09716797 396.17700195 C477.39376044 401.12802759 475.19997653 403.49370953 470.75024414 406.25073242 C465.22621931 408.9390659 459.81347044 408.74353497 453.77294922 408.71606445 C452.57445847 408.72708694 451.37596771 408.73810944 450.14115906 408.74946594 C446.90235297 408.77741822 443.66395248 408.78915408 440.42504883 408.79520798 C434.97721152 408.81357298 429.52960072 408.88489988 424.08211899 408.94693565 C422.01993795 408.97000439 419.95774207 408.99098977 417.89553833 409.01191711 C405.95047356 409.14070612 394.02853835 409.54151193 382.09716797 410.11450195 C381.18913422 410.15770569 380.28110046 410.20090942 379.34555054 410.24542236 C374.09302511 410.49819225 368.84142685 410.76629684 363.59020996 411.04486084 C361.12549714 411.17550039 358.66066892 411.30372439 356.19580078 411.43139648 C346.52548945 411.93469798 336.85771866 412.47501688 327.19152832 413.05200195 C325.78880072 413.13572248 324.38604976 413.21905225 322.98327637 413.30200195 C318.18738694 413.58562833 313.39217143 413.87875664 308.59716797 414.17700195 C307.42428223 414.24790039 306.25139648 414.31879883 305.04296875 414.3918457 C298.31039315 414.82297258 291.61048717 415.41477592 284.90185547 416.11450195 C272.19784385 417.43123783 259.4618196 418.28640916 246.72216797 419.17700195 C242.00583197 419.50770094 237.28967264 419.84073195 232.57373047 420.17700195 C231.43171677 420.25823303 230.28970306 420.33946411 229.11308289 420.42315674 C220.87826165 421.02005232 212.65710336 421.72294034 204.44168091 422.5456543 C181.89236249 424.73284881 158.60868716 423.93423488 140.09716797 409.17700195 C131.00182422 400.36151493 126.98788935 390.32131061 126.5078125 377.8684082 C126.33131446 362.99421694 129.19090091 350.92145688 137.15576172 338.21606445 C139.3202901 331.22849981 135.58458028 323.02205823 133.47216797 316.23950195 C132.93767903 314.49099795 132.40386228 312.74228837 131.87060547 310.9934082 C131.58540039 310.06157715 131.30019531 309.12974609 131.00634766 308.16967773 C129.33898155 302.68133893 127.72151013 297.17819502 126.09716797 291.67700195 C123.77860862 283.83918028 121.45175904 276.00407666 119.09716797 268.17700195 C116.74257594 260.34992406 114.41639843 252.51462704 112.09716797 244.67700195 C105.72012279 223.06731854 105.72012279 223.06731854 99.03466797 201.55200195 C96.89348233 194.83974584 94.92096611 188.09949773 93.06176758 181.30419922 C89.52028967 168.37577273 85.95747588 155.41881839 81.59716797 142.73950195 C79.01561117 135.1973066 76.93797964 127.53338268 74.82373047 119.84912109 C72.89895027 112.90446021 70.82633358 106.02962215 68.59716797 99.17700195 C65.72196042 90.3254932 63.1333572 81.41511092 60.66943359 72.44067383 C58.25562597 63.65299764 55.68650001 54.91421475 53.09716797 46.17700195 C51.99628845 46.17486443 51.99628845 46.17486443 50.87316895 46.17268372 C43.92936404 46.15479458 36.98606155 46.11300663 30.04257965 46.04491138 C26.47345206 46.01073717 22.90474811 45.98554654 19.33544922 45.98144531 C15.88558404 45.97714144 12.43667295 45.94850971 8.98710632 45.90357018 C7.04199331 45.88441312 5.0966873 45.88993226 3.15148926 45.89595032 C-5.545855 45.75365733 -10.53863174 44.15364778 -16.92626953 38.33325195 C-17.37228516 37.78668945 -17.81830078 37.24012695 -18.27783203 36.67700195 C-18.73931641 36.13043945 -19.20080078 35.58387695 -19.67626953 35.02075195 C-23.59102368 29.13615337 -23.73120902 23.0307316 -22.90283203 16.17700195 C-20.60594362 9.14745509 -16.07099492 4.98955297 -9.90283203 1.17700195 C-6.77400609 -0.38741102 -3.43585854 0.01192007 0 0 Z " fill="#FDFDFD" transform="translate(36.90283203125,33.822998046875)"/>
<path d="M0 0 C37.29 0 74.58 0 113 0 C113 24.42 113 48.84 113 74 C82.64 74 52.28 74 21 74 C17.535 61.625 17.535 61.625 14 49 C11.52223889 40.60595217 9.04457141 32.22115438 6.36328125 23.890625 C6.09330322 23.04935059 5.8233252 22.20807617 5.54516602 21.34130859 C5.0367396 19.76435936 4.52337987 18.1889867 4.00366211 16.61572266 C2.2044989 11.05105689 1.16703651 5.83518254 0 0 Z " fill="#000000" transform="translate(162,159)"/>
<path d="M0 0 C31.02 0 62.04 0 94 0 C94 23.76 94 47.52 94 72 C53.2681962 77.81882911 53.2681962 77.81882911 34.52734375 79.94067383 C31.14762477 80.32411483 27.76913361 80.7173771 24.390625 81.11132812 C22.20318942 81.36254071 20.01569188 81.61321459 17.828125 81.86328125 C16.34085907 82.03661736 16.34085907 82.03661736 14.82354736 82.2134552 C13.89596619 82.31744125 12.96838501 82.42142731 12.01269531 82.52856445 C10.80870087 82.66582695 10.80870087 82.66582695 9.5803833 82.80586243 C6.39526846 83.04549755 3.1941167 83 0 83 C0 55.61 0 28.22 0 0 Z " fill="#000000" transform="translate(297,255)"/>
<path d="M0 0 C31.35 0 62.7 0 95 0 C95 24.42 95 48.84 95 74 C63.65 74 32.3 74 0 74 C0 49.58 0 25.16 0 0 Z " fill="#010101" transform="translate(297,159)"/>
<path d="M0 0 C32.67 0 65.34 0 99 0 C96.70550289 18.35597692 96.70550289 18.35597692 94.90625 26.94921875 C94.71405884 27.89456985 94.52186768 28.83992096 94.32385254 29.81391907 C93.72155857 32.77297099 93.11142715 35.73032308 92.5 38.6875 C91.88963032 41.65558645 91.2811239 44.62402534 90.67614746 47.59321594 C90.30328355 49.42169298 89.92735064 51.24954852 89.54748535 53.07658386 C88.12237286 60.04128786 87.08525451 66.94584566 86 74 C57.62 74 29.24 74 0 74 C0 49.58 0 25.16 0 0 Z " fill="#010101" transform="translate(413,159)"/>
<path d="M0 0 C11.34270387 6.90425453 18.39277726 16.28861539 22.62109375 28.83203125 C25.27847257 40.2872857 23.33989185 53.49296988 17.65234375 63.81640625 C10.29678806 74.7746831 0.19641233 82.64541048 -12.6875 85.8125 C-15.97143499 86.24459671 -19.19014652 86.33752361 -22.5 86.3125 C-23.81158081 86.30500732 -23.81158081 86.30500732 -25.1496582 86.29736328 C-32.49597415 86.1003018 -38.29870079 84.53766138 -44.6875 80.8125 C-45.50476563 80.35488281 -46.32203125 79.89726563 -47.1640625 79.42578125 C-58.14733102 72.72194679 -65.27445492 61.70598483 -68.3125 49.25 C-69.73572536 36.20376755 -68.07612121 24.49510136 -60.1875 13.66796875 C-58.17040684 11.17286653 -56.07063938 8.96313798 -53.6875 6.8125 C-52.90246094 6.07386719 -52.90246094 6.07386719 -52.1015625 5.3203125 C-37.81513662 -7.67322416 -16.95835842 -8.66955802 0 0 Z " fill="#FDFDFD" transform="translate(221.6875,480.1875)"/>
<path d="M0 0 C1.06263062 -0.00845947 1.06263062 -0.00845947 2.14672852 -0.01708984 C14.08217093 0.14608733 24.97081378 4.68807805 33.75 12.8125 C43.908565 23.57730194 47.01094067 35.73714358 46.78125 50.1328125 C46.33895485 60.26505713 42.15781813 68.79372823 35.4375 76.3125 C34.93734375 76.91578125 34.4371875 77.5190625 33.921875 78.140625 C27.10183397 85.75523392 16.11245662 91.10133926 5.8984375 91.68359375 C-8.1600529 92.02251855 -18.72690458 89.80833633 -29.5625 80.3125 C-30.46935547 79.56226563 -30.46935547 79.56226563 -31.39453125 78.796875 C-38.24404678 72.64872599 -43.80757909 62.46867889 -44.78149414 53.23657227 C-45.56944561 37.87727604 -43.0077057 26.417697 -32.97265625 14.41015625 C-23.97774121 4.73797702 -12.99508793 0.09818199 0 0 Z " fill="#FDFDFD" transform="translate(459.5625,474.6875)"/>
<path d="M0 0 C27.72 0 55.44 0 84 0 C84 28.38 84 56.76 84 86 C52.94087838 90.60135135 52.94087838 90.60135135 40.3125 91.75 C39.00345703 91.87503906 37.69441406 92.00007813 36.34570312 92.12890625 C33.23099941 92.4255447 30.11588144 92.71605406 27 93 C24.66920675 86.1771325 22.60826405 79.30593363 20.625 72.375 C18.70676824 65.72301865 16.75880984 59.10706494 14.5 52.5625 C11.52724423 43.86914514 9.15791712 35.01012013 6.71484375 26.15625 C5.0376524 20.09017304 3.26839102 14.05425618 1.421875 8.03759766 C0.57678897 5.23429782 0 2.94908973 0 0 Z " fill="#000000" transform="translate(191,255)"/>
<path d="M0 0 C26.73 0 53.46 0 81 0 C79.72400243 8.93198301 78.3761554 17.68594121 76.5625 26.5 C76.34368164 27.58079834 76.12486328 28.66159668 75.89941406 29.77514648 C74.52357639 36.5430688 73.10071197 43.29859415 71.578125 50.03515625 C71.11154582 52.42795084 70.75774003 54.76858526 70.46386719 57.18530273 C70.31079102 58.44415283 70.15771484 59.70300293 70 61 C64.08216453 61.82182495 58.16377075 62.63947391 52.24487305 63.45361328 C50.24049116 63.72987002 48.23625361 64.00717649 46.23217773 64.28564453 C35.99735919 65.70707584 25.76250961 67.08792582 15.48828125 68.1953125 C14.73024704 68.27868866 13.97221283 68.36206482 13.19120789 68.44796753 C12.47624649 68.52201813 11.7612851 68.59606873 11.0246582 68.67236328 C10.41290237 68.73626251 9.80114655 68.80016174 9.17085266 68.86599731 C6.11938353 69.05435881 3.05727721 69 0 69 C0 46.23 0 23.46 0 0 Z " fill="#010101" transform="translate(413,255)"/>
</svg>
