<svg xmlns="http://www.w3.org/2000/svg" xmlns:xlink="http://www.w3.org/1999/xlink" width="40" zoomAndPan="magnify" viewBox="0 0 30 30.000001" height="40" preserveAspectRatio="xMidYMid meet" version="1.0"><defs><clipPath id="9be5700dd0"><path d="M 12.359375 11.875 L 23.246094 11.875 L 23.246094 22.765625 L 12.359375 22.765625 Z M 12.359375 11.875 " clip-rule="nonzero"/></clipPath><clipPath id="d6a690ac87"><path d="M 0.484375 0 L 29.515625 0 L 29.515625 23 L 0.484375 23 Z M 0.484375 0 " clip-rule="nonzero"/></clipPath><clipPath id="3503e80de3"><path d="M 7 23 L 14 23 L 14 29.03125 L 7 29.03125 Z M 7 23 " clip-rule="nonzero"/></clipPath><clipPath id="e004629055"><path d="M 18 23 L 25 23 L 25 29.03125 L 18 29.03125 Z M 18 23 " clip-rule="nonzero"/></clipPath></defs><g clip-path="url(#9be5700dd0)"><path fill="#000000" d="M 20.753906 20.269531 C 20.660156 20.363281 20.535156 20.410156 20.414062 20.410156 C 20.289062 20.410156 20.167969 20.363281 20.074219 20.269531 L 18.851562 19.046875 C 18.410156 19.347656 17.898438 19.496094 17.386719 19.496094 C 16.722656 19.496094 16.058594 19.242188 15.554688 18.738281 C 14.542969 17.726562 14.542969 16.082031 15.554688 15.070312 C 16.566406 14.058594 18.210938 14.058594 19.222656 15.070312 C 20.117188 15.964844 20.21875 17.355469 19.53125 18.367188 L 20.753906 19.589844 C 20.941406 19.777344 20.941406 20.082031 20.753906 20.269531 Z M 17.804688 11.875 C 14.796875 11.875 12.359375 14.3125 12.359375 17.320312 C 12.359375 20.328125 14.796875 22.765625 17.804688 22.765625 C 20.8125 22.765625 23.246094 20.328125 23.246094 17.320312 C 23.246094 14.3125 20.8125 11.875 17.804688 11.875 " fill-opacity="1" fill-rule="nonzero"/></g><path fill="#000000" d="M 17.386719 15.109375 C 16.929688 15.109375 16.46875 15.285156 16.121094 15.636719 C 15.421875 16.335938 15.421875 17.472656 16.121094 18.171875 C 16.820312 18.871094 17.957031 18.871094 18.65625 18.171875 C 19.355469 17.472656 19.355469 16.335938 18.65625 15.636719 C 18.308594 15.285156 17.847656 15.109375 17.386719 15.109375 " fill-opacity="1" fill-rule="nonzero"/><g clip-path="url(#d6a690ac87)"><path fill="#ffffff" d="M 8.226562 18.386719 L 23.082031 18.386719 C 23.558594 18.390625 24.019531 18.3125 24.464844 18.15625 C 24.914062 18 25.324219 17.773438 25.695312 17.480469 C 26.066406 17.183594 26.375 16.835938 26.628906 16.433594 C 26.882812 16.035156 27.058594 15.601562 27.164062 15.140625 L 29.492188 5.054688 C 29.523438 4.914062 29.527344 4.769531 29.492188 4.625 C 29.460938 4.480469 29.398438 4.351562 29.304688 4.234375 C 29.214844 4.121094 29.101562 4.03125 28.96875 3.96875 C 28.835938 3.902344 28.695312 3.871094 28.546875 3.871094 L 6.03125 3.871094 L 5.296875 0.746094 C 5.246094 0.527344 5.132812 0.347656 4.957031 0.207031 C 4.78125 0.0703125 4.578125 0 4.355469 0 L 1.453125 0 C 1.324219 0 1.199219 0.0234375 1.082031 0.0742188 C 0.960938 0.121094 0.859375 0.191406 0.765625 0.285156 C 0.675781 0.375 0.605469 0.480469 0.558594 0.597656 C 0.507812 0.714844 0.484375 0.839844 0.484375 0.96875 C 0.484375 1.097656 0.507812 1.21875 0.558594 1.339844 C 0.605469 1.457031 0.675781 1.5625 0.765625 1.652344 C 0.859375 1.742188 0.960938 1.8125 1.082031 1.863281 C 1.199219 1.910156 1.324219 1.933594 1.453125 1.933594 L 3.589844 1.933594 L 7.066406 16.699219 C 6.761719 16.832031 6.488281 17.015625 6.246094 17.242188 C 6.003906 17.472656 5.808594 17.734375 5.65625 18.027344 C 5.503906 18.324219 5.40625 18.636719 5.359375 18.964844 C 5.316406 19.296875 5.328125 19.625 5.394531 19.949219 C 5.464844 20.273438 5.585938 20.578125 5.757812 20.863281 C 5.929688 21.148438 6.144531 21.394531 6.402344 21.605469 C 6.660156 21.8125 6.945312 21.976562 7.257812 22.085938 C 7.570312 22.199219 7.894531 22.257812 8.226562 22.257812 L 26.613281 22.257812 C 26.742188 22.257812 26.863281 22.234375 26.984375 22.183594 C 27.101562 22.136719 27.207031 22.066406 27.296875 21.976562 C 27.386719 21.882812 27.457031 21.777344 27.507812 21.660156 C 27.554688 21.542969 27.582031 21.417969 27.582031 21.289062 C 27.582031 21.160156 27.554688 21.039062 27.507812 20.921875 C 27.457031 20.800781 27.386719 20.695312 27.296875 20.605469 C 27.207031 20.515625 27.101562 20.445312 26.984375 20.394531 C 26.863281 20.347656 26.742188 20.324219 26.613281 20.324219 L 8.226562 20.324219 C 8.097656 20.324219 7.972656 20.296875 7.855469 20.25 C 7.738281 20.199219 7.632812 20.128906 7.542969 20.039062 C 7.449219 19.949219 7.378906 19.84375 7.332031 19.726562 C 7.28125 19.605469 7.257812 19.484375 7.257812 19.355469 C 7.257812 19.226562 7.28125 19.101562 7.332031 18.984375 C 7.378906 18.867188 7.449219 18.761719 7.542969 18.671875 C 7.632812 18.578125 7.738281 18.511719 7.855469 18.460938 C 7.972656 18.410156 8.097656 18.386719 8.226562 18.386719 Z M 27.332031 5.804688 L 25.277344 14.703125 C 25.222656 14.953125 25.125 15.183594 24.992188 15.402344 C 24.855469 15.617188 24.6875 15.804688 24.488281 15.964844 C 24.289062 16.121094 24.066406 16.242188 23.828125 16.328125 C 23.585938 16.410156 23.335938 16.453125 23.082031 16.453125 L 8.992188 16.453125 L 6.484375 5.804688 Z M 27.332031 5.804688 " fill-opacity="1" fill-rule="nonzero"/></g><g clip-path="url(#3503e80de3)"><path fill="#ffffff" d="M 10.160156 23.226562 C 9.777344 23.226562 9.40625 23.300781 9.050781 23.445312 C 8.695312 23.59375 8.378906 23.804688 8.109375 24.074219 C 7.835938 24.347656 7.625 24.664062 7.480469 25.019531 C 7.332031 25.375 7.257812 25.742188 7.257812 26.128906 C 7.257812 26.515625 7.332031 26.882812 7.480469 27.238281 C 7.625 27.597656 7.835938 27.910156 8.109375 28.183594 C 8.378906 28.453125 8.695312 28.664062 9.050781 28.8125 C 9.40625 28.957031 9.777344 29.03125 10.160156 29.03125 C 10.546875 29.03125 10.917969 28.957031 11.273438 28.8125 C 11.628906 28.664062 11.941406 28.453125 12.214844 28.183594 C 12.488281 27.910156 12.695312 27.597656 12.84375 27.238281 C 12.992188 26.882812 13.066406 26.515625 13.066406 26.128906 C 13.066406 25.742188 12.992188 25.375 12.84375 25.019531 C 12.695312 24.664062 12.488281 24.347656 12.214844 24.074219 C 11.941406 23.804688 11.628906 23.59375 11.273438 23.445312 C 10.917969 23.300781 10.546875 23.226562 10.160156 23.226562 Z M 10.160156 27.097656 C 10.03125 27.097656 9.910156 27.070312 9.789062 27.023438 C 9.671875 26.972656 9.566406 26.902344 9.476562 26.8125 C 9.386719 26.722656 9.316406 26.617188 9.265625 26.5 C 9.21875 26.378906 9.195312 26.257812 9.195312 26.128906 C 9.195312 26 9.21875 25.878906 9.265625 25.757812 C 9.316406 25.640625 9.386719 25.535156 9.476562 25.445312 C 9.566406 25.355469 9.671875 25.285156 9.789062 25.234375 C 9.910156 25.1875 10.03125 25.160156 10.160156 25.160156 C 10.289062 25.160156 10.414062 25.1875 10.53125 25.234375 C 10.648438 25.285156 10.753906 25.355469 10.84375 25.445312 C 10.9375 25.535156 11.007812 25.640625 11.054688 25.757812 C 11.105469 25.878906 11.128906 26 11.128906 26.128906 C 11.128906 26.257812 11.105469 26.378906 11.054688 26.5 C 11.007812 26.617188 10.9375 26.722656 10.84375 26.8125 C 10.753906 26.902344 10.648438 26.972656 10.53125 27.023438 C 10.414062 27.070312 10.289062 27.097656 10.160156 27.097656 Z M 10.160156 27.097656 " fill-opacity="1" fill-rule="nonzero"/></g><g clip-path="url(#e004629055)"><path fill="#ffffff" d="M 21.773438 23.226562 C 21.390625 23.226562 21.019531 23.300781 20.664062 23.445312 C 20.308594 23.59375 19.992188 23.804688 19.722656 24.074219 C 19.449219 24.347656 19.238281 24.664062 19.09375 25.019531 C 18.945312 25.375 18.871094 25.742188 18.871094 26.128906 C 18.871094 26.515625 18.945312 26.882812 19.09375 27.238281 C 19.238281 27.597656 19.449219 27.910156 19.722656 28.183594 C 19.992188 28.453125 20.308594 28.664062 20.664062 28.8125 C 21.019531 28.957031 21.390625 29.03125 21.773438 29.03125 C 22.160156 29.03125 22.53125 28.957031 22.886719 28.8125 C 23.242188 28.664062 23.554688 28.453125 23.828125 28.183594 C 24.097656 27.910156 24.308594 27.597656 24.457031 27.238281 C 24.605469 26.882812 24.675781 26.515625 24.675781 26.128906 C 24.675781 25.742188 24.605469 25.375 24.457031 25.019531 C 24.308594 24.664062 24.097656 24.347656 23.828125 24.074219 C 23.554688 23.804688 23.242188 23.59375 22.886719 23.445312 C 22.53125 23.300781 22.160156 23.226562 21.773438 23.226562 Z M 21.773438 27.097656 C 21.644531 27.097656 21.523438 27.070312 21.402344 27.023438 C 21.285156 26.972656 21.179688 26.902344 21.089844 26.8125 C 21 26.722656 20.929688 26.617188 20.878906 26.5 C 20.832031 26.378906 20.804688 26.257812 20.804688 26.128906 C 20.804688 26 20.832031 25.878906 20.878906 25.757812 C 20.929688 25.640625 21 25.535156 21.089844 25.445312 C 21.179688 25.355469 21.285156 25.285156 21.402344 25.234375 C 21.523438 25.1875 21.644531 25.160156 21.773438 25.160156 C 21.902344 25.160156 22.027344 25.1875 22.144531 25.234375 C 22.261719 25.285156 22.367188 25.355469 22.457031 25.445312 C 22.550781 25.535156 22.621094 25.640625 22.667969 25.757812 C 22.71875 25.878906 22.742188 26 22.742188 26.128906 C 22.742188 26.257812 22.71875 26.378906 22.667969 26.5 C 22.621094 26.617188 22.550781 26.722656 22.457031 26.8125 C 22.367188 26.902344 22.261719 26.972656 22.144531 27.023438 C 22.027344 27.070312 21.902344 27.097656 21.773438 27.097656 Z M 21.773438 27.097656 " fill-opacity="1" fill-rule="nonzero"/></g></svg>